<?xml version="1.0" encoding="UTF-8"?>
<svg width="2682px" height="1856px" viewBox="0 0 2682 1856" version="1.1" xmlns="http://www.w3.org/2000/svg" xmlns:xlink="http://www.w3.org/1999/xlink">
    <!-- Generator: Sketch 49 (51002) - http://www.bohemiancoding.com/sketch -->
    <title>planeteAnneau3</title>
    <desc>Created with Sketch.</desc>
    <defs>
        <linearGradient x1="16.0141093%" y1="86.6740295%" x2="83.8726332%" y2="13.4481723%" id="linearGradient-1">
            <stop stop-color="#00D454" offset="0%"></stop>
            <stop stop-color="#3FFFB6" offset="31.91%"></stop>
            <stop stop-color="#00A7BF" offset="64.47%"></stop>
            <stop stop-color="#003794" offset="99.88%"></stop>
        </linearGradient>
        <linearGradient x1="16.0141995%" y1="86.6739267%" x2="83.8353645%" y2="13.4883889%" id="linearGradient-2">
            <stop stop-color="#00D454" offset="0%"></stop>
            <stop stop-color="#3FFFB6" offset="31.91%"></stop>
            <stop stop-color="#00A7BF" offset="64.47%"></stop>
            <stop stop-color="#003794" offset="99.88%"></stop>
        </linearGradient>
        <linearGradient x1="31.8416662%" y1="-5.01461933%" x2="68.1595024%" y2="105.016199%" id="linearGradient-3">
            <stop stop-color="#00D454" offset="0%"></stop>
            <stop stop-color="#3FFFB6" offset="31.91%"></stop>
            <stop stop-color="#00A7BF" offset="64.47%"></stop>
            <stop stop-color="#003794" offset="99.88%"></stop>
        </linearGradient>
        <linearGradient x1="6.95351%" y1="-1.73095141%" x2="76.1549357%" y2="96.6515721%" id="linearGradient-4">
            <stop stop-color="#00D454" offset="0%"></stop>
            <stop stop-color="#3FFFB6" offset="31.91%"></stop>
            <stop stop-color="#00A7BF" offset="64.47%"></stop>
            <stop stop-color="#003794" offset="99.88%"></stop>
        </linearGradient>
    </defs>
    <g id="Page-1" stroke="none" stroke-width="1" fill="none" fill-rule="evenodd">
        <g id="planeteAnneau3" transform="translate(1341.000000, 928.000000) scale(-1, 1) translate(-1341.000000, -928.000000) " fill-rule="nonzero">
            <path d="M2267.7,928.3 C2267.7,1440.5 1852.5,1855.7 1340.3,1855.7 C828.1,1855.7 412.9,1440.5 412.9,928.3 C412.9,416.1 828.1,0.9 1340.3,0.9 C1351.1,0.9 1362,1.1 1372.7,1.5 C1386.7,2 1400.6,2.8 1414.5,3.9 C1409.3,14.3 1404.6,25.1 1400.5,36.1 C1386.7,73.1 1379.1,113.1 1379.1,154.9 C1379.1,342.2 1531,494.1 1718.3,494.1 C1840.5,494.1 1947.6,429.5 2007.3,332.6 C2013.4,322.7 2019,312.4 2024.1,301.9 C2033.5,312.2 2042.7,322.6 2051.6,333.3 C2186.5,494.2 2267.7,701.8 2267.7,928.3 Z" id="Shape" fill="url(#linearGradient-1)" opacity="0.3"></path>
            <path d="M2234.7,928.4 C2234.7,1422.4 1834.3,1822.8 1340.3,1822.8 C846.3,1822.8 445.9,1422.4 445.9,928.4 C445.9,434.4 846.3,34 1340.3,34 C1346.9,34 1353.4,34.1 1360,34.2 C1373.6,34.5 1387.1,35.1 1400.5,36 C1386.7,73 1379.1,113 1379.1,154.8 C1379.1,342.1 1531,494 1718.3,494 C1840.5,494 1947.6,429.4 2007.3,332.5 C2016.3,342.6 2025.1,352.8 2033.6,363.3 C2159.3,517.3 2234.7,714.1 2234.7,928.4 Z" id="Shape" fill="url(#linearGradient-2)"></path>
            <path d="M2678.4,607.5 C2653.1,513.5 2495,473.2 2208.5,487.5 C2177,489.1 2144.4,491.3 2110.8,494.2 C2123.6,515.8 2135.4,538 2146.4,560.7 C2168.7,559 2190.6,557.7 2212,556.6 C2247.2,554.8 2280.6,554 2312.1,554 C2389.9,554 2455.8,559.3 2506.1,569.8 C2566.7,582.4 2604.9,602.7 2611.1,625.4 C2617.2,648.1 2594.2,684.6 2548.1,725.5 C2494.3,773.2 2408.5,827.5 2299.9,882.5 C2278.3,893.4 2256,904.4 2232.9,915.2 C2010.1,1020.3 1720.3,1122.2 1406.9,1205.4 C1097,1287.6 797.7,1342.5 553.3,1362.2 C525,1364.5 497.4,1366.3 470.6,1367.6 C348.8,1373.7 247.1,1369.2 176.5,1354.5 C115.9,1341.9 77.7,1321.6 71.5,1298.9 C65.4,1276.2 88.4,1239.7 134.5,1198.8 C188.3,1151.1 274.1,1096.8 382.7,1041.8 C404.2,1030.9 426.3,1020.1 449.3,1009.3 C447.6,987.2 446.8,964.9 446.8,942.4 C446.8,939.6 446.8,936.9 446.8,934.1 C413.5,949.4 381.5,964.8 351,980.2 C95.7,1109.6 -21.1,1222.8 4.3,1316.8 C26.3,1398.4 148.5,1439.6 367.9,1439.6 C401.1,1439.6 436.5,1438.6 474.2,1436.7 C512.3,1434.8 551.9,1431.9 593,1428.1 C835,1405.8 1125.3,1351.6 1424.9,1272.1 C1728,1191.7 2009.8,1093.7 2231.9,991.9 C2266.6,976 2299.9,960 2331.5,944 C2587.1,814.8 2703.8,701.5 2678.4,607.5 Z" id="Shape" fill="url(#linearGradient-3)" opacity="0.2"></path>
            <path d="M2678.4,585.5 C2653.1,491.5 2495,451.2 2208.5,465.5 C2177,467.1 2144.4,469.3 2110.8,472.2 C2123.6,493.8 2135.4,516 2146.4,538.7 C2168.7,537 2190.6,535.7 2212,534.6 C2247.2,532.8 2280.6,532 2312.1,532 C2389.9,532 2455.8,537.3 2506.1,547.8 C2566.7,560.4 2604.9,580.7 2611.1,603.4 C2617.2,626.1 2594.2,662.6 2548.1,703.5 C2494.3,751.2 2408.5,805.5 2299.9,860.5 C2278.3,871.4 2256,882.4 2232.9,893.2 C2010.1,998.3 1720.3,1100.2 1406.9,1183.4 C1097,1265.6 797.7,1320.5 553.3,1340.2 C525,1342.5 497.4,1344.3 470.6,1345.6 C348.8,1351.7 247.1,1347.2 176.5,1332.5 C115.9,1319.9 77.7,1299.6 71.5,1276.9 C65.4,1254.2 88.4,1217.7 134.5,1176.8 C188.3,1129.1 274.1,1074.8 382.7,1019.8 C404.2,1008.9 426.3,998.1 449.3,987.3 C447.6,965.2 446.8,942.9 446.8,920.4 C446.8,917.6 446.8,914.9 446.8,912.1 C413.5,927.4 381.5,942.8 351,958.2 C95.7,1087.6 -21.1,1200.8 4.3,1294.8 C26.3,1376.4 148.5,1417.6 367.9,1417.6 C401.1,1417.6 436.5,1416.6 474.2,1414.7 C512.3,1412.8 551.9,1409.9 593,1406.1 C835,1383.8 1125.3,1329.6 1424.9,1250.1 C1728,1169.7 2009.8,1071.7 2231.9,969.9 C2266.6,954 2299.9,938 2331.5,922 C2587.1,792.8 2703.8,679.5 2678.4,585.5 Z" id="Shape" fill="url(#linearGradient-3)"></path>
            <path d="M2000.7,278 C1996,287.6 1988.8,302.1 1983.2,311.1 C1928.1,399.4 1829.2,458.2 1716.3,458.2 C1543.3,458.2 1403.1,319.9 1403.1,149.4 C1403.1,111.3 1410.1,74.9 1422.9,41.2 C1426.7,31.2 1437.5,15.6 1442.3,6.1 C1429.5,5.1 1427.5,4.2 1414.5,3.8 C1410.1,13.5 1401.7,31.5 1398.3,41.7 C1386.5,76.2 1378.8,110.5 1378.8,148.9 C1378.8,339 1523.5,493.6 1716.3,493.6 C1837.9,493.6 1933.5,445.4 2007.3,332.5 C2013.1,323.6 2019,311.2 2024.1,301.8 C2015.8,292 2009.3,287.3 2000.7,278 Z" id="Shape" fill="url(#linearGradient-4)" opacity="0.2"></path>
        </g>
    </g>
</svg>