<?xml version="1.0" encoding="utf-8"?>
<!-- Generator: Adobe Illustrator 22.1.0, SVG Export Plug-In . SVG Version: 6.00 Build 0)  -->
<svg version="1.1" id="Calque_1" xmlns="http://www.w3.org/2000/svg" xmlns:xlink="http://www.w3.org/1999/xlink" x="0px" y="0px"
	 viewBox="0 0 2721.3 2721.3" style="enable-background:new 0 0 2721.3 2721.3;" xml:space="preserve">
<style type="text/css">
	.st0{fill:url(#SVGID_1_);}
	.st1{opacity:0.3;fill:url(#SVGID_2_);enable-background:new    ;}
	.st2{opacity:0.2;fill:url(#SVGID_3_);enable-background:new    ;}
	.st3{fill:url(#SVGID_4_);}
</style>
<linearGradient id="SVGID_1_" gradientUnits="userSpaceOnUse" x1="752.3608" y1="2015.8846" x2="1968.2394" y2="703.835" gradientTransform="matrix(1 0 0 -1 0 2721.26)">
	<stop  offset="0" style="stop-color:#020094"/>
	<stop  offset="0.3191" style="stop-color:#007EE9"/>
	<stop  offset="0.6447" style="stop-color:#0044AA"/>
	<stop  offset="0.9988" style="stop-color:#05007F"/>
</linearGradient>
<circle class="st0" cx="1360.3" cy="1361.4" r="894.4"/>
<linearGradient id="SVGID_2_" gradientUnits="userSpaceOnUse" x1="729.9302" y1="2040.1895" x2="1990.67" y2="679.73" gradientTransform="matrix(1 0 0 -1 0 2721.26)">
	<stop  offset="0" style="stop-color:#020094"/>
	<stop  offset="0.3191" style="stop-color:#007EE9"/>
	<stop  offset="0.6447" style="stop-color:#0044AA"/>
	<stop  offset="0.9988" style="stop-color:#05007F"/>
</linearGradient>
<circle class="st1" cx="1360.3" cy="1361.3" r="927.4"/>
<linearGradient id="SVGID_3_" gradientUnits="userSpaceOnUse" x1="845.3472" y1="1990.4733" x2="1514.6892" y2="724.0201" gradientTransform="matrix(0.9661 -0.2582 -0.2582 -0.9661 571.7922 3011.0688)">
	<stop  offset="0" style="stop-color:#020094"/>
	<stop  offset="0.3191" style="stop-color:#007EE9"/>
	<stop  offset="0.6447" style="stop-color:#0044AA"/>
	<stop  offset="0.9988" style="stop-color:#05007F"/>
</linearGradient>
<path class="st2" d="M2698.4,1040.5c-25.3-94-183.4-134.3-469.9-120c-31.5,1.6-64.1,3.8-97.7,6.7c12.8,21.6,24.6,43.8,35.6,66.5
	c22.3-1.7,44.2-3,65.6-4.1c35.2-1.8,68.6-2.6,100.1-2.6c77.8,0,143.7,5.3,194,15.8c60.6,12.6,98.8,32.9,105,55.6
	c6.1,22.7-16.9,59.2-63,100.1c-53.8,47.7-139.6,102-248.2,157c-21.6,10.9-43.9,21.9-67,32.7c-222.8,105.1-512.6,207-826,290.2
	c-309.9,82.2-609.2,137.1-853.6,156.8c-28.3,2.3-55.9,4.1-82.7,5.4c-121.8,6.1-223.5,1.6-294.1-13.1c-60.6-12.6-98.8-32.9-105-55.6
	c-6.1-22.7,16.9-59.2,63-100.1c53.8-47.7,139.6-102,248.2-157c21.5-10.9,43.6-21.7,66.6-32.5c-1.7-22.1-2.5-44.4-2.5-66.9
	c0-2.8,0-5.5,0-8.3c-33.3,15.3-65.3,30.7-95.8,46.1C115.7,1542.6-1.1,1655.8,24.3,1749.8c22,81.6,144.2,122.8,363.6,122.8
	c33.2,0,68.6-1,106.3-2.9c38.1-1.9,77.7-4.8,118.8-8.6c242-22.3,532.3-76.5,831.9-156c303.1-80.4,584.9-178.4,807-280.2
	c34.7-15.9,68-31.9,99.6-47.9C2607.1,1247.8,2723.8,1134.5,2698.4,1040.5z"/>
<linearGradient id="SVGID_4_" gradientUnits="userSpaceOnUse" x1="851.0275" y1="2011.7272" x2="1520.3695" y2="745.274" gradientTransform="matrix(0.9661 -0.2582 -0.2582 -0.9661 571.7922 3011.0688)">
	<stop  offset="0" style="stop-color:#020094"/>
	<stop  offset="0.3191" style="stop-color:#007EE9"/>
	<stop  offset="0.6447" style="stop-color:#0044AA"/>
	<stop  offset="0.9988" style="stop-color:#05007F"/>
</linearGradient>
<path class="st3" d="M2698.4,1018.5c-25.3-94-183.4-134.3-469.9-120c-31.5,1.6-64.1,3.8-97.7,6.7c12.8,21.6,24.6,43.8,35.6,66.5
	c22.3-1.7,44.2-3,65.6-4.1c35.2-1.8,68.6-2.6,100.1-2.6c77.8,0,143.7,5.3,194,15.8c60.6,12.6,98.8,32.9,105,55.6
	c6.1,22.7-16.9,59.2-63,100.1c-53.8,47.7-139.6,102-248.2,157c-21.6,10.9-43.9,21.9-67,32.7c-222.8,105.1-512.6,207-826,290.2
	c-309.9,82.2-609.2,137.1-853.6,156.8c-28.3,2.3-55.9,4.1-82.7,5.4c-121.8,6.1-223.5,1.6-294.1-13.1c-60.6-12.6-98.8-32.9-105-55.6
	c-6.1-22.7,16.9-59.2,63-100.1c53.8-47.7,139.6-102,248.2-157c21.5-10.9,43.6-21.7,66.6-32.5c-1.7-22.1-2.5-44.4-2.5-66.9
	c0-2.8,0-5.5,0-8.3c-33.3,15.3-65.3,30.7-95.8,46.1C115.7,1520.6-1.1,1633.8,24.3,1727.8c22,81.6,144.2,122.8,363.6,122.8
	c33.2,0,68.6-1,106.3-2.9c38.1-1.9,77.7-4.8,118.8-8.6c242-22.3,532.3-76.5,831.9-156c303.1-80.4,584.9-178.4,807-280.2
	c34.7-15.9,68-31.9,99.6-47.9C2607.1,1225.8,2723.8,1112.5,2698.4,1018.5z"/>
</svg>
