<?xml version="1.0"?>
<svg xmlns="http://www.w3.org/2000/svg" xmlns:xlink="http://www.w3.org/1999/xlink" version="1.1" id="Layer_1" x="0px" y="0px" viewBox="0 0 512 512" style="enable-background:new 0 0 512 512;" xml:space="preserve" width="512px" height="512px" class=""><g><g transform="translate(1 1)">
	<g>
		<g>
			<path d="M451.267,459.8h-21.333l-64-85.333h25.6c28.16,0,51.2-23.04,51.2-51.2v-204.8c0-28.16-23.04-51.2-51.2-51.2v-8.533     c0-14.507-11.093-25.6-25.6-25.6H220.867V24.6c0-5.12-3.413-8.533-8.533-8.533S203.8,19.48,203.8,24.6v8.533h-17.067v-25.6     c0-5.12-3.413-8.533-8.533-8.533s-8.533,3.413-8.533,8.533v25.6h-25.6c-14.507,0-25.6,11.093-25.6,25.6v8.533     c-28.16,0-51.2,23.04-51.2,51.2v42.667V280.6v42.667c0,28.16,23.04,51.2,51.2,51.2h25.568L80.064,459.8H58.733     c-14.507,0-25.6,11.093-25.6,25.6v17.067c0,5.12,3.413,8.533,8.533,8.533H127c5.12,0,8.533-3.413,8.533-8.533V485.4     c0-14.507-11.093-25.6-25.6-25.6h-8.54l63.971-85.333h81.103V459.8H229.4c-14.507,0-25.6,11.093-25.6,25.6v17.067     c0,5.12,3.413,8.533,8.533,8.533h85.333c5.12,0,8.533-3.413,8.533-8.533V485.4c0-14.507-11.093-25.6-25.6-25.6h-17.067v-85.333     H344.6l64,85.333h-8.533c-14.507,0-25.6,11.093-25.6,25.6v17.067c0,5.12,3.413,8.533,8.533,8.533h85.333     c5.12,0,8.533-3.413,8.533-8.533V485.4C476.867,470.893,465.773,459.8,451.267,459.8z M118.467,485.4v8.533H50.2V485.4     c0-5.12,3.413-8.533,8.533-8.533h51.2C115.053,476.867,118.467,480.28,118.467,485.4z M289.133,485.4v8.533h-68.267V485.4     c0-5.12,3.413-8.533,8.533-8.533h51.2C285.72,476.867,289.133,480.28,289.133,485.4z M135.533,58.733     c0-5.12,3.413-8.533,8.533-8.533h221.867c5.12,0,8.533,3.413,8.533,8.533v8.533H135.533V58.733z M84.333,169.667H178.2     c5.12,0,8.533,3.413,8.533,8.533v85.333c0,5.12-3.413,8.533-8.533,8.533H84.333V169.667z M85.421,331.8H127     c5.12,0,8.533-3.413,8.533-8.533s-3.413-8.533-8.533-8.533H84.333v-25.6H178.2c14.507,0,25.6-11.093,25.6-25.6V178.2     c0-14.507-11.093-25.6-25.6-25.6H84.333V127h59.733c5.12,0,8.533-3.413,8.533-8.533s-3.413-8.533-8.533-8.533H85.421     c3.814-14.679,17.216-25.6,33.046-25.6H127h256h8.533c15.83,0,29.232,10.921,33.046,25.6h-24.512     c-5.12,0-8.533,3.413-8.533,8.533s3.413,8.533,8.533,8.533h25.6v59.733h-34.959c-3.86-19.681-20.878-34.133-41.841-34.133     c-20.963,0-37.981,14.452-41.841,34.133h-43.492c-5.12,0-8.533,3.413-8.533,8.533s3.413,8.533,8.533,8.533h43.492     c3.86,19.681,20.878,34.133,41.841,34.133c20.963,0,37.981-14.452,41.841-34.133h34.959v110.933h-34.133     c-5.12,0-8.533,3.413-8.533,8.533s3.413,8.533,8.533,8.533h33.046c-3.814,14.679-17.216,25.6-33.046,25.6H118.467     C102.637,357.4,89.235,346.479,85.421,331.8z M374.467,195.267c0,14.507-11.093,25.6-25.6,25.6c-14.507,0-25.6-11.093-25.6-25.6     c0-14.507,11.093-25.6,25.6-25.6C363.373,169.667,374.467,180.76,374.467,195.267z M459.8,493.933h-68.267V485.4     c0-5.12,3.413-8.533,8.533-8.533h51.2c5.12,0,8.533,3.413,8.533,8.533V493.933z" data-original="#000000" class="active-path" data-old_color="#9A0202" fill="#6380CE"/>
			<path d="M263.533,118.467c0-5.12-3.413-8.533-8.533-8.533h-59.733c-5.12,0-8.533,3.413-8.533,8.533s3.413,8.533,8.533,8.533H255     C260.12,127,263.533,123.587,263.533,118.467z" data-original="#000000" class="active-path" data-old_color="#9A0202" fill="#6380CE"/>
			<path d="M306.2,127h25.6c5.12,0,8.533-3.413,8.533-8.533s-3.413-8.533-8.533-8.533h-25.6c-5.12,0-8.533,3.413-8.533,8.533     S301.08,127,306.2,127z" data-original="#000000" class="active-path" data-old_color="#9A0202" fill="#6380CE"/>
			<path d="M365.933,127c5.12,0,8.533-3.413,8.533-8.533s-3.413-8.533-8.533-8.533s-8.533,3.413-8.533,8.533     S360.813,127,365.933,127z" data-original="#000000" class="active-path" data-old_color="#9A0202" fill="#6380CE"/>
			<path d="M340.333,314.733H280.6c-5.12,0-8.533,3.413-8.533,8.533s3.413,8.533,8.533,8.533h59.733c5.12,0,8.533-3.413,8.533-8.533     S345.453,314.733,340.333,314.733z" data-original="#000000" class="active-path" data-old_color="#9A0202" fill="#6380CE"/>
			<path d="M237.933,314.733h-42.667c-5.12,0-8.533,3.413-8.533,8.533s3.413,8.533,8.533,8.533h42.667     c5.12,0,8.533-3.413,8.533-8.533S243.053,314.733,237.933,314.733z" data-original="#000000" class="active-path" data-old_color="#9A0202" fill="#6380CE"/>
			<path d="M161.133,314.733c-5.12,0-8.533,3.413-8.533,8.533s3.413,8.533,8.533,8.533s8.533-3.413,8.533-8.533     S166.253,314.733,161.133,314.733z" data-original="#000000" class="active-path" data-old_color="#9A0202" fill="#6380CE"/>
		</g>
	</g>
</g></g> </svg>
