<?xml version="1.0" encoding="UTF-8"?>
<svg width="37px" height="37px" viewBox="0 0 37 37" version="1.1" xmlns="http://www.w3.org/2000/svg" xmlns:xlink="http://www.w3.org/1999/xlink">
    <!-- Generator: Sketch 49 (51002) - http://www.bohemiancoding.com/sketch -->
    <title>layers</title>
    <desc>Created with Sketch.</desc>
    <defs>
        <filter x="-3.9%" y="-33.0%" width="107.7%" height="158.0%" filterUnits="objectBoundingBox" id="filter-1">
            <feOffset dx="0" dy="-2" in="SourceAlpha" result="shadowOffsetOuter1"></feOffset>
            <feGaussianBlur stdDeviation="4.5" in="shadowOffsetOuter1" result="shadowBlurOuter1"></feGaussianBlur>
            <feColorMatrix values="0 0 0 0 0.157171158   0 0 0 0 0.125536345   0 0 0 0 0.213780825  0 0 0 1 0" type="matrix" in="shadowBlurOuter1" result="shadowMatrixOuter1"></feColorMatrix>
            <feMerge>
                <feMergeNode in="shadowMatrixOuter1"></feMergeNode>
                <feMergeNode in="SourceGraphic"></feMergeNode>
            </feMerge>
        </filter>
    </defs>
    <g id="Page-1" stroke="none" stroke-width="1" fill="none" fill-rule="evenodd">
        <g id="HOME-PAGE" transform="translate(-32.000000, -618.000000)" fill="#FFFFFF" fill-rule="nonzero">
            <g id="Menu" filter="url(#filter-1)" transform="translate(0.000000, 618.000000)">
                <g id="Icones-Menu" transform="translate(40.000000, 9.000000)">
                    <g id="layers" transform="translate(0.000000, 1.000000)">
                        <path d="M17.3100104,7.9745624 L21,5.89153315 L10.5001911,0 L0,5.89153315 L3.68998963,7.9745624 L0,10.0447544 L3.68998963,12.1277837 L0,14.1979757 L10.5001911,20.125 L21,14.1979757 L17.3100104,12.1277837 L21,10.0447544 L17.3100104,7.9745624 Z M10.5001911,0.86840081 L19.4557531,5.89342098 L10.5001911,10.949024 L1.5442469,5.89342098 L10.5001911,0.86840081 Z M4.46153986,8.4098955 L10.5001911,11.8185575 L16.5388423,8.4098955 L19.4557531,10.0466422 L10.5001911,15.1022452 L1.5442469,10.0466422 L4.46153986,8.4098955 Z M19.4557531,14.1998635 L10.5001911,19.2554665 L1.5442469,14.1998635 L4.46153986,12.5631168 L10.5001911,15.9717787 L16.5388423,12.5631168 L19.4557531,14.1998635 Z" id="Shape"></path>
                    </g>
                </g>
            </g>
        </g>
    </g>
</svg>