<?xml version="1.0" encoding="UTF-8"?>
<svg width="39px" height="33px" viewBox="0 0 39 33" version="1.1" xmlns="http://www.w3.org/2000/svg" xmlns:xlink="http://www.w3.org/1999/xlink">
    <!-- Generator: Sketch 49 (51002) - http://www.bohemiancoding.com/sketch -->
    <title>saturn</title>
    <desc>Created with Sketch.</desc>
    <defs>
        <filter x="-3.9%" y="-33.0%" width="107.7%" height="158.0%" filterUnits="objectBoundingBox" id="filter-1">
            <feOffset dx="0" dy="-2" in="SourceAlpha" result="shadowOffsetOuter1"></feOffset>
            <feGaussianBlur stdDeviation="4.5" in="shadowOffsetOuter1" result="shadowBlurOuter1"></feGaussianBlur>
            <feColorMatrix values="0 0 0 0 0.157171158   0 0 0 0 0.125536345   0 0 0 0 0.213780825  0 0 0 1 0" type="matrix" in="shadowBlurOuter1" result="shadowMatrixOuter1"></feColorMatrix>
            <feMerge>
                <feMergeNode in="shadowMatrixOuter1"></feMergeNode>
                <feMergeNode in="SourceGraphic"></feMergeNode>
            </feMerge>
        </filter>
    </defs>
    <g id="Page-1" stroke="none" stroke-width="1" fill="none" fill-rule="evenodd">
        <g id="HOME-PAGE" transform="translate(-102.000000, -619.000000)" fill="#FFFFFF" fill-rule="nonzero">
            <g id="Menu" filter="url(#filter-1)" transform="translate(0.000000, 618.000000)">
                <g id="Icones-Menu" transform="translate(40.000000, 9.000000)">
                    <g id="saturn" transform="translate(71.000000, 3.000000)">
                        <path d="M2.67957257,15 C1.51309296,15 0.633558703,14.6858488 0.217883478,13.9619983 C-0.491928715,12.7234899 0.550855155,10.6764405 3.07870709,8.34491777 C3.22541599,8.20955771 3.45339012,8.21969162 3.58715412,8.36735714 C3.72163728,8.51502265 3.71156902,8.74375944 3.56486012,8.8791195 C1.40665709,10.8689847 0.337264252,12.7220422 0.840677155,13.5993491 C1.63103541,14.9768368 6.47602502,14.2081075 12.16531,10.9022819 C17.854595,7.59573242 20.9383586,3.75715279 20.1480003,2.37966514 C19.6453066,1.50308209 17.5165891,1.50814904 14.7269625,2.3919706 C14.5392614,2.4520502 14.3364579,2.34636801 14.2760484,2.15599531 C14.216358,1.96489876 14.3213555,1.76222059 14.5112141,1.702141 C17.7805213,0.665586964 20.061701,0.781403057 20.770794,2.0184637 C22.0890166,4.31741314 17.5065209,8.63518185 12.5248906,11.5298603 C9.11175115,13.5132109 5.21749277,15 2.67957257,15 Z" id="Shape"></path>
                        <path d="M5.68897331,11 C4.87517841,11 4.31825174,10.7729378 4.05077539,10.3254056 C3.94620957,10.1503479 4.00834289,9.92621557 4.18943877,9.82513627 C4.36977693,9.72185959 4.602398,9.78338612 4.70696383,9.95917621 C4.86608573,10.2250587 5.520001,10.4089058 6.87329492,10.1269092 C8.19552219,9.85150478 9.79734938,9.21133589 11.3855376,8.32506088 C14.9430487,6.33936539 16.5812467,4.2064457 16.1895037,3.55016271 C16.0849379,3.37510509 16.1470712,3.15097273 16.3281671,3.04989343 C16.5085052,2.94734922 16.7403686,3.00814329 16.8456921,3.18393337 C17.7004041,4.6158901 14.865761,7.22783777 11.7636415,8.95863764 C10.1095314,9.88226805 8.42890099,10.5517353 7.03241683,10.8425214 C6.52853079,10.9479954 6.07920084,11 5.68897331,11 Z" id="Shape"></path>
                        <path d="M4.23577442,11 C4.11326737,11 3.99430098,10.9337986 3.92844458,10.8161072 C2.01506846,7.37289836 3.15445491,2.95432209 6.46922679,0.966073109 C9.78399867,-1.02438259 14.0384634,0.160622633 15.9525477,3.60456704 C16.0502701,3.78036856 15.9922031,4.00545335 15.8229593,4.10696218 C15.6537154,4.20920658 15.4370266,4.14815417 15.3393042,3.97235265 C13.6206648,0.880746848 9.80028573,-0.182153552 6.82329343,1.60234221 C3.84700925,3.38830911 2.82375666,7.35598022 4.541688,10.447586 C4.63941039,10.6233875 4.58134346,10.8484723 4.41209961,10.9499812 C4.35615708,10.9838174 4.29596575,11 4.23577442,11 Z" id="Shape"></path>
                        <path d="M10.5091818,15 C9.38558256,15 8.25891968,14.7610174 7.21574167,14.2808797 C7.02502852,14.1939769 6.94613914,13.97672 7.03881501,13.797121 C7.13149088,13.617522 7.36049986,13.5429304 7.5504471,13.6305574 C9.57016838,14.5589685 11.9368498,14.4814802 13.8792135,13.4212666 C15.8254068,12.3588804 17.0799777,10.4586067 17.2346928,8.33745524 C17.2492452,8.13830308 17.4376606,7.98839583 17.6436921,8.00070705 C17.8543191,8.01519084 18.0136297,8.18754798 17.9990773,8.38670013 C17.8259802,10.7490068 16.4289489,12.8650889 14.2621716,14.0469664 C13.1033403,14.6813566 11.8081758,15 10.5091818,15 Z" id="Shape"></path>
                    </g>
                </g>
            </g>
        </g>
    </g>
</svg>