<?xml version="1.0" encoding="UTF-8"?>
<svg width="38px" height="38px" viewBox="0 0 38 38" version="1.1" xmlns="http://www.w3.org/2000/svg" xmlns:xlink="http://www.w3.org/1999/xlink">
    <!-- Generator: Sketch 49 (51002) - http://www.bohemiancoding.com/sketch -->
    <title>rocket-ship</title>
    <desc>Created with Sketch.</desc>
    <defs>
        <filter x="-3.9%" y="-33.0%" width="107.7%" height="158.0%" filterUnits="objectBoundingBox" id="filter-1">
            <feOffset dx="0" dy="-2" in="SourceAlpha" result="shadowOffsetOuter1"></feOffset>
            <feGaussianBlur stdDeviation="4.5" in="shadowOffsetOuter1" result="shadowBlurOuter1"></feGaussianBlur>
            <feColorMatrix values="0 0 0 0 0.157171158   0 0 0 0 0.125536345   0 0 0 0 0.213780825  0 0 0 1 0" type="matrix" in="shadowBlurOuter1" result="shadowMatrixOuter1"></feColorMatrix>
            <feMerge>
                <feMergeNode in="shadowMatrixOuter1"></feMergeNode>
                <feMergeNode in="SourceGraphic"></feMergeNode>
            </feMerge>
        </filter>
    </defs>
    <g id="Page-1" stroke="none" stroke-width="1" fill="none" fill-rule="evenodd">
        <g id="HOME-PAGE" transform="translate(-174.000000, -616.000000)" fill="#FFFFFF" fill-rule="nonzero">
            <g id="Menu" filter="url(#filter-1)" transform="translate(0.000000, 618.000000)">
                <g id="Icones-Menu" transform="translate(40.000000, 9.000000)">
                    <g id="rocket-ship" transform="translate(142.000000, 0.000000)">
                        <path d="M20.8721486,0.426030227 C20.8498262,0.245493703 20.7076398,0.103307305 20.5271562,0.0809848866 C18.9006877,-0.12018136 17.2223275,0.0551712846 15.6729824,0.587894207 C14.1234786,1.12067003 12.6919874,2.01467758 11.5333904,3.17327456 L8.8894534,5.81721159 L5.07300756,6.30941562 C4.98599244,6.32062972 4.90521914,6.36035516 4.84317128,6.42235013 L1.16351637,10.102005 C1.05936272,10.2061587 1.02148866,10.3595063 1.06523426,10.5002116 C1.10887406,10.6409169 1.22699244,10.7458111 1.37182368,10.7726297 L4.15403275,11.2879496 L4.7007204,11.8346373 L3.53683375,12.4649018 C3.42670277,12.5245164 3.35116625,12.6326902 3.33312846,12.7566272 C3.31509068,12.8805642 3.35661461,13.0057179 3.44516373,13.094267 L7.85876071,17.507864 C7.93371537,17.5828186 8.0348539,17.6240781 8.13932494,17.6240781 C8.15826196,17.6240781 8.17741058,17.6227028 8.1964534,17.6199521 C8.32039043,17.6019144 8.42856423,17.5263778 8.48817884,17.4162469 L9.11849622,16.2523602 L9.66518388,16.7990479 L10.1805038,19.5812569 C10.2073753,19.7261411 10.3122166,19.8442065 10.4529219,19.8878992 C10.4915894,19.8999068 10.5312091,19.9057254 10.5705642,19.9057254 C10.6742418,19.9057254 10.7755919,19.8650479 10.8511814,19.7895113 L14.5308363,16.1098564 C14.5928312,16.0478615 14.6325567,15.9670353 14.6437708,15.880073 L15.1360277,12.0635743 L17.7799647,9.41958438 C18.9385617,8.26098741 19.8325693,6.82954912 20.3653451,5.28004534 C20.8980151,3.73070025 21.073262,2.05212846 20.8721486,0.426030227 Z M4.2144937,10.49233 L2.25789673,10.1299345 L5.30860957,7.07911587 L7.97100756,6.73576322 L4.2144937,10.49233 Z M8.04374055,16.5708514 L4.38228212,12.9094458 L5.28602267,12.4200453 L8.53308816,15.6671637 L8.04374055,16.5708514 Z M13.8740176,15.6445239 L10.8232519,18.6952897 L10.4608035,16.7387456 L14.2173703,12.9821788 L13.8740176,15.6445239 Z M17.2187834,8.85866751 L10.0327632,16.0446877 L4.90844584,10.9203703 L12.094466,3.73429723 C13.1385416,2.69016877 14.4220277,1.87889169 15.8124181,1.38092191 C15.9920025,2.30619144 16.4444282,3.1645466 17.116534,3.8365995 C17.7885869,4.50870529 18.6468892,4.96113098 19.5722116,5.14076826 C19.0741889,6.5310529 18.2628589,7.81453904 17.2187834,8.85866751 Z M19.8110403,4.37847355 C19.0068514,4.24131234 18.2587859,3.85675315 17.6775567,3.27557683 C17.0963275,2.6944005 16.7118212,1.94628212 16.5746599,1.1420932 C17.7246877,0.832171285 18.9327431,0.726483627 20.1182116,0.834921914 C20.2267028,2.02039043 20.1209622,3.22844584 19.8110403,4.37847355 Z" id="Shape"></path>
                        <path d="M11.7073678,5.84207305 C10.7689798,6.78051385 10.7689798,8.30737783 11.7073678,9.24581864 C12.1766146,9.71506549 12.7928615,9.94960957 13.409267,9.94960957 C14.025461,9.94960957 14.6419723,9.7149597 15.1111134,9.24581864 L15.1111662,9.24581864 C16.0495542,8.30743073 16.0495542,6.78051385 15.1111134,5.84207305 C14.1726725,4.90368514 12.6457557,4.90373804 11.7073678,5.84207305 Z M14.5500907,8.68474307 C13.920937,9.31384383 12.8973854,9.31373804 12.2684433,8.68474307 C11.6393426,8.05569521 11.6393426,7.03214358 12.2684433,6.40309572 C12.5829144,6.08857179 12.9960907,5.93136272 13.4092141,5.93136272 C13.8223904,5.93136272 14.2355139,6.08862469 14.5499849,6.40309572 C15.1790856,7.03214358 15.1790856,8.05569521 14.5500907,8.68474307 Z" id="Shape"></path>
                        <path d="M5.2031864,15.8248489 C5.04819899,15.6699144 4.79704534,15.6699144 4.64211083,15.8248489 L1.23831234,19.2285945 C1.08337783,19.383529 1.08337783,19.6347355 1.23831234,19.7896171 C1.31580605,19.8670579 1.41736776,19.9058312 1.51887657,19.9058312 C1.62038539,19.9058312 1.7219471,19.8671108 1.79944081,19.7896171 L5.2031864,16.3858715 C5.35806801,16.2309899 5.35806801,15.9797834 5.2031864,15.8248489 Z" id="Shape"></path>
                        <path d="M5.72675819,16.9095491 L4.19322922,18.4430781 C4.03829471,18.5980126 4.03829471,18.8492191 4.19322922,19.0041008 C4.27072292,19.0815416 4.37228463,19.1203149 4.47379345,19.1203149 C4.57530227,19.1203149 4.67686398,19.0815945 4.75435768,19.0041008 L6.28788665,17.4705718 C6.44282116,17.3156373 6.44282116,17.0644307 6.28788665,16.9095491 C6.13289924,16.7546146 5.88174559,16.7546146 5.72675819,16.9095491 Z" id="Shape"></path>
                        <path d="M3.65638035,19.14433 C3.49039043,19.14433 3.33889421,19.2513929 3.28282368,19.4073854 C3.22580101,19.5659698 3.27885642,19.7480932 3.41062217,19.8525642 C3.54535013,19.9594156 3.74207305,19.9652343 3.88288413,19.8665819 C4.03311083,19.7613174 4.09404786,19.5592519 4.02247859,19.3892418 C3.96360453,19.2424534 3.81380101,19.14433 3.65638035,19.14433 Z" id="Shape"></path>
                        <path d="M2.53428212,20.1020781 L2.32311839,20.3132418 C2.16813098,20.4681763 2.16813098,20.7193829 2.32306549,20.8743174 C2.40055919,20.9517582 2.50206801,20.9905315 2.60362972,20.9905315 C2.70513854,20.9905315 2.80670025,20.9518111 2.88414106,20.8743703 L3.09530479,20.6632065 C3.25029219,20.508272 3.25029219,20.2570655 3.09535768,20.1021839 C2.94042317,19.9473023 2.68916373,19.9471436 2.53428212,20.1020781 Z" id="Shape"></path>
                        <path d="M2.24821662,16.6103123 C2.09322922,16.4553778 1.84207557,16.4553778 1.68714106,16.6103123 L0.153612091,18.1438413 C-0.00132241814,18.2987758 -0.00132241814,18.5499824 0.153612091,18.704864 C0.231105793,18.7823048 0.332667506,18.8210781 0.434176322,18.8210781 C0.535685139,18.8210781 0.637246851,18.7823577 0.714740554,18.704864 L2.24826952,17.171335 C2.40315113,17.0164534 2.40315113,16.7652469 2.24821662,16.6103123 Z" id="Shape"></path>
                        <path d="M2.88139043,16.4580756 C3.04235516,16.4176096 3.16317128,16.2773275 3.17993955,16.1122897 C3.19639043,15.9506902 3.10752393,15.7923174 2.96327456,15.7194257 C2.81013854,15.6419849 2.61822922,15.6743048 2.49942317,15.7984534 C2.37220655,15.9313829 2.35385139,16.1383678 2.45435516,16.2922443 C2.45118136,16.2874836 2.44874811,16.2839924 2.45514861,16.2937783 C2.4618136,16.3035642 2.45953904,16.3000202 2.45636524,16.2953123 C2.54983375,16.4310982 2.72042569,16.4985416 2.88139043,16.4580756 Z" id="Shape"></path>
                        <path d="M3.90732242,15.512335 L4.11843325,15.3011713 C4.27336776,15.1462368 4.27336776,14.8950302 4.11838035,14.7401486 C3.96328715,14.5851612 3.7120806,14.5852141 3.55735768,14.7402015 L3.34624685,14.9513652 C3.19131234,15.1062997 3.19131234,15.3575063 3.34629975,15.5123879 C3.42379345,15.5898287 3.52530227,15.6285491 3.62681108,15.6285491 C3.7283199,15.6285491 3.82988161,15.5898287 3.90732242,15.512335 Z" id="Shape"></path>
                    </g>
                </g>
            </g>
        </g>
    </g>
</svg>