<?xml version="1.0" encoding="UTF-8" standalone="no"?>
<svg width="30px" height="30px" viewBox="0 0 30 30" version="1.1" xmlns="http://www.w3.org/2000/svg" xmlns:xlink="http://www.w3.org/1999/xlink">
    <!-- Generator: Sketch 49 (51002) - http://www.bohemiancoding.com/sketch -->
    <title>home</title>
    <desc>Created with Sketch.</desc>
    <defs>
        <linearGradient x1="49.8947368%" y1="0.000347222222%" x2="49.8947368%" y2="99.9996528%" id="linearGradient-1">
            <stop stop-color="#6B1131" offset="0%"></stop>
            <stop stop-color="#391759" offset="100%"></stop>
        </linearGradient>
    </defs>
    <g id="Page-1" stroke="none" stroke-width="1" fill="none" fill-rule="evenodd">
        <g id="SHIP-LOW" transform="translate(-310.000000, -258.000000)" fill="url(#linearGradient-1)" fill-rule="nonzero">
            <g id="Bar-de-progression" transform="translate(301.000000, 258.000000)">
                <g id="home" transform="translate(9.000000, 0.000000)">
                    <path d="M29.4218644,13.5416949 L25.0077966,9.44288136 L25.0077966,2.7279661 L19.9230508,2.7279661 L19.9230508,4.72169492 L14.8383051,0 L0.255254237,13.5416949 C0.0498305085,13.7328814 0.0376271186,14.0547458 0.228813559,14.260678 C0.419491525,14.4661017 0.741355932,14.4777966 0.94779661,14.2871186 L2.63542373,12.72 L2.63542373,29.6771186 L10.7710169,29.6771186 L18.9066102,29.6771186 L27.0422034,29.6771186 L27.0422034,12.7194915 L28.7298305,14.2866102 C28.8274576,14.3776271 28.9520339,14.4223729 29.0761017,14.4223729 C29.2128814,14.4223729 29.3486441,14.3679661 29.4483051,14.2601695 C29.6394915,14.0547458 29.6272881,13.7328814 29.4218644,13.5416949 Z M20.94,3.74491525 L23.9908475,3.74491525 L23.9908475,8.49864407 L20.94,5.6659322 L20.94,3.74491525 Z M11.7874576,28.6601695 L11.7874576,17.9501695 C11.7874576,17.6872881 12.0010169,17.4737288 12.2638983,17.4737288 L17.4127119,17.4737288 C17.6755932,17.4737288 17.8891525,17.6872881 17.8891525,17.9501695 L17.8891525,28.6601695 L11.7874576,28.6601695 Z M26.0247458,28.6601695 L18.9061017,28.6601695 L18.9061017,17.9501695 C18.9061017,17.1264407 18.2364407,16.4567797 17.4127119,16.4567797 L12.2638983,16.4567797 C11.4401695,16.4567797 10.7705085,17.1264407 10.7705085,17.9501695 L10.7705085,28.6601695 L3.65186441,28.6601695 L3.65186441,11.7752542 L14.8383051,1.38762712 L22.099322,8.13 L25.0077966,10.8305085 L26.0247458,11.7747458 L26.0247458,28.6601695 Z" id="Shape"></path>
                </g>
            </g>
        </g>
    </g>
</svg>