<?xml version="1.0" encoding="UTF-8" standalone="no"?>
<svg width="28px" height="30px" viewBox="0 0 28 30" version="1.1" xmlns="http://www.w3.org/2000/svg" xmlns:xlink="http://www.w3.org/1999/xlink">
    <!-- Generator: Sketch 49 (51002) - http://www.bohemiancoding.com/sketch -->
    <title>hospital</title>
    <desc>Created with Sketch.</desc>
    <defs>
        <linearGradient x1="49.8947368%" y1="0.000347222222%" x2="49.8947382%" y2="100%" id="linearGradient-1">
            <stop stop-color="#6B1131" offset="0%"></stop>
            <stop stop-color="#391759" offset="100%"></stop>
        </linearGradient>
    </defs>
    <g id="Page-1" stroke="none" stroke-width="1" fill="none" fill-rule="evenodd">
        <g id="SHIP-LOW-Copy-6" transform="translate(-312.000000, -381.000000)" fill="url(#linearGradient-1)" fill-rule="nonzero">
            <g id="Bar-de-progression" transform="translate(301.000000, 258.000000)">
                <g id="hospital" transform="translate(11.000000, 123.000000)">
                    <path d="M21.9642857,12.8571429 L21.9642857,16.0714286 L25.7142857,16.0714286 L25.7142857,12.8571429 L21.9642857,12.8571429 Z M24.7767857,15 L22.9017857,15 L22.9017857,13.9285714 L24.7767857,13.9285714 L24.7767857,15 Z" id="Shape"></path>
                    <path d="M21.9642857,17.1428571 L21.9642857,20.3571429 L25.7142857,20.3571429 L25.7142857,17.1428571 L21.9642857,17.1428571 Z M24.7767857,19.2857143 L22.9017857,19.2857143 L22.9017857,18.2142857 L24.7767857,18.2142857 L24.7767857,19.2857143 Z" id="Shape"></path>
                    <path d="M21.9642857,20.8928571 L21.9642857,24.1071429 L25.7142857,24.1071429 L25.7142857,20.8928571 L21.9642857,20.8928571 Z M24.7767857,23.0357143 L22.9017857,23.0357143 L22.9017857,21.9642857 L24.7767857,21.9642857 L24.7767857,23.0357143 Z" id="Shape"></path>
                    <path d="M21.9642857,25.1785714 L21.9642857,28.3928571 L25.7142857,28.3928571 L25.7142857,25.1785714 L21.9642857,25.1785714 Z M24.7767857,27.3214286 L22.9017857,27.3214286 L22.9017857,26.25 L24.7767857,26.25 L24.7767857,27.3214286 Z" id="Shape"></path>
                    <path d="M16.2321429,5.19642857 L16.2321429,2.14285714 L12.1607143,2.14285714 L12.1607143,5.19642857 L9.10714286,5.19642857 L9.10714286,9.26785714 L12.1607143,9.26785714 L12.1607143,12.3214286 L16.2321429,12.3214286 L16.2321429,9.26785714 L19.2857143,9.26785714 L19.2857143,5.19642857 L16.2321429,5.19642857 Z M18.2678571,8.25 L15.2142857,8.25 L15.2142857,11.3035714 L13.1785714,11.3035714 L13.1785714,8.25 L10.125,8.25 L10.125,6.21428571 L13.1785714,6.21428571 L13.1785714,3.16071429 L15.2142857,3.16071429 L15.2142857,6.21428571 L18.2678571,6.21428571 L18.2678571,8.25 Z" id="Shape"></path>
                    <path d="M20.8928571,11 L20.8928571,0 L6.96428571,0 L6.96428571,11 L0,11 L0,30 L27.8571429,30 L27.8571429,11 L20.8928571,11 Z M6.96428571,29 L0.994897959,29 L0.994897959,12 L6.96428571,12 L6.96428571,29 Z M13.4311224,29 L10.9438776,29 L10.9438776,20 L13.4311224,20 L13.4311224,29 Z M16.9132653,29 L14.4260204,29 L14.4260204,20 L16.9132653,20 L16.9132653,29 Z M19.8979592,29 L17.9081633,29 L17.9081633,19 L9.94897959,19 L9.94897959,29 L7.95918367,29 L7.95918367,1 L19.8979592,1 L19.8979592,29 Z M26.8622449,29 L20.8928571,29 L20.8928571,12 L26.8622449,12 L26.8622449,29 Z" id="Shape"></path>
                    <path d="M2.14285714,12.8571429 L2.14285714,16.0714286 L5.89285714,16.0714286 L5.89285714,12.8571429 L2.14285714,12.8571429 Z M4.95535714,15 L3.08035714,15 L3.08035714,13.9285714 L4.95535714,13.9285714 L4.95535714,15 Z" id="Shape"></path>
                    <path d="M2.14285714,17.1428571 L2.14285714,20.3571429 L5.89285714,20.3571429 L5.89285714,17.1428571 L2.14285714,17.1428571 Z M4.95535714,19.2857143 L3.08035714,19.2857143 L3.08035714,18.2142857 L4.95535714,18.2142857 L4.95535714,19.2857143 Z" id="Shape"></path>
                    <path d="M2.14285714,20.8928571 L2.14285714,24.1071429 L5.89285714,24.1071429 L5.89285714,20.8928571 L2.14285714,20.8928571 Z M4.95535714,23.0357143 L3.08035714,23.0357143 L3.08035714,21.9642857 L4.95535714,21.9642857 L4.95535714,23.0357143 Z" id="Shape"></path>
                    <path d="M2.14285714,25.1785714 L2.14285714,28.3928571 L5.89285714,28.3928571 L5.89285714,25.1785714 L2.14285714,25.1785714 Z M4.95535714,27.3214286 L3.08035714,27.3214286 L3.08035714,26.25 L4.95535714,26.25 L4.95535714,27.3214286 Z" id="Shape"></path>
                </g>
            </g>
        </g>
    </g>
</svg>