<?xml version="1.0" encoding="UTF-8" standalone="no"?>
<svg width="39px" height="30px" viewBox="0 0 39 30" version="1.1" xmlns="http://www.w3.org/2000/svg" xmlns:xlink="http://www.w3.org/1999/xlink">
    <!-- Generator: Sketch 49 (51002) - http://www.bohemiancoding.com/sketch -->
    <title>sun-umbrella</title>
    <desc>Created with Sketch.</desc>
    <defs>
        <linearGradient x1="49.8947368%" y1="0.000347222222%" x2="49.8947368%" y2="99.9996528%" id="linearGradient-1">
            <stop stop-color="#6B1131" offset="0%"></stop>
            <stop stop-color="#391759" offset="100%"></stop>
        </linearGradient>
    </defs>
    <g id="Page-1" stroke="none" stroke-width="1" fill="none" fill-rule="evenodd">
        <g id="SHIP-LOW-Copy-4" transform="translate(-300.000000, -319.000000)" fill="url(#linearGradient-1)" fill-rule="nonzero">
            <g id="Bar-de-progression" transform="translate(300.000000, 258.000000)">
                <g id="sun-umbrella" transform="translate(0.000000, 61.000000)">
                    <path d="M37.956808,28.1431421 C36.9755611,27.477606 35.8378055,27.1761845 34.714414,27.2369327 C33.6774314,25.8085287 31.7212968,24.58399 29.0262344,23.6814464 C27.3533416,23.1212469 25.486384,22.7168828 23.5013716,22.476808 L27.5349127,12.356783 C28.1435162,12.7963092 28.6746883,13.3183541 29.1088279,13.9089277 C29.2523192,14.1041895 29.4736908,14.2146883 29.7178803,14.155212 C31.0500748,13.9136409 32.4627681,14.0684289 33.8047631,14.6032668 C35.1568579,15.1421446 36.2953616,16.0102743 37.0971322,17.1137656 C37.2046384,17.2616708 37.3749875,17.3457606 37.5525187,17.3457606 C37.5975561,17.3457606 37.6430424,17.3403741 37.6880798,17.3291521 C37.9105736,17.274015 38.0774065,17.0893766 38.1098753,16.8624688 C38.1311222,16.7135162 38.6185287,13.1697007 37.4572818,9.30897756 C37.3678055,9.01122195 37.0531421,8.8425187 36.7560599,8.93199501 C36.4583042,9.02154613 36.2895262,9.33553616 36.3791521,9.63321696 C37.0569576,11.8868828 37.1309476,14.0659601 37.0893516,15.3952369 C36.2858603,14.6176309 35.3133666,13.9923441 34.2216209,13.5572319 C32.9804738,13.0625686 31.6819451,12.8522693 30.4179052,12.9362843 C30.4274813,12.907182 30.4361596,12.8787531 30.445586,12.8498005 C30.8854863,11.5058603 31.2135411,10.1208479 31.3749127,8.71488778 C31.5225187,7.42832918 31.5362843,6.12875312 31.3743142,4.84286783 C31.2804988,4.09817955 31.1208479,3.36164589 30.8917706,2.64673317 C30.8901247,2.64157107 30.8884788,2.63603491 30.8867581,2.63087282 C32.9068579,3.72531172 34.4596758,5.33798005 35.5136409,7.44014963 C35.6529426,7.7180798 35.9912469,7.83037406 36.2691771,7.69107232 C36.5471072,7.55177057 36.6594015,7.21346633 36.5200998,6.93546135 C35.1230424,4.14897756 32.9310224,2.14466334 30.0030673,0.977506234 C25.9760349,-0.627306733 21.7847132,-0.0994264339 17.8829177,2.50413965 C14.9702993,4.44755611 13.264788,6.83124688 13.1935661,6.9317207 C13.0610723,7.11875312 13.0553117,7.36743142 13.1788279,7.56044888 C13.3023441,7.75346633 13.5302244,7.85244389 13.7559352,7.81047382 C15.0971072,7.56112219 16.5206484,7.71411471 17.8726683,8.25299252 C19.2050873,8.78408978 20.3301995,9.63486284 21.1300998,10.715611 C21.2857107,10.9258354 21.5126933,11.0551122 21.7791022,10.9759601 C22.4940898,10.8492269 23.2318204,10.8366584 23.9691771,10.9352618 L19.471197,22.2211721 C19.3577057,22.2201995 19.2445885,22.2181796 19.1307232,22.2181796 C16.5359102,22.2181796 14.0560848,22.4766584 11.7601496,22.9864339 C11.4566334,23.0538404 11.265187,23.3545137 11.3326683,23.6581047 C11.4000748,23.9616209 11.7002244,24.1531421 12.0042643,24.0856608 C14.1889526,23.6005736 16.6532918,23.3441895 19.1307232,23.3441895 C20.3049875,23.3441895 21.48,23.4 22.6485786,23.5161097 C22.6527681,23.5164838 22.6568828,23.516409 22.6611471,23.5167082 C24.8342394,23.7321696 26.8708728,24.1468579 28.6685536,24.7489526 C30.8146384,25.4676808 32.4715212,26.414813 33.4439401,27.4645137 C32.9533167,27.6169077 32.4787781,27.8428429 32.0361097,28.1429925 C30.6217706,29.1021696 28.794015,29.1021696 27.379601,28.1429925 C25.5811721,26.9233167 23.257182,26.9233915 21.4589776,28.1429925 C20.0446384,29.1021696 18.2168828,29.1021696 16.8024688,28.1429925 C15.0041147,26.9233167 12.6801247,26.9233915 10.8818454,28.1429925 C9.46750623,29.1021696 7.63975062,29.1021696 6.22533666,28.1429925 C5.78274314,27.8428429 5.30820449,27.6168329 4.81758105,27.4645137 C5.78872818,26.4163092 7.44261845,25.4702244 9.5844389,24.7518703 C9.879202,24.6530424 10.0380299,24.3338903 9.939202,24.0390524 C9.84037406,23.7442893 9.52137157,23.5853865 9.22645885,23.6842893 C6.53610973,24.5865337 4.58296758,25.8100998 3.54718204,27.236783 C2.42371571,27.1760349 1.28603491,27.477606 0.30478803,28.1429925 C0.0474314214,28.3175312 -0.0196758105,28.667581 0.154862843,28.9249377 C0.329326683,29.1822943 0.67915212,29.2494763 0.93680798,29.0749377 C1.77246883,28.5082294 2.7525187,28.2765337 3.70630923,28.3795511 C3.74057357,28.3869576 3.77513716,28.3916708 3.80985037,28.3924938 C4.43438903,28.475985 5.04501247,28.7030424 5.59346633,29.0750125 C7.39167082,30.2945387 9.71558603,30.2946883 11.514015,29.0750125 C12.9285037,28.1157606 14.7563342,28.1158354 16.1705985,29.0750125 C17.9688778,30.2945387 20.292793,30.2946883 22.0911471,29.0750125 C23.5055611,28.1157606 25.3333915,28.1158354 26.7477307,29.0750125 C27.6469077,29.684813 28.6774564,29.9897506 29.7080798,29.9897506 C30.7386284,29.9897506 31.7691771,29.684813 32.6684289,29.0750125 C33.215611,28.7039401 33.8247382,28.4770324 34.4478554,28.3930923 C34.4847382,28.392419 34.5214713,28.3874065 34.55798,28.3793267 C35.5110224,28.2769825 36.4900998,28.5086783 37.3250125,29.0749377 C37.5823691,29.2494763 37.9324938,29.1823691 38.1069576,28.9249377 C38.281197,28.6678055 38.2140898,28.3176808 37.956808,28.1431421 Z M22.5430175,9.75583541 C22.5490025,9.74311721 22.555212,9.73054863 22.5612718,9.71783042 C23.0857107,8.62002494 23.6974564,7.55887781 24.4110973,6.57269327 C24.5855611,6.33164589 24.535586,5.96783042 24.2851122,5.7865586 C24.0400998,5.60917706 23.6758354,5.66805486 23.4989027,5.91261845 C22.9259102,6.70436409 22.416808,7.54234414 21.9599252,8.40605985 C21.7948878,8.71817955 21.6272319,9.0340399 21.4856858,9.35775561 C21.483217,9.36299252 21.4805985,9.36822943 21.4781297,9.37346633 C20.6180798,8.4427182 19.5311222,7.70214464 18.289601,7.2074813 C17.1975561,6.77221945 16.0609975,6.5572818 14.9428429,6.56895262 C15.6944888,5.7236409 16.929202,4.48967581 18.5364838,3.42209476 C20.1301496,2.36349127 21.7751372,1.67244389 23.4255112,1.36817955 C25.0222444,1.07386534 26.6334165,1.14291771 28.2321696,1.57241895 C28.2257357,1.57593516 28.2188529,1.57982544 28.212419,1.58334165 C27.3475062,2.05802993 26.545586,2.64374065 25.8175062,3.30875312 C25.5335162,3.56812968 25.2564838,3.83476309 24.9910474,4.11299252 C24.7764838,4.33802993 24.7849377,4.6944389 25.0099751,4.90900249 C25.2350125,5.12356608 25.5913466,5.11511222 25.805985,4.89007481 C26.5276309,4.13311721 27.3424938,3.44087282 28.23202,2.88119701 C28.641995,2.62316708 29.0699252,2.39004988 29.516783,2.2021197 C29.6341646,2.46837905 29.7868579,2.86256858 29.9302743,3.37885287 C30.6091272,5.82441397 30.4256858,8.46351621 29.8306234,10.9056359 C29.7026185,11.4308229 29.5547132,11.9514464 29.3869825,12.4652618 C29.3852618,12.4705736 29.3833915,12.4760349 29.3816708,12.4814214 C28.615586,11.6708978 27.674813,11.0091022 26.6097007,10.5327681 C26.5951122,10.5262594 26.5805237,10.5197506 26.5659352,10.5133167 C25.3062344,9.95730673 23.9199501,9.67982544 22.5430175,9.75583541 Z M22.3373566,22.355611 C22.0763342,22.3330175 21.8135162,22.3137157 21.549202,22.2966584 C21.2570574,22.2766085 20.964389,22.2618703 20.6717955,22.2499751 L25.0872569,11.1717456 C25.3544888,11.2482793 25.6175312,11.3393267 25.8751122,11.4435411 C25.9169327,11.4605237 26.5620449,11.7560349 26.5608479,11.7590274 L22.3373566,22.355611 Z" id="Shape"></path>
                </g>
            </g>
        </g>
    </g>
</svg>