<?xml version="1.0" encoding="UTF-8" standalone="no"?>
<svg width="23px" height="23px" viewBox="0 0 23 23" version="1.1" xmlns="http://www.w3.org/2000/svg" xmlns:xlink="http://www.w3.org/1999/xlink">
    <!-- Generator: Sketch 49 (51002) - http://www.bohemiancoding.com/sketch -->
    <title>wall-clock</title>
    <desc>Created with Sketch.</desc>
    <defs></defs>
    <g id="Page-1" stroke="none" stroke-width="1" fill="none" fill-rule="evenodd">
        <g id="SHIP-LOW" transform="translate(-317.000000, -378.000000)" fill="#251533" fill-rule="nonzero">
            <g id="Bar-de-progression" transform="translate(305.000000, 258.000000)">
                <g id="wall-clock" transform="translate(12.000000, 120.000000)">
                    <path d="M11.5,0 C5.15877895,0 0,5.1589 0,11.5 C0,17.8411 5.15877895,23 11.5,23 C17.8411605,23 23,17.8412211 23,11.5 C23,5.15883947 17.8411605,0 11.5,0 Z M16.3360526,19.1803658 L15.8404632,18.3279132 C15.7832658,18.2295579 15.6768605,18.1684263 15.5628289,18.1684263 C15.5060553,18.1684263 15.4521868,18.1830737 15.4025553,18.2119447 C15.3284711,18.2549789 15.2756921,18.3241605 15.2537816,18.4069605 C15.2321132,18.4897 15.2435526,18.5760105 15.2865868,18.6500947 L15.7828421,19.5036368 C14.6741816,20.0993974 13.4280053,20.4709684 12.1052632,20.5586105 L12.1052632,19.3545 C12.1052632,19.0203342 11.8341658,18.7492368 11.5,18.7492368 C11.1657737,18.7492368 10.8947368,19.0203342 10.8947368,19.3545 L10.8947368,20.5584289 C9.59154474,20.4722395 8.36267895,20.1098684 7.26624474,19.5293605 L7.75717368,18.6729737 C7.79972368,18.5987684 7.81086053,18.5125184 7.78846579,18.4297789 C7.76607105,18.3472211 7.71286842,18.2783421 7.63866316,18.2357921 C7.58939474,18.2075263 7.53595,18.1931816 7.47984211,18.1931816 C7.36508421,18.1931816 7.25831579,18.2549789 7.20123947,18.3543632 L6.71085526,19.2097816 C5.61720526,18.5278921 4.6782,17.6203605 3.96011579,16.5521921 L5.00044211,15.9515895 C5.28987895,15.7844763 5.38908158,15.4142974 5.22190789,15.1248 C5.05479474,14.8354237 4.68461579,14.7361605 4.39517895,14.9033947 L3.3534,15.5048447 C2.80527368,14.3942474 2.47782632,13.1564237 2.42831579,11.84845 L3.41671053,11.8454237 C3.50229474,11.8451816 3.58261316,11.8115895 3.64289737,11.7509421 C3.70318158,11.6902342 3.73628947,11.6096737 3.73598684,11.5240895 C3.73544211,11.3479579 3.59169211,11.2046921 3.41562105,11.2046921 L2.42613684,11.2077184 C2.46844474,9.87922632 2.79752632,8.62203421 3.35333947,7.49582105 L4.39511842,8.09727105 C4.49038684,8.15228947 4.59443158,8.17843684 4.69708421,8.17843684 C4.90626316,8.17843684 5.10975263,8.06991316 5.22184737,7.87574474 C5.38902105,7.58624737 5.28981842,7.21606842 5.00038158,7.04895526 L3.96005526,6.44835263 C4.66778947,5.39537632 5.59021053,4.49849737 6.66382632,3.82005789 L7.15941579,4.67251053 C7.18810526,4.72177895 7.22744737,4.76106053 7.27653421,4.78926579 C7.37446579,4.84531316 7.49860526,4.84591842 7.59726316,4.78847895 C7.67134737,4.74544474 7.72418684,4.67614211 7.74603684,4.59340263 C7.76794737,4.51072368 7.75626579,4.42447368 7.71329211,4.35051053 L7.21709737,3.49696842 C8.32587895,2.90120789 9.57199474,2.52951579 10.8946763,2.44199474 L10.8946763,3.64580263 C10.8946763,3.98002895 11.1657132,4.25106579 11.4999395,4.25106579 C11.8341053,4.25106579 12.1052026,3.98002895 12.1052026,3.64580263 L12.1052026,2.44199474 C13.4083342,2.52818421 14.6371395,2.89049474 15.7335737,3.47100263 L15.2426447,4.32738947 C15.1548211,4.48064211 15.2080237,4.67680789 15.3612158,4.76463158 C15.4104237,4.79283684 15.4638684,4.80718158 15.5200368,4.80718158 C15.6348553,4.80718158 15.7415632,4.74544474 15.7984579,4.64612105 L16.2889632,3.79058158 C17.3827342,4.47241053 18.3217395,5.38006316 19.0398237,6.44823158 L17.9994974,7.04883421 C17.71,7.21594737 17.6108579,7.58612632 17.7780316,7.87562368 C17.8902474,8.06979211 18.0936158,8.17831579 18.3027947,8.17831579 C18.4054474,8.17831579 18.5095526,8.15216842 18.6047605,8.09715 L19.6465395,7.49563947 C20.1947868,8.60617632 20.5221132,9.84406053 20.5716237,11.1520342 L19.5832289,11.1550605 C19.4976447,11.1553026 19.4173263,11.1888947 19.3571632,11.2495421 C19.2968789,11.31025 19.2637711,11.39075 19.2640737,11.4763342 C19.2644368,11.5905474 19.3261737,11.6967711 19.4255579,11.7537263 C19.4736158,11.7812658 19.5283921,11.7956711 19.5843184,11.7956711 L19.5853474,11.7956711 L20.5739237,11.7926447 C20.5316158,13.1211368 20.2025342,14.3783895 19.6467211,15.5045421 L18.6049421,14.9030316 C18.3153842,14.7358579 17.9454474,14.8351211 17.7782132,15.1245579 C17.6110395,15.4139947 17.7101816,15.7841737 17.9996789,15.9512868 L19.0400053,16.5518895 C18.3320289,17.6048658 17.4097289,18.5018053 16.3360526,19.1803658 Z" id="Shape"></path>
                    <path d="M16.0914396,8.1445627 L12.1068795,10.2746408 C11.9254864,10.1828849 11.7194313,10.1302734 11.5001445,10.1302734 C11.2809818,10.1302734 11.0748646,10.1828251 10.8934715,10.2746408 L6.90897354,8.1445627 C6.53227228,7.9430947 6.0572336,8.07417459 5.84807245,8.43718808 C5.63909768,8.80020157 5.77501825,9.25784396 6.15190588,9.45931196 L10.2172853,11.6326644 C10.334756,12.2124086 10.8640883,12.65 11.5000823,12.65 C12.1360763,12.65 12.6654708,12.2123488 12.7828794,11.6326644 L16.8481346,9.45931196 C17.2249601,9.25790381 17.3608806,8.80026142 17.151968,8.43718808 C16.9432417,8.07411474 16.4683272,7.9430947 16.0914396,8.1445627 Z" id="Shape"></path>
                </g>
            </g>
        </g>
    </g>
</svg>