<?xml version="1.0" encoding="UTF-8" standalone="no"?>
<svg width="40px" height="40px" viewBox="0 0 40 40" version="1.1" xmlns="http://www.w3.org/2000/svg" xmlns:xlink="http://www.w3.org/1999/xlink">
    <!-- Generator: Sketch 49 (51002) - http://www.bohemiancoding.com/sketch -->
    <title>earth-globe</title>
    <desc>Created with Sketch.</desc>
    <defs>
        <linearGradient x1="49.8947368%" y1="0.000347222222%" x2="49.8947368%" y2="99.9996528%" id="linearGradient-1">
            <stop stop-color="#6B1131" offset="0%"></stop>
            <stop stop-color="#391759" offset="100%"></stop>
        </linearGradient>
    </defs>
    <g id="Page-1" stroke="none" stroke-width="1" fill="none" fill-rule="evenodd">
        <g id="Travail---Uranus" transform="translate(-314.000000, -306.000000)" fill="url(#linearGradient-1)" fill-rule="nonzero" stroke="#0E0224">
            <g id="Bar-de-progression" transform="translate(305.000000, 258.000000)">
                <g id="earth-globe" transform="translate(10.000000, 49.000000)">
                    <path d="M13.5,11 C6.05611392,11 0,17.0561139 0,24.500147 C-1.11999417e-15,31.9440331 6.05611392,38 13.5,38 C20.9438861,38 27,31.9440331 27,24.5000735 C27,17.0561139 20.9438861,11 13.5,11 Z M21.4647141,17.8441915 C20.6246713,18.1304779 19.6298354,18.3697236 18.5373167,18.5519325 C18.3421716,17.469557 18.0927827,16.4629609 17.7927517,15.5630148 C17.7210147,15.347951 17.6474403,15.1439122 17.5726898,14.9477381 C19.0886476,15.5966783 20.420118,16.5963652 21.4647141,17.8441915 Z M12.0244677,16.987905 C12.6151216,15.0058774 13.2571527,14.2810841 13.500147,14.1330531 C13.7431413,14.2810106 14.3850254,15.0058039 14.9756793,16.9876845 C15.1509792,17.5758394 15.3027587,18.21618 15.431459,18.8945206 C14.7975864,18.9317856 14.1513658,18.9516309 13.499706,18.9516309 C12.8484137,18.9516309 12.2022666,18.9317856 11.568688,18.8945206 C11.6973148,18.2162535 11.8491678,17.5759864 12.0244677,16.987905 Z M3.89320034,28.4419315 C3.39243811,27.2257106 3.11541288,25.8947548 3.11541288,24.500147 C3.11541288,23.1055393 3.39236461,21.7745099 3.89320034,20.5583625 C5.07193569,21.0232563 6.4932243,21.3926722 8.07173152,21.6494847 C7.99955355,22.5755971 7.96148004,23.529934 7.96148004,24.500147 C7.96148004,25.47036 7.99970055,26.4246234 8.07173152,27.3507358 C6.4931508,27.6076218 5.07186219,27.9768907 3.89320034,28.4419315 Z M5.53521242,31.155588 C6.37525521,30.8693016 7.37009109,30.6301294 8.46275678,30.447994 C8.6579019,31.5305165 8.90743776,32.5370391 9.20746879,33.4371322 C9.27913225,33.6521225 9.35263324,33.8562348 9.42753075,34.0523354 C7.91120536,33.4033952 6.57980846,32.4035613 5.53521242,31.155588 Z M9.20746879,15.5629413 C8.90743776,16.4629609 8.6579019,17.469557 8.46275678,18.5520795 C7.37016459,18.3699441 6.37525521,18.1306984 5.53521242,17.8444855 C6.57966146,16.5965857 7.91113186,15.5967518 9.42745725,14.9478116 C9.35270674,15.1437652 9.27913225,15.347951 9.20746879,15.5629413 Z M14.9757528,32.012389 C14.3849519,33.9942696 13.7430678,34.7190629 13.5000735,34.8670204 C13.2570792,34.7189159 12.6151216,33.9941226 12.0243942,32.0121685 C11.8490943,31.4240871 11.6972413,30.7837465 11.5686145,30.1055529 C12.2024136,30.0682879 12.8486342,30.0484426 13.5000735,30.0484426 C14.1515128,30.0484426 14.7977334,30.0682879 15.4315325,30.1055529 C15.3028322,30.7838935 15.1510527,31.4241606 14.9757528,32.012389 Z M15.8304223,27.0066777 C15.0708631,26.9583876 14.2920466,26.9329562 13.5,26.9329562 C12.7079534,26.9329562 11.9289899,26.9583876 11.1693572,27.0066777 C11.1086453,26.1921397 11.0768194,25.3521705 11.0768194,24.5000735 C11.0768194,23.6479765 11.1084983,22.8080073 11.1693572,21.9932488 C11.9289164,22.0415389 12.7077328,22.0669703 13.499559,22.0669703 C14.2916791,22.0669703 15.0706426,22.0415389 15.8303488,21.9932488 C15.8912076,22.8080073 15.9228866,23.647903 15.9228866,24.5000735 C15.9228866,25.352244 15.8912811,26.1920662 15.8304223,27.0066777 Z M17.5726163,34.0523354 C17.6473668,33.8563083 17.7209412,33.6521225 17.7926782,33.4371322 C18.0927092,32.5371126 18.3420981,31.53059 18.5372432,30.448141 C19.6299089,30.6302764 20.6248918,30.8695221 21.4648611,31.155735 C20.420265,32.4035613 19.0888681,33.4033952 17.5726163,34.0523354 Z M18.928048,27.3506623 C19.0001524,26.4245499 19.0382995,25.4702865 19.0382995,24.5000735 C19.0382995,23.5297135 19.0000789,22.5753766 18.927901,21.6491907 C20.5065552,21.3923047 21.9278438,21.0229623 23.1065792,20.557848 C23.6075619,21.7740689 23.8845871,23.1051717 23.8845871,24.5000735 C23.8845871,25.8947548 23.6074884,27.2257106 23.1067997,28.4417845 C21.9279173,27.9768172 20.5066287,27.6074748 18.928048,27.3506623 Z" id="Shape"></path>
                    <path d="M31.8808754,16.8411645 C29.8833486,12.0126689 25.9716722,8.10405501 21.1489438,6.11753161 C20.3535914,5.78991762 19.4440085,6.17069801 19.1172581,6.96782578 C18.7904341,7.76510082 19.1702228,8.67688244 19.9655017,9.00442279 C24.0275509,10.6776915 27.322236,13.9698845 29.004619,18.0368193 C29.2532079,18.6375554 29.8326611,19 30.4433349,19 C30.6421179,19 30.8441331,18.9616348 31.0390962,18.8805597 C31.8332732,18.550442 32.210197,17.6372613 31.8808754,16.8411645 Z" id="Shape"></path>
                    <path d="M37.8762528,14.7593918 C35.150377,8.17299572 29.8129728,2.83801413 23.2327754,0.122565435 C22.4070183,-0.218298656 21.4622606,0.176217138 21.1222699,1.00338576 C20.7822029,1.83055438 21.1758201,2.77717829 22.0014247,3.11796596 C27.7930144,5.50791237 32.4906381,10.2034299 34.88972,16.0003358 C35.1477072,16.6238267 35.7495754,17 36.3837111,17 C36.5901313,17 36.7998317,16.9601816 37.0023615,16.8760355 C37.8268981,16.5332608 38.2183032,15.5856433 37.8762528,14.7593918 Z" id="Shape"></path>
                </g>
            </g>
        </g>
    </g>
</svg>