<?xml version="1.0" encoding="UTF-8" standalone="no"?>
<svg width="45px" height="27px" viewBox="0 0 45 27" version="1.1" xmlns="http://www.w3.org/2000/svg" xmlns:xlink="http://www.w3.org/1999/xlink">
    <!-- Generator: Sketch 49 (51002) - http://www.bohemiancoding.com/sketch -->
    <title>people</title>
    <desc>Created with Sketch.</desc>
    <defs></defs>
    <g id="Page-1" stroke="none" stroke-width="1" fill="none" fill-rule="evenodd">
        <g id="Travail---Uranus" transform="translate(-305.000000, -258.000000)" fill="#251533" fill-rule="nonzero">
            <g id="Bar-de-progression" transform="translate(305.000000, 258.000000)">
                <g id="people">
                    <path d="M39.7894737,10.875 C41.0210526,9.703125 41.7789474,8.109375 41.7789474,6.328125 C41.7789474,2.859375 38.8894737,0 35.3842105,0 C31.8789474,0 28.9894737,2.859375 28.9894737,6.328125 C28.9894737,8.109375 29.7473684,9.75 30.9315789,10.875 C29.9842105,11.34375 29.1315789,12 28.4210526,12.75 C28.6578947,12.09375 28.8,11.34375 28.8,10.59375 C28.8,7.125 25.9105263,4.265625 22.4052632,4.265625 C18.9,4.265625 16.0105263,7.125 16.0105263,10.59375 C16.0105263,11.34375 16.1526316,12.09375 16.3894737,12.796875 C15.6789474,12.046875 14.8263158,11.390625 13.8789474,10.921875 C15.1105263,9.75 15.8684211,8.15625 15.8684211,6.375 C15.8684211,2.90625 12.9789474,0.046875 9.47368421,0.046875 C5.96842105,0.046875 3.12631579,2.859375 3.12631579,6.328125 C3.12631579,8.109375 3.88421053,9.75 5.11578947,10.875 C2.08421053,12.46875 0,15.609375 0,19.21875 L0,21.328125 C0,22.125 0.615789474,22.734375 1.42105263,22.734375 C2.22631579,22.734375 2.84210526,22.125 2.84210526,21.328125 L2.84210526,19.21875 C2.84210526,15.75 5.58947368,12.890625 9.04736842,12.609375 C9.18947368,12.609375 9.37894737,12.65625 9.52105263,12.65625 C9.71052632,12.65625 9.85263158,12.65625 10.0421053,12.609375 C12.6,12.796875 14.8263158,14.4375 15.7263158,16.828125 C14.0210526,18.515625 12.9315789,20.90625 12.9315789,23.484375 L12.9315789,25.59375 C12.9315789,26.390625 13.5473684,27 14.3526316,27 C15.1578947,27 15.7736842,26.390625 15.7736842,25.59375 L15.7736842,23.484375 C15.7736842,20.015625 18.5210526,17.15625 21.9789474,16.921875 C22.1210526,16.921875 22.3105263,16.921875 22.4526316,16.921875 C22.5947368,16.921875 22.7842105,16.921875 22.9263158,16.921875 C24.3,17.015625 25.5789474,17.53125 26.6210526,18.328125 C26.6684211,18.375 26.7157895,18.375 26.7631579,18.421875 C28.2315789,19.640625 29.1789474,21.46875 29.1789474,23.484375 L29.1789474,25.59375 C29.1789474,26.390625 29.7947368,27 30.6,27 C31.4052632,27 32.0210526,26.390625 32.0210526,25.59375 L32.0210526,23.484375 C32.0210526,20.859375 30.9315789,18.515625 29.2263158,16.828125 C30.1736842,14.484375 32.4,12.84375 34.9578947,12.65625 C35.1473684,12.65625 35.2894737,12.703125 35.4789474,12.703125 C35.6210526,12.703125 35.8105263,12.703125 35.9526316,12.65625 C39.4105263,12.890625 42.1578947,15.75 42.1578947,19.265625 L42.1578947,21.375 C42.1578947,22.171875 42.7736842,22.78125 43.5789474,22.78125 C44.3842105,22.78125 45,22.171875 45,21.375 L45,19.265625 C44.9052632,15.609375 42.8210526,12.46875 39.7894737,10.875 Z M5.96842105,6.328125 C5.96842105,4.40625 7.57894737,2.8125 9.52105263,2.8125 C11.4631579,2.8125 13.0736842,4.40625 13.0736842,6.328125 C13.0736842,8.109375 11.7,9.609375 9.94736842,9.796875 C9.80526316,9.796875 9.66315789,9.796875 9.52105263,9.796875 C9.37894737,9.796875 9.23684211,9.796875 9.09473684,9.796875 C7.34210526,9.609375 5.96842105,8.109375 5.96842105,6.328125 Z M22.4526316,7.078125 C24.3947368,7.078125 26.0052632,8.671875 26.0052632,10.59375 C26.0052632,12.375 24.6315789,13.875 22.8789474,14.0625 C22.7368421,14.0625 22.5947368,14.0625 22.4526316,14.0625 C22.3105263,14.0625 22.1684211,14.0625 22.0263158,14.0625 C20.2736842,13.875 18.9,12.375 18.9,10.59375 C18.9,8.671875 20.5105263,7.078125 22.4526316,7.078125 Z M31.8315789,6.328125 C31.8315789,4.40625 33.4421053,2.8125 35.3842105,2.8125 C37.3263158,2.8125 38.9368421,4.40625 38.9368421,6.328125 C38.9368421,8.109375 37.5631579,9.609375 35.8105263,9.796875 C35.6684211,9.796875 35.5263158,9.796875 35.3842105,9.796875 C35.2421053,9.796875 35.1,9.796875 34.9578947,9.796875 C33.2052632,9.609375 31.8315789,8.109375 31.8315789,6.328125 Z" id="Shape"></path>
                </g>
            </g>
        </g>
    </g>
</svg>