<?xml version="1.0" encoding="UTF-8" standalone="no"?>
<svg width="40px" height="14px" viewBox="0 0 40 14" version="1.1" xmlns="http://www.w3.org/2000/svg" xmlns:xlink="http://www.w3.org/1999/xlink">
    <!-- Generator: Sketch 49 (51002) - http://www.bohemiancoding.com/sketch -->
    <title>info</title>
    <desc>Created with Sketch.</desc>
    <defs></defs>
    <g id="Page-1" stroke="none" stroke-width="1" fill="none" fill-rule="evenodd">
        <g id="Travail---Uranus" transform="translate(-310.000000, -432.000000)" fill="#251533" fill-rule="nonzero">
            <g id="Bar-de-progression" transform="translate(305.000000, 258.000000)">
                <g id="info" transform="translate(5.000000, 174.000000)">
                    <path d="M37.1224334,2.63257128 L26.9269461,6.2074435 C26.7778029,6.25959836 26.620769,6.28559771 26.4627194,6.28419234 L26.3038885,6.28419234 C26.5077202,5.55933346 26.4142029,4.78317855 26.0441185,4.12733898 L25.9920082,4.033023 C25.3902791,2.97329556 24.268463,2.31487947 23.0492234,2.30590071 L20.1690177,2.30590071 C19.1759538,2.29895194 18.2167967,1.94401781 17.4586587,1.30293462 C16.4591104,0.465724174 15.1976825,0.00476264453 13.8935195,0 L13.5556231,0 C13.3878077,0 9.96993658,0.0311523798 7.76419563,1.91083545 C7.51606638,1.54918677 7.10559059,1.33291586 6.66683307,1.3324474 L1.33338224,1.3324474 C0.597353993,1.33330624 0.000859389736,1.92933949 0,2.66497288 L0,11.9925732 C0.000859389736,12.7281285 0.597275867,13.3242398 1.33338224,13.3250986 L6.66683307,13.3250986 C7.06480864,13.3236152 7.44098697,13.1435716 7.69161626,12.8346243 C8.89929322,13.6591864 10.3441617,14.0654947 11.8048899,13.9914004 L26.284982,13.9914004 C27.1243714,13.9884335 27.9457136,13.7481152 28.6541632,13.2981624 L38.9759808,6.68737753 C39.4898178,6.34922977 39.8441207,5.81698472 39.9577945,5.2126754 C40.0779528,4.58876897 39.9390442,3.94292314 39.5730223,3.4234045 C39.019966,2.64857689 38.024402,2.32729358 37.1224334,2.63257128 Z M6.66675494,11.9925732 L1.33338224,11.9925732 L1.33338224,2.66505096 L6.66683307,2.66505096 L6.66683307,11.9925732 L6.66675494,11.9925732 Z M38.6484752,4.96119215 C38.6055057,5.20861544 38.4629252,5.42754094 38.2539372,5.56690685 L27.9393072,12.1730852 C27.4446893,12.487654 26.871242,12.6559861 26.284982,12.6587969 L11.8048899,12.6587969 C9.25601809,12.6587969 8.26381358,11.6571581 8.00013718,11.3168242 L8.00013718,3.58697402 C9.62844635,1.36797205 13.5164818,1.33252548 13.5555449,1.33252548 L13.8934414,1.33252548 C14.8852552,1.33705389 15.8440998,1.6884746 16.6038003,2.32573205 C17.6017862,3.16692438 18.8634485,3.63139934 20.1689396,3.63842619 L23.0492234,3.63842619 C23.7874391,3.63983156 24.4674508,4.03919102 24.8279257,4.68300687 L24.880036,4.77732284 C25.143478,5.24843427 25.1306653,5.82526079 24.8465198,6.28419234 L21.564901,6.28419234 C20.4438662,6.28739346 19.3510349,6.63592535 18.4353161,7.28223964 L18.0355436,7.56268913 C17.8406184,7.69940045 17.7335072,7.92956891 17.7544451,8.16660807 C17.775461,8.40364723 17.9214011,8.61148592 18.1372641,8.71181376 C18.3532053,8.8121416 18.6062565,8.78981182 18.8011818,8.6531005 L19.1996261,8.3739783 C19.8914348,7.88459706 20.7173084,7.62015317 21.564901,7.61663974 L26.4627975,7.61663974 C26.774131,7.61812319 27.0834332,7.5657341 27.3768757,7.46181476 L37.5574409,3.89217365 C37.9014312,3.77537174 38.2812033,3.90044972 38.4884725,4.1986225 C38.6430845,4.42059296 38.700898,4.69581135 38.6484752,4.96119215 Z" id="Shape"></path>
                    <path d="M3.50141019,9.99999157 C3.63338985,9.99792818 3.75970238,9.94587185 3.85540078,9.85408056 C3.89939399,9.80514878 3.9347989,9.74896567 3.96009646,9.68800729 C3.98562771,9.62752054 3.99918206,9.56261225 4,9.4968786 C3.99807201,9.36370163 3.94642526,9.23618425 3.85540078,9.13967664 C3.65547409,8.95344112 3.34734629,8.95344112 3.14747803,9.13967664 C3.00369674,9.28358322 2.96046304,9.50100537 3.03810844,9.68977591 C3.11575384,9.87854644 3.29885443,10.0011707 3.50141019,9.99999157 Z" id="Shape"></path>
                </g>
            </g>
        </g>
    </g>
</svg>