<?xml version="1.0" encoding="UTF-8" standalone="no"?>
<svg width="33px" height="27px" viewBox="0 0 33 27" version="1.1" xmlns="http://www.w3.org/2000/svg" xmlns:xlink="http://www.w3.org/1999/xlink">
    <!-- Generator: Sketch 49 (51002) - http://www.bohemiancoding.com/sketch -->
    <title>sun-2</title>
    <desc>Created with Sketch.</desc>
    <defs>
        <linearGradient x1="49.8947368%" y1="0.000347222222%" x2="49.8947368%" y2="99.9996528%" id="linearGradient-1">
            <stop stop-color="#6B1131" offset="0%"></stop>
            <stop stop-color="#391759" offset="100%"></stop>
        </linearGradient>
    </defs>
    <g id="Page-1" stroke="none" stroke-width="1" fill="none" fill-rule="evenodd">
        <g id="SHIP-LOW" transform="translate(-313.000000, -309.000000)" fill="url(#linearGradient-1)" fill-rule="nonzero">
            <g id="Nav-" transform="translate(312.000000, 258.000000)">
                <g id="sun-2" transform="translate(1.000000, 51.000000)">
                    <path d="M12.9068886,5.34833837 L11.7060197,4.14224384 C11.5644182,3.97408852 11.3124443,3.95184229 11.143181,4.09251697 C10.9739178,4.23319165 10.951525,4.48351625 11.0931265,4.65167156 C11.1072867,4.66846528 11.122819,4.68411398 11.1396136,4.69839955 L12.3404825,5.90449408 C12.5080443,6.04713166 12.7602926,6.02777527 12.90387,5.86131023 C13.0308723,5.71403802 13.0321895,5.49708276 12.9068886,5.34833837 Z" id="Shape"></path>
                    <path d="M28.9096123,4.13992757 C28.7721488,3.97451046 28.5275383,3.95262648 28.3632214,4.09101045 C28.3468111,4.10484884 28.3315196,4.12002817 28.3175601,4.13644115 L27.1389969,5.31002299 C26.97468,5.44840695 26.9529416,5.69465532 27.0904051,5.86007243 C27.2278686,6.02548954 27.4724791,6.04737352 27.636796,5.90898955 C27.6532064,5.89515116 27.6684978,5.87997183 27.6824573,5.86355885 L28.8610206,4.68997701 C29.0252841,4.55159305 29.0470758,4.30534468 28.9096123,4.13992757 Z" id="Shape"></path>
                    <path d="M17.992939,3.22572469 C17.9909519,3.20695998 17.9885675,3.18846081 17.9857414,3.17013867 L17.6324863,0.507674884 C17.5957477,0.161501484 17.4259645,-0.0594263622 17.2532668,0.0141277404 C17.0805692,0.0876818431 16.9703536,0.428101914 17.007048,0.774275314 C17.0090351,0.793040019 17.0114195,0.811539186 17.0142456,0.829861327 L17.3675007,3.49232512 C17.4042393,3.83849852 17.5740225,4.05942636 17.7467201,3.98587226 C17.9194178,3.91231816 18.0296775,3.57189809 17.992939,3.22572469 Z" id="Shape"></path>
                    <path d="M27.0853095,15.7504503 C26.972569,15.6366834 26.855435,15.5251751 26.7338245,15.4158417 L26.8333014,15.2351531 C26.9567356,15.0061972 27.0674036,14.7704655 27.1648909,14.5291291 C28.5773795,10.9693123 26.8626471,6.92799376 23.3349489,5.50264495 C23.3283171,5.49996809 23.3217682,5.49729122 23.3151364,5.494698 C20.1259082,4.21189244 16.487542,5.49670565 14.7866535,8.50617502 C10.6293496,7.33454315 6.31793954,9.78555084 5.15679588,13.9807893 C4.96356207,14.6788664 4.86665503,15.4004497 4.86881036,16.1252119 C4.86881036,16.2255944 4.86881036,16.3304106 4.86881036,16.4397439 C1.98257212,16.646281 -0.191328895,19.1747506 0.0133447474,22.0872672 C0.206744346,24.8400081 2.46578098,26.9794952 5.2003999,26.99999 L5.21697938,26.99999 L22.4596354,26.99999 C26.0655058,27.0062639 28.9936901,24.0617086 28.9999903,20.4230078 C29.0029747,18.6704955 28.3139316,16.9890039 27.0853095,15.7504503 Z M18.6761988,6.62567493 C20.0209601,6.08603497 21.5194133,6.08603497 22.8641746,6.62567493 C25.779427,7.79939809 27.2022777,11.1336051 26.0441183,14.0774075 C25.9602261,14.2800966 25.86506,14.4778503 25.7589513,14.6696646 L25.7589513,14.723202 C24.0942889,13.7466469 22.0875919,13.5606046 20.2744603,14.214597 C19.9398036,12.8672957 19.2579726,11.6332593 18.2981867,10.6376315 C18.9687436,9.3813437 20.4626374,8.82714828 21.7798768,9.3460425 C22.0947211,9.45052402 22.4339372,9.27761505 22.537476,8.95990422 C22.6324764,8.66846017 22.4964418,8.35133491 22.2208909,8.22175774 C20.4323798,7.498585 18.3874672,8.17231933 17.3664201,9.82118665 C16.9138833,9.47787827 16.4258663,9.18501213 15.910742,8.94785831 C16.5583364,7.89141545 17.5289818,7.076309 18.6761988,6.62567493 Z M23.7192611,25.6348707 C23.3088362,25.7338312 22.8882149,25.7832696 22.4662672,25.7820985 L5.22361117,25.7820985 C2.99491498,25.7800908 1.18982443,23.9552194 1.19181397,21.7062317 C1.19280874,20.6283738 1.61716045,19.5949353 2.37194114,18.8322788 L2.36530935,18.8356248 C3.1210848,18.0717135 4.14727153,17.6429963 5.21697938,17.6444184 L5.36287877,17.6444184 L5.49219869,17.6444184 C5.82287636,17.6671718 6.10928683,17.4150442 6.13175202,17.0813558 C6.13531661,17.0290732 6.13208361,16.976456 6.12221882,16.92501 C6.10895524,16.8089845 6.09792988,16.6830043 6.08905986,16.5469023 C6.08905986,16.4197511 6.08905986,16.2792155 6.08905986,16.1219494 C6.13821801,12.4374073 9.13802567,9.49067705 12.7894068,9.54028277 C15.9977843,9.58386553 18.7120104,11.9456164 19.2266374,15.1415464 C19.2741376,15.4725579 19.5785368,15.7020994 19.9066446,15.6541667 C19.9699782,15.6448813 20.0314881,15.625474 20.0887702,15.596614 C20.4559227,15.4113245 20.8431364,15.2698687 21.2427018,15.1750072 C24.1050656,14.4848771 26.979864,16.2670022 27.6637674,19.155427 C28.3476708,22.043768 26.5816249,24.9447406 23.7192611,25.6348707 Z" id="Shape"></path>
                    <path d="M32.9707371,9.2280485 C32.8709532,9.06815189 32.5405996,8.97233002 32.2092518,9.00711344 L29.4905009,9.36432453 C29.1414378,9.40897592 28.931295,9.58467912 29.020504,9.75725673 C29.1106169,9.93014689 29.4673626,10.0342293 29.8174198,9.98971184 C29.8181429,9.98962254 29.818866,9.98953324 29.8194987,9.98944393 L32.5382496,9.63223285 C32.8836973,9.57963351 33.0772999,9.39866145 32.9707371,9.2280485 Z" id="Shape"></path>
                    <path d="M32.5272319,15.3732719 L29.832145,15.0124489 C29.4858263,14.9638258 29.1246846,15.061952 29.0254156,15.2315829 C28.9261466,15.4012137 29.1264814,15.578105 29.4728,15.6267281 L32.167887,15.9875511 C32.5142056,16.0361742 32.8753473,15.938048 32.9746163,15.7684171 C33.0737955,15.5987863 32.8735506,15.421895 32.5272319,15.3732719 Z" id="Shape"></path>
                    <path d="M23.7686499,0.0253507349 C23.5991782,-0.0736648901 23.4224527,0.126158498 23.3738752,0.471593099 L23.0133905,3.15980011 C22.9630985,3.50308415 23.0588468,3.86455839 23.2272635,3.96706868 C23.2309562,3.96930885 23.234693,3.97145942 23.2384737,3.97343077 C23.4071102,4.07459696 23.5840554,3.87799942 23.633688,3.53426735 C23.6344793,3.52898054 23.6351827,3.52360413 23.6358861,3.51822771 L23.9875784,0.830020701 C24.036112,0.4845861 23.9381217,0.12436636 23.7686499,0.0253507349 Z" id="Shape"></path>
                </g>
            </g>
        </g>
    </g>
</svg>