<?xml version="1.0" encoding="UTF-8" standalone="no"?>
<svg width="33px" height="32px" viewBox="0 0 33 32" version="1.1" xmlns="http://www.w3.org/2000/svg" xmlns:xlink="http://www.w3.org/1999/xlink">
    <!-- Generator: Sketch 49 (51002) - http://www.bohemiancoding.com/sketch -->
    <title>oxygen-structure</title>
    <desc>Created with Sketch.</desc>
    <defs>
        <linearGradient x1="49.8947368%" y1="0.000347222222%" x2="49.8947368%" y2="99.9996528%" id="linearGradient-1">
            <stop stop-color="#6B1131" offset="0%"></stop>
            <stop stop-color="#391759" offset="100%"></stop>
        </linearGradient>
    </defs>
    <g id="Page-1" stroke="none" stroke-width="1" fill="none" fill-rule="evenodd">
        <g id="SHIP-LOW" transform="translate(-307.000000, -259.000000)" fill="url(#linearGradient-1)" fill-rule="nonzero" stroke="#0E0224" stroke-width="2">
            <g id="Nav-" transform="translate(307.000000, 260.000000)">
                <g id="oxygen-structure" transform="translate(1.000000, 0.000000)">
                    <path d="M17,9.41544618 C17,3.41097224 13.5662015,0 8.49997498,0 C3.43374849,0 0,3.38280434 0,9.41544618 C0,15.4480379 3.43374849,19 8.50002502,19 C13.5663016,19 17,15.448088 17,9.41544618 Z M4.95363145,9.41544618 C4.95363145,6.08902776 6.30462184,4.17210697 8.49997498,4.17210697 C10.6953281,4.17210697 12.0463686,6.08907788 12.0463686,9.41544618 C12.0463686,12.7418145 10.6953281,14.827893 8.49997498,14.827893 C6.30462184,14.827893 4.95363145,12.7418145 4.95363145,9.41544618 Z" id="Shape"></path>
                    <path d="M31,27.0279906 L31,27.0263062 C31,26.4524242 30.5286349,25.9869377 29.9465761,25.9859964 L25.2391051,25.9783671 C27.6695423,23.5263393 30.1521357,20.6378063 30.1521357,17.7956932 C30.1521357,14.2848768 27.6086935,12 23.9912764,12 C21.7093687,12 20.1364432,12.6579034 18.5560812,14.0795792 C18.1127035,14.4784827 18.0994384,15.1630392 18.5238228,15.5815113 L19.6468888,16.6888004 C20.0407231,17.0771022 20.6714208,17.0949865 21.0906297,16.7334864 C21.7403207,16.1732281 22.4523177,15.7337506 23.312995,15.7337506 C24.6129799,15.7337506 25.5173216,16.486079 25.5173216,18.0743114 C25.5173216,20.4059548 22.4135272,23.2652586 18.340824,26.9601691 C18.1236573,27.1571933 18,27.4349197 18,27.7258736 L18,28.9596902 C18,29.5342658 18.4723701,30 19.0551323,30 L29.9448677,30 C30.5275797,30 31,29.5342658 31,28.9596902 L31,27.0279906 Z" id="Shape"></path>
                </g>
            </g>
        </g>
    </g>
</svg>