<?xml version="1.0" encoding="UTF-8" standalone="no"?>
<svg width="30px" height="23px" viewBox="0 0 30 23" version="1.1" xmlns="http://www.w3.org/2000/svg" xmlns:xlink="http://www.w3.org/1999/xlink">
    <!-- Generator: Sketch 49 (51002) - http://www.bohemiancoding.com/sketch -->
    <title>fish</title>
    <desc>Created with Sketch.</desc>
    <defs>
        <linearGradient x1="49.8947368%" y1="0.000347222222%" x2="49.8947368%" y2="99.9996528%" id="linearGradient-1">
            <stop stop-color="#6B1131" offset="0%"></stop>
            <stop stop-color="#391759" offset="100%"></stop>
        </linearGradient>
    </defs>
    <g id="Page-1" stroke="none" stroke-width="1" fill="none" fill-rule="evenodd">
        <g id="SHIP-LOW-Copy-2" transform="translate(-313.000000, -423.000000)" fill="url(#linearGradient-1)" fill-rule="nonzero">
            <g id="Nav-" transform="translate(312.000000, 258.000000)">
                <g id="fish" transform="translate(1.000000, 165.000000)">
                    <path d="M29.9208102,11.4884568 C27.4221847,7.04745215 23.314567,4.33182741 18.5000708,3.82858918 C16.0862895,0.801596703 8.51236578,0.0347547294 8.18546966,0.00316416785 C7.97248033,-0.0186525183 7.75820194,0.0734429861 7.62759584,0.245591184 C7.4963452,0.416517648 7.46400129,0.643120295 7.54216573,0.843717452 C8.28472795,2.75753534 9.04545432,4.93437519 9.24678343,5.82496141 C7.87140562,6.44984948 6.66923178,7.11435665 5.89420847,7.66809323 C4.21326276,4.99796356 0.781878818,4.96462766 0.625022583,4.96462766 C0.279552146,4.96462766 0,5.24219409 0,5.58521057 C0,9.18071681 1.26223273,10.9854513 2.10633841,11.7908651 C1.26223273,12.5962208 0,14.4009553 0,17.9964615 C0,18.339478 0.279552146,18.6170444 0.625022583,18.6170444 C0.781878818,18.6170444 4.21332135,18.5837085 5.89420847,15.9135789 C6.92388146,16.6492957 8.70420266,17.5796174 10.6496418,18.3530334 C10.2197374,19.0434297 10.0000684,20.1415363 10.0000684,21.7198426 C10.0000684,22.0628591 10.2796205,22.3404255 10.6250909,22.3404255 C10.8109512,22.3404255 15.0611282,22.3038317 17.1777792,19.8386043 C22.5608133,19.7353387 27.1960703,16.9360542 29.9208102,12.0932153 C30.0263966,11.9053591 30.0263966,11.676313 29.9208102,11.4884568 Z M9.07656776,1.36248916 C11.1766366,1.66431574 14.6243683,2.40689756 16.5727372,3.73608643 C14.776244,3.80578347 12.4840453,4.48018088 10.406125,5.32643559 C10.129444,4.23560128 9.51555428,2.53139811 9.07656776,1.36248916 Z M11.2647034,21.0635385 C11.3479656,19.3373441 11.7491003,18.8961817 11.8615423,18.8058897 C13.0794779,19.2303551 14.3134683,19.5676702 15.4339621,19.7369677 C14.0781547,20.6841609 12.229923,20.978948 11.2647034,21.0635385 Z M11.7890029,18.7865144 L11.7897088,18.7813968 C11.7948264,18.7831615 11.8001205,18.7845733 11.8050617,18.7865144 C11.7944735,18.7851027 11.800297,18.7881027 11.7890029,18.7865144 Z M16.8750824,18.6170444 C13.2227403,18.6170444 7.25101197,15.6396776 6.14504954,14.5160892 C6.02663099,14.3954866 5.86491145,14.3294547 5.69827001,14.3294547 C5.66041826,14.3294547 5.62198058,14.3331199 5.58412883,14.3397522 C5.37963564,14.3773351 5.20690042,14.5142857 5.12451721,14.7039454 C4.28099747,16.6462123 2.29735497,17.1765032 1.2664515,17.321366 C1.46174542,13.4325271 3.31542634,12.3932384 3.41064165,12.3429146 C3.61630672,12.2380781 3.74328,12.0265435 3.74632689,11.7969156 C3.74937378,11.5647861 3.61812314,11.3484809 3.41122759,11.2393975 C3.3276139,11.1951823 1.46297589,10.1631076 1.2664515,6.26397131 C2.29671043,6.41366287 4.28767719,6.95180779 5.12451721,8.87772667 C5.20690042,9.06738639 5.37963564,9.20439518 5.58412883,9.24191988 C5.79043843,9.28008454 5.99979492,9.21341275 6.14504954,9.06558288 C7.25101197,7.94199446 13.2227403,4.96462766 16.8750824,4.96462766 C21.8098135,4.96462766 26.0841313,7.4474829 28.6549446,11.790807 C26.0841313,16.1341892 21.8098135,18.6170444 16.8750824,18.6170444 Z" id="Shape"></path>
                    <path d="M18.5105401,11.808068 C18.5105401,9.03386898 19.6692789,7.33469114 19.6811266,7.31762193 C19.8743395,7.0397103 19.7933205,6.66644846 19.5003598,6.48275662 C19.207399,6.3002517 18.8122371,6.37502842 18.6177676,6.65056618 C18.5610423,6.73065583 17.2340426,8.64760742 17.2340426,11.808068 C17.2340426,14.9685286 18.5610423,16.8854802 18.6177676,16.9655699 C18.7405526,17.1398228 18.9431599,17.2340426 19.1494172,17.2340426 C19.2709456,17.2340426 19.3937307,17.2010911 19.5028131,17.1327577 C19.7963722,16.9478789 19.8755362,16.5740519 19.6798102,16.2967055 C19.6680224,16.2803145 18.5105401,14.6076448 18.5105401,11.808068 Z" id="Shape"></path>
                    <path d="M17.5864373,6.48201275 C17.2927524,6.30086846 16.8986183,6.37508769 16.7034669,6.64857125 C16.6467174,6.72800771 15.3191489,8.63072401 15.3191489,11.7675664 C15.3191489,13.4429688 15.7044832,14.7595047 16.0281592,15.5688477 C16.1241785,15.8090083 16.3673994,15.9574468 16.6261845,15.9574468 C16.7004139,15.9574468 16.7764392,15.9451611 16.8500699,15.9194677 C17.1805702,15.803735 17.347706,15.4590055 17.2242099,15.1492818 C16.9380078,14.4322781 16.5962534,13.2635075 16.5962534,11.7675664 C16.5962534,9.01404979 17.7554887,7.32753977 17.7673415,7.31059782 C17.9605773,7.03481419 17.8795236,6.66433512 17.5864373,6.48201275 Z" id="Shape"></path>
                    <circle id="Oval" cx="22.3404255" cy="10.212766" r="1.27659574"></circle>
                </g>
            </g>
        </g>
    </g>
</svg>