<?xml version="1.0" encoding="UTF-8" standalone="no"?>
<svg width="31px" height="26px" viewBox="0 0 31 26" version="1.1" xmlns="http://www.w3.org/2000/svg" xmlns:xlink="http://www.w3.org/1999/xlink">
    <!-- Generator: Sketch 49 (51002) - http://www.bohemiancoding.com/sketch -->
    <title>Shape</title>
    <desc>Created with Sketch.</desc>
    <defs></defs>
    <g id="Page-1" stroke="none" stroke-width="1" fill="none" fill-rule="evenodd">
        <g id="SHIP-LOW-Copy-2" transform="translate(-312.000000, -367.000000)" fill="#251533" fill-rule="nonzero">
            <g id="Nav-" transform="translate(312.000000, 258.000000)">
                <path d="M28.416591,112.875053 L21.9583106,112.875053 L21.9583106,111.583348 C21.9583106,110.158623 20.7997484,109 19.3749622,109 L11.6249773,109 C10.2002516,109 9.04162882,110.158562 9.04162882,111.583348 L9.04162882,112.874992 L2.58334847,112.874992 C1.15856219,112.875053 0,114.033615 0,115.458341 L0,132.249955 C0,133.67468 1.15856219,134.833303 2.58334847,134.833303 L28.4166515,134.833303 C29.8413773,134.833303 31,133.674741 31,132.249955 L31,115.458341 C30.9999395,114.033615 29.8413773,112.875053 28.416591,112.875053 Z M10.3333333,111.583348 C10.3333333,110.871319 10.9129474,110.291705 11.6249773,110.291705 L19.3749622,110.291705 C20.086992,110.291705 20.6666061,110.871319 20.6666061,111.583348 L20.6666061,112.874992 L10.3333333,112.874992 L10.3333333,111.583348 Z M29.7082955,132.250015 C29.7082955,132.962045 29.1286814,133.541659 28.4166515,133.541659 L2.58334847,133.541659 C1.87131861,133.541659 1.29170451,132.962045 1.29170451,132.250015 L1.29170451,122.849102 C1.67320962,123.071551 2.11072049,123.208386 2.58334847,123.208386 L12.9166818,123.208386 L12.9166818,125.145883 C12.9166818,125.502866 13.2055504,125.791735 13.5625341,125.791735 L17.4375265,125.791735 C17.7945102,125.791735 18.0833787,125.502866 18.0833787,125.145883 L18.0833787,123.208386 L28.4167121,123.208386 C28.8893401,123.208386 29.3269115,123.071611 29.708356,122.849102 L29.708356,132.250015 L29.7082955,132.250015 Z M14.2083258,124.50003 L14.2083258,121.916682 L16.7916742,121.916682 L16.7916742,124.50003 L14.2083258,124.50003 Z M29.7082955,120.625038 C29.7082955,121.337068 29.1286814,121.916682 28.4166515,121.916682 L18.0833182,121.916682 L18.0833182,121.27083 C18.0833182,120.913846 17.7944496,120.624977 17.4374659,120.624977 L13.5624735,120.624977 C13.2054898,120.624977 12.9166213,120.913846 12.9166213,121.27083 L12.9166213,121.916682 L2.58334847,121.916682 C1.87131861,121.916682 1.29170451,121.337068 1.29170451,120.625038 L1.29170451,115.458401 C1.29170451,114.746372 1.87131861,114.166757 2.58334847,114.166757 L28.4166515,114.166757 C29.1286814,114.166757 29.7082955,114.746372 29.7082955,115.458401 L29.7082955,120.625038 Z" id="Shape"></path>
            </g>
        </g>
    </g>
</svg>