<?xml version="1.0" encoding="UTF-8"?>
<svg width="512px" height="512px" viewBox="0 0 512 512" version="1.1" xmlns="http://www.w3.org/2000/svg" xmlns:xlink="http://www.w3.org/1999/xlink">
    <!-- Generator: Sketch 49 (51002) - http://www.bohemiancoding.com/sketch -->
    <title>family</title>
    <desc>Created with Sketch.</desc>
    <defs></defs>
    <g id="Page-1" stroke="none" stroke-width="1" fill="none" fill-rule="evenodd" opacity="0.2">
        <g id="family" fill-rule="nonzero">
            <path d="M331.028,246.986 L285.892,246.986 C279.059,246.986 273.469,241.396 273.469,234.563 L267.258,129.298 C267.258,129.298 257.207,42.104 309.34,30.646 C309.34,30.646 330.537,-10.602 398.423,2.613 C399.351,2.794 400.243,3.127 401.144,3.406 C416.783,8.257 431.322,16.84 443.41,28.866 C480.38,65.654 472.946,109.118 473.873,114.524 C473.873,144.721 474.35,111.157 467.662,234.564 C467.662,241.397 462.072,246.987 455.239,246.987 L407.22,246.987" id="Shape" fill="#7F7369"></path>
            <path d="M338.876,246.986 L338.876,232.214 C310.973,219.884 293.577,193.498 292.111,164.572 C292.101,164.38 292.071,163.771 292.067,163.657 C292.027,162.634 292.001,161.609 292.001,160.576 C292.015,114.1 291.973,116.921 292.036,116.157 C291.57,91.352 295.408,39.315 334.861,30.644 C334.861,30.644 347.851,5.373 386.054,0.73 C356.945,-2.469 322.8,6.18 309.339,30.644 C274.16,38.376 265.697,81.211 266.531,117.024 C266.543,117.523 266.556,118.01 266.571,118.484 C266.777,125.123 267.258,129.296 267.258,129.296 L273.469,234.561 C273.469,241.394 279.059,246.984 285.892,246.984 C296.825,246.986 326.928,246.986 338.876,246.986 Z" id="Shape" fill="#72655A"></path>
            <path d="M228.256,477.26 L241.61,357.931 C246.29,321.899 244.371,308.056 255.998,293.948 C252.407,289.582 247.281,285.51 243.901,283.446 L243.529,283.354 C230.957,275.823 220.372,275.508 197.01,269.08 L173.12,257.645 L173.12,229.108 C153.105,237.958 130.09,237.649 110.823,229.271 L110.72,257.763 L86.932,269.081 C63.72,275.468 53.01,275.809 40.413,283.355 L40.041,283.447 C38.981,284.094 37.861,284.874 36.757,285.748 C18.756,298.671 18.471,315.459 16.92,327.865 L9.771,391.752 C-0.298,483.183 0.007,475.828 0.007,482.876 C-0.151,494.48 6.968,511.999 28.595,511.999 C30.601,511.999 254.29,512.01 255.998,511.982 C236.624,511.658 226.559,496.88 228.256,477.26 Z" id="Shape" fill="#DD9A5E"></path>
            <g id="Group" transform="translate(0.000000, 229.000000)" fill="#D38D54">
                <path d="M25.763,253.84 C25.589,243.759 27.697,243.868 43.49,80.265 C45.141,66.731 49.244,55.674 61.05,46.524 C59.262,47.091 50.226,48.476 40.413,54.355 L40.041,54.447 C38.909,55.138 37.784,55.935 36.757,56.748 C18.756,69.671 18.471,86.459 16.92,98.865 C16.791,99.996 0.006,248.931 0.006,253.876 C-0.152,265.48 6.967,282.999 28.594,282.999 L54.35,282.999 C35.8,282.999 25.437,269.045 25.763,253.84 Z" id="Shape"></path>
                <path d="M136.481,53.131 L136.481,6.459 C127.206,5.836 118.525,3.619 110.822,0.271 L110.719,28.763 L136.481,53.131 Z" id="Shape"></path>
            </g>
            <path d="M511.794,477.26 C493.603,316.17 494.628,320.716 492.999,312.842 C490.356,300.061 482.651,289.978 471.955,283.446 L471.584,283.354 C467.032,280.627 461.957,278.478 456.508,276.908 L404.059,263.851 C402.354,263.079 401.174,260.54 401.174,257.645 L401.174,232.347 C381.406,240.968 358.367,240.831 338.877,232.215 L338.877,257.646 C338.877,260.541 337.697,263.08 335.992,263.852 C291.623,275.672 281.755,275.396 268.467,283.355 L268.096,283.447 C253.418,292.411 247.745,304.56 245.789,320.598 L228.257,477.26 C226.5,497.57 237.267,511.999 256.65,511.999 C287.495,511.999 458.748,511.999 483.402,511.999 C505.029,511.999 512.148,494.48 511.99,482.876 C511.99,482.864 511.99,482.852 511.99,482.84 C512.025,480.739 511.929,478.831 511.794,477.26 Z" id="Shape" fill="#EAB883"></path>
            <path d="M253.817,482.876 C253.817,482.864 253.817,482.852 253.817,482.84 C253.781,480.739 253.876,478.831 254.012,477.26 L271.544,311.326 C273.418,295.958 278.653,283.817 293.413,274.451 C289.08,275.763 279.202,276.924 268.467,283.354 L268.096,283.446 C253.418,292.41 247.744,304.56 245.789,320.597 L228.257,477.259 C226.501,497.569 237.267,511.998 256.65,511.998 C272.593,511.998 266.461,511.998 282.406,511.998 C260.777,511.999 253.659,494.48 253.817,482.876 Z" id="Shape" fill="#D8A373"></path>
            <path d="M502.222,391.732 C493.955,318.346 494.312,319.197 492.999,312.841 C490.341,299.988 482.551,289.914 471.955,283.445 C471.85,283.419 471.478,283.327 471.584,283.353 C467.032,280.626 461.957,278.477 456.508,276.907 L404.059,263.85 C402.354,263.078 401.174,260.539 401.174,257.644 L401.174,232.346 L401.174,232.214 C381.246,241.018 358.323,240.806 338.877,232.214 L338.877,232.346 L338.877,257.644 C338.877,260.539 337.697,263.078 335.992,263.85 C291.623,275.67 281.755,275.393 268.467,283.353 C268.362,283.379 267.99,283.471 268.096,283.445 C253.55,292.325 247.742,304.583 245.789,320.596 L237.828,391.731 L288.006,396.996 C290.674,397.276 292.658,399.593 292.523,402.273 L287.011,511.998 C348.432,511.998 391.946,511.998 453.341,511.998 L447.563,402.698 C447.409,399.783 449.565,397.257 452.469,396.952 L502.222,391.732 Z" id="Shape" fill="#D83D3D"></path>
            <path d="M237.827,391.732 L262.772,394.349 L271.544,311.325 C273.417,295.96 278.651,283.817 293.413,274.45 C287.176,276.122 278.098,277.584 268.467,283.354 C268.362,283.38 267.99,283.472 268.096,283.446 C257.361,289.999 249.685,300.108 247.052,312.842 C245.435,320.65 245.741,322.354 237.827,391.732 Z" id="Shape" fill="#A82626"></path>
            <path d="M243.714,283.446 C243.609,283.42 243.237,283.328 243.342,283.354 C230.742,275.806 219.988,275.452 196.986,269.121 L197.008,269.08 L173.118,257.645 L172.945,257.906 C172.944,257.874 172.942,257.843 172.94,257.812 L141.783,287.147 L110.717,257.763 L86.929,269.081 C63.716,275.468 53.007,275.809 40.41,283.355 L40.038,283.447 C25.359,292.41 19.687,304.564 17.731,320.598 L9.768,391.752 L58.986,396.916 C62.089,397.242 64.396,399.937 64.24,403.053 L58.77,511.999 C109.338,511.999 171.475,511.999 225.1,511.999 L219.322,402.712 C219.167,399.789 221.329,397.257 224.241,396.951 L237.397,395.571 C247.043,315.548 244.222,308.365 255.908,294.062 C253.345,290.923 246.51,285.153 243.714,283.446 Z" id="Shape" fill="#70BBEF"></path>
            <path d="M43.49,309.265 C45.141,295.731 49.244,284.674 61.05,275.524 C58.711,276.188 49.918,277.661 40.413,283.355 L40.041,283.447 C36.558,285.574 31.372,289.746 27.848,294.061 C15.378,309.327 18.769,321.366 9.771,391.753 L35.228,394.424 C35.152,395.234 36.249,384.271 43.49,309.265 Z" id="Shape" fill="#4CAEE5"></path>
            <path d="M425.063,269.08 L404.058,263.851 C402.353,263.079 401.173,260.54 401.173,257.645 L401.173,229.256 L401.173,229.124 C381.079,238.002 358.128,237.63 338.876,229.124 L338.876,229.256 L338.876,257.645 C338.876,260.54 337.696,263.079 335.991,263.851 L314.67,269.159 C340.295,312.257 399.458,312.274 425.063,269.08 Z" id="Shape" fill="#EAB883"></path>
            <path d="M44.139,124.499 L44.139,97.645 C44.139,18.601 133.499,-27.131 197.61,17.531 C247.898,52.642 238.32,104.274 239.426,124.499" id="SVGCleanerId_0" fill="#4C4846"></path>
            <path d="M44.139,124.499 L44.139,97.645 C44.139,18.601 133.499,-27.131 197.61,17.531 C247.898,52.642 238.32,104.274 239.426,124.499" id="SVGCleanerId_0_1_" fill="#4C4846"></path>
            <path d="M151.518,0.488 C94.732,-5.15 44.139,39.248 44.139,97.645 L44.139,124.499 L63.61,124.499 L63.61,97.645 C63.61,47.445 101.727,5.435 151.518,0.488 Z" id="Shape" fill="#3F3B39"></path>
            <g id="Group" transform="translate(39.000000, 112.000000)" fill="#DD9A5E">
                <path d="M205.286,21.231 C205.286,32.484 194.393,41.605 180.956,41.605 L180.956,0.858 C194.393,0.858 205.286,9.979 205.286,21.231 Z" id="Shape"></path>
                <path d="M0.279,21.231 C0.279,32.484 11.172,41.605 24.61,41.605 L24.61,0.858 C11.172,0.858 0.279,9.979 0.279,21.231 Z" id="Shape"></path>
            </g>
            <g id="Group" transform="translate(39.000000, 124.000000)" fill="#D38D54">
                <path d="M180.956,11.292 L180.956,29.605 C194.393,29.605 205.286,20.484 205.286,9.231 C205.286,5.937 204.347,2.828 202.689,0.075 C198.684,6.727 190.459,11.292 180.956,11.292 Z" id="Shape"></path>
                <path d="M2.876,0.075 C-5.197,13.483 6.385,29.605 24.61,29.605 L24.61,11.292 C15.106,11.292 6.881,6.727 2.876,0.075 Z" id="Shape"></path>
            </g>
            <path d="M201.945,84.55 C201.661,76.742 195.231,72.464 189.028,73.43 C187.578,73.655 185.977,73.89 184.951,74.035 C154.131,78.41 124.832,78.134 94.541,73.43 C88.385,72.471 81.904,76.68 81.624,84.551 C81.201,96.151 76.379,104.776 69.032,110.148 C65.971,112.388 63.713,113.154 63.61,113.211 C63.61,163.813 63.006,167.195 65.717,178.658 C68.313,189.602 73.113,199.385 79.392,207.685 C115.765,255.788 191.918,246.397 214.498,189.338 C221.972,170.457 219.958,156.123 219.958,113.211 C219.666,112.993 202.753,106.995 201.945,84.55 Z" id="Shape" fill="#EDAE6B"></path>
            <path d="M92.275,191.573 C86.755,171.897 89.818,159.878 88.955,122.584 C88.955,118.744 90.883,115.481 93.236,113.813 C102.517,107.211 106.73,96.416 106.993,84.893 C107.084,81.016 108.9,77.688 111.58,75.601 C107.86,75.229 104.249,74.8 100.912,74.352 C98.97,74.092 96.753,73.774 94.541,73.43 C88.402,72.474 81.906,76.668 81.624,84.551 C81.2,96.131 76.387,104.77 69.032,110.148 C65.97,112.389 63.713,113.154 63.61,113.211 C63.61,164.122 63.58,161.492 63.683,163.998 C65.262,199.715 90.75,228.762 122.562,236.351 C121.082,235.246 98.479,213.713 92.275,191.573 Z" id="Shape" fill="#DD9A5E"></path>
            <path d="M149.511,343.295 L149.511,279.872 L141.784,287.147 L134.057,279.838 L134.057,343.295 C134.057,347.563 137.516,351.022 141.784,351.022 C146.052,351.022 149.511,347.563 149.511,343.295 Z" id="Shape" fill="#4CAEE5"></path>
            <path d="M173.119,257.645 L141.784,287.147 L158.699,304.193 C161.929,307.448 167.282,307.131 170.106,303.517 L197.009,269.08 L173.119,257.645 Z" id="Shape" fill="#DADADA"></path>
            <g id="Group" transform="translate(141.000000, 257.000000)" fill="#CECCCA">
                <polygon id="Shape" points="44.149 6.403 32.119 0.645 0.784 30.147 11.978 41.427"></polygon>
                <path d="M20,48.775 C21.415,49.407 22.974,49.587 24.467,49.317 L20,48.775 Z" id="Shape"></path>
            </g>
            <path d="M110.719,257.763 L141.785,287.147 L124.87,304.193 C121.64,307.448 116.287,307.131 113.463,303.517 L86.56,269.08 L110.719,257.763 Z" id="Shape" fill="#DADADA"></path>
            <polygon id="Shape" fill="#CECCCA" points="119.884 287.033 130.591 298.427 141.784 287.147 110.719 257.763 97.983 263.729"></polygon>
            <path d="M364.762,273.386 L364.762,235.451 C355.521,234.818 346.757,232.605 338.876,229.123 C338.093,251.649 340.917,261.619 335.991,263.851 L314.67,269.159 C319.978,278.086 327.154,285.633 335.614,291.186 L357.749,283.047 C357.751,283.046 364.762,279.566 364.762,273.386 Z" id="Shape" fill="#D8A373"></path>
            <path d="M440.485,135.004 C444.884,135.21 448.35,138.831 448.35,143.235 L448.35,149.146 C448.329,159.643 449.06,169.836 445.03,183.19 C440.971,196.651 433.323,209.018 421.829,219.243 C373.335,262.429 295.412,229.828 292.111,164.572 C292.096,164.277 292.107,164.656 292.067,163.657 C292.027,162.634 292.001,161.609 292.001,160.576 C292.001,151.266 292.001,130.018 292.001,120.922 L292.001,116.962 C292.001,112.362 295.242,108.429 299.742,107.477 C307.726,105.789 320.627,101.202 332.33,88.746 C335.271,85.616 340.288,85.779 343.022,89.091 C354.378,102.851 385.043,132.413 440.485,135.004 Z" id="Shape" fill="#F7CF9C"></path>
            <path d="M325.843,195.243 C315.52,174.383 317.917,159.596 317.757,130.602 C317.757,120.54 317.757,110.505 317.757,100.425 C310.879,104.46 304.453,106.482 299.742,107.478 C295.241,108.43 292.001,112.363 292.001,116.963 C292.001,127.045 292.001,149.436 292.001,160.576 C292.001,161.868 292.069,163.88 292.074,163.999 C292.078,164.103 292.184,165.905 292.256,166.812 C295.863,212.7 338.172,245.109 383.053,237.672 C358.38,233.583 337.053,217.823 325.843,195.243 Z" id="Shape" fill="#EAB883"></path>
            <g id="Group" transform="translate(299.000000, 269.000000)" fill="#B72C2C">
                <path d="M141.133,3.832 L126.063,0.081 C114.523,19.549 94.113,32.497 70.843,32.497 C70.843,32.496 141.445,103.106 141.133,3.832 Z" id="Shape"></path>
                <path d="M0.885,3.832 L15.955,0.081 C27.495,19.549 47.905,32.497 71.175,32.497 C71.175,32.496 0.573,103.106 0.885,3.832 Z" id="Shape"></path>
            </g>
            <g id="Group" transform="translate(300.000000, 289.000000)" fill="#A82626">
                <path d="M36.591,2.609 C24.134,9.241 9.779,12.406 0.585,0.106 C7.9,74.775 70.175,12.496 70.175,12.496 C57.888,12.496 46.399,8.883 36.591,2.609 Z" id="Shape"></path>
                <path d="M103.427,2.609 C115.884,9.241 130.239,12.406 139.433,0.106 C132.118,74.775 69.843,12.496 69.843,12.496 C82.131,12.496 93.619,8.883 103.427,2.609 Z" id="Shape"></path>
            </g>
            <path d="M309.413,277.28 C279.798,239.946 222.606,243.997 198.007,283.792 C183.612,307.048 189.043,328.237 187.85,334.72 L324.145,334.72 C323.713,321.406 327.384,299.915 309.413,277.28 Z" id="Shape" fill="#996123"></path>
            <path d="M206.339,303.841 C206.644,302.55 207.364,299.998 207.396,299.891 C214.992,274.698 236.964,255.317 264.323,251.982 C237.238,248.681 211.681,261.656 198.006,283.792 C183.611,307.048 189.043,328.233 187.849,334.72 L204.501,334.72 C204.52,320.503 203.973,313.871 206.339,303.841 Z" id="Shape" fill="#8E551C"></path>
            <path d="M344.433,391.76 C338.446,373.185 330.683,361.59 324.765,355.544 C321.349,358.91 316.612,361.303 311.222,362.162 C321.108,376.417 318.942,390.644 318.449,399.109 C318.224,402.971 321.7,406.003 325.487,405.217 L338.105,402.6 C343.014,401.582 345.971,396.53 344.433,391.76 Z" id="Shape" fill="#996123"></path>
            <path d="M331.406,343.792 C331.406,354.703 320.845,363.545 307.817,363.545 L307.817,324.041 C320.845,324.041 331.406,332.883 331.406,343.792 Z" id="Shape" fill="#EFD0A3"></path>
            <path d="M167.561,391.76 C173.548,373.185 181.311,361.59 187.229,355.544 C190.645,358.91 195.382,361.303 200.772,362.162 C190.886,376.417 193.052,390.644 193.545,399.109 C193.77,402.971 190.294,406.003 186.506,405.217 L173.888,402.6 C168.981,401.582 166.024,396.53 167.561,391.76 Z" id="Shape" fill="#8E551C"></path>
            <path d="M180.589,343.792 C180.589,354.703 191.15,363.545 204.178,363.545 L204.178,324.041 C191.15,324.041 180.589,332.883 180.589,343.792 Z" id="Shape" fill="#EFD0A3"></path>
            <g id="Group" transform="translate(180.000000, 335.000000)" fill="#E2BF91">
                <path d="M127.816,11.626 L127.816,28.546 C145.297,28.546 156.475,13.278 149.135,0.333 C145.351,7.009 137.229,11.626 127.816,11.626 Z" id="Shape"></path>
                <path d="M2.859,0.333 C-4.494,13.301 6.746,28.546 24.178,28.546 L24.178,11.626 C14.766,11.626 6.644,7.009 2.859,0.333 Z" id="Shape"></path>
            </g>
            <path d="M343.624,511.999 L338.25,463.974 C337.024,453.917 333.487,445.47 323.463,439.348 L323.217,439.287 C314.445,434.032 308.08,434.251 278.457,426.359 C275.182,424.876 277.083,418.522 276.545,402.385 C263.31,408.177 247.99,407.936 235.251,402.297 C234.727,418.059 236.627,424.869 233.339,426.359 C203.773,434.236 197.362,434.026 188.58,439.287 L188.334,439.348 C181.268,443.664 176.142,450.333 174.385,458.833 C173.337,463.901 173.611,464.312 168.173,511.999 L343.624,511.999 Z" id="Shape" fill="#EFD0A3"></path>
            <path d="M168.171,511.999 C210.719,511.999 301.048,511.999 343.623,511.999 L338.249,463.974 C337.025,453.929 333.473,445.46 323.462,439.348 L323.216,439.287 C314.519,434.077 307.508,434.064 284.024,427.745 C284.024,427.966 284.024,434.065 284.024,433.959 C284.024,438.411 282.978,442.651 281.125,446.388 C280.819,447.007 280.322,447.922 279.847,448.688 C279.825,448.723 279.518,449.207 279.495,449.242 C279.004,449.995 278.479,450.719 277.965,451.366 C277.722,451.672 277.393,452.068 277.134,452.36 C277.092,452.407 277.051,452.454 277.009,452.501 C276.844,452.69 276.677,452.876 276.506,453.06 C276.488,453.079 276.469,453.099 276.451,453.119 C276.447,453.123 276.444,453.126 276.441,453.13 C276.415,453.158 276.389,453.185 276.363,453.213 C276.165,453.422 275.963,453.626 275.759,453.828 C275.692,453.895 275.626,453.964 275.559,454.03 C275.295,454.287 275.026,454.539 274.753,454.786 C274.675,454.856 274.594,454.923 274.516,454.993 C274.345,455.146 274.167,455.291 273.994,455.442 C273.967,455.466 273.94,455.489 273.913,455.512 C273.808,455.599 273.701,455.684 273.594,455.77 C273.411,455.917 273.228,456.064 273.042,456.206 C272.925,456.296 272.806,456.384 272.687,456.473 C272.505,456.608 272.322,456.741 272.137,456.872 C272.046,456.936 271.954,457 271.862,457.063 C271.831,457.084 271.801,457.106 271.77,457.127 C271.579,457.257 271.385,457.385 271.19,457.511 C271.16,457.53 271.131,457.549 271.101,457.568 C271.012,457.626 270.923,457.684 270.833,457.74 C270.668,457.843 270.501,457.942 270.333,458.041 C270.277,458.074 270.222,458.109 270.166,458.141 C270.142,458.155 270.117,458.17 270.093,458.184 C270.02,458.228 269.948,458.272 269.874,458.314 C269.552,458.498 269.226,458.676 268.896,458.847 C268.851,458.87 268.806,458.892 268.76,458.914 C268.745,458.921 268.73,458.929 268.715,458.937 C268.66,458.965 268.605,458.991 268.55,459.018 C268.331,459.128 268.112,459.238 267.89,459.343 C267.77,459.399 267.649,459.452 267.529,459.506 C267.307,459.606 267.084,459.705 266.859,459.8 C266.723,459.857 266.586,459.912 266.449,459.967 C266.234,460.054 266.018,460.138 265.801,460.219 C265.66,460.272 265.518,460.324 265.376,460.374 C265.155,460.453 264.932,460.528 264.708,460.601 C264.597,460.637 264.486,460.673 264.375,460.709 C264.347,460.718 264.32,460.727 264.292,460.736 C264.23,460.755 264.166,460.772 264.104,460.791 C263.921,460.846 263.738,460.9 263.554,460.951 C263.464,460.976 263.375,461.002 263.284,461.027 C263.254,461.035 263.224,461.044 263.194,461.052 C262.826,461.15 262.455,461.241 262.081,461.324 C262.026,461.336 261.97,461.347 261.915,461.359 C261.749,461.395 261.584,461.43 261.417,461.463 C260.973,461.55 260.525,461.626 260.073,461.692 C259.17,461.824 258.253,461.912 257.324,461.955 C257.213,461.961 257.103,461.963 256.993,461.966 C256.934,461.968 256.874,461.97 256.814,461.972 C256.652,461.977 256.491,461.98 256.33,461.982 C256.285,461.982 256.24,461.982 256.196,461.983 C256.185,461.983 256.174,461.983 256.163,461.983 C256.107,461.983 256.051,461.984 255.995,461.984 C255.939,461.984 255.883,461.983 255.827,461.983 C255.816,461.983 255.805,461.983 255.793,461.983 C255.748,461.983 255.704,461.983 255.659,461.982 C255.498,461.98 255.337,461.977 255.175,461.972 C255.115,461.97 255.056,461.968 254.996,461.966 C254.886,461.962 254.775,461.96 254.665,461.955 C253.736,461.912 252.819,461.823 251.916,461.692 C251.464,461.626 251.016,461.55 250.572,461.463 C250.405,461.43 250.24,461.395 250.074,461.359 C250.019,461.347 249.963,461.337 249.908,461.324 C249.534,461.241 249.163,461.149 248.795,461.052 C248.765,461.044 248.735,461.035 248.705,461.027 C248.615,461.002 248.525,460.976 248.435,460.951 C248.253,460.9 248.072,460.847 247.891,460.793 C247.827,460.773 247.761,460.756 247.697,460.736 C247.669,460.727 247.642,460.718 247.614,460.709 C247.503,460.674 247.392,460.638 247.281,460.601 C247.057,460.528 246.835,460.453 246.613,460.374 C246.471,460.324 246.329,460.272 246.188,460.219 C245.971,460.138 245.754,460.054 245.54,459.967 C245.403,459.912 245.266,459.857 245.13,459.8 C244.905,459.705 244.682,459.606 244.46,459.506 C244.34,459.452 244.218,459.399 244.099,459.343 C243.877,459.239 243.658,459.129 243.439,459.018 C243.384,458.991 243.329,458.965 243.274,458.937 C243.259,458.929 243.244,458.922 243.229,458.914 C243.184,458.892 243.138,458.87 243.093,458.847 C242.763,458.676 242.437,458.498 242.115,458.314 C242.042,458.272 241.969,458.228 241.896,458.184 C241.872,458.17 241.847,458.155 241.823,458.141 C241.767,458.108 241.712,458.074 241.657,458.041 C241.489,457.942 241.322,457.843 241.157,457.74 C241.067,457.684 240.978,457.626 240.889,457.568 C240.859,457.549 240.829,457.53 240.8,457.511 C235.199,453.89 231.068,448.41 229.156,442.068 C227.446,436.399 228.116,432.361 227.966,427.697 L222.016,429.178 C203.352,434.272 196.906,434.297 188.574,439.288 L188.328,439.349 C181.352,443.61 176.146,450.292 174.379,458.834 C173.333,463.889 173.541,464.877 168.171,511.999 Z" id="Shape" fill="#F9B938"></path>
            <g id="Group" transform="translate(168.000000, 431.000000)" fill="#EAA224">
                <path d="M19.435,50.72 C21.583,31.348 20.074,15.094 36.372,4.631 L36.618,4.567 C38.425,3.429 40.37,2.453 42.405,1.604 C42.778,1.31 43.14,1.041 43.488,0.798 C35.243,3.153 28.398,3.602 20.579,8.286 L20.333,8.347 C13.213,12.695 8.092,19.402 6.345,28.043 C5.313,33.124 5.548,33.828 0.172,80.998 L16.212,80.998 L19.435,50.72 Z" id="Shape"></path>
                <path d="M45.239,80.999 L45.957,58.639 C46.094,54.373 42.748,50.805 38.482,50.668 C34.216,50.501 30.648,53.876 30.511,58.142 L29.777,80.999 L45.239,80.999 Z" id="Shape"></path>
                <path d="M146.217,80.999 L145.483,58.142 C145.346,53.878 141.811,50.514 137.512,50.668 C133.247,50.805 129.9,54.373 130.037,58.639 L130.755,80.999 L146.217,80.999 Z" id="Shape"></path>
            </g>
            <path d="M249.593,442.624 C249.722,442.433 255.635,440.683 255.909,433.194 L255.909,406.626 C248.376,406.587 241.4,405.02 235.251,402.298 C234.727,418.065 236.627,424.87 233.339,426.36 L227.971,427.696 C228.121,432.352 227.451,436.387 229.161,442.067 C229.89,444.483 231.04,446.94 232.175,448.73 L249.593,442.624 Z" id="Shape" fill="#E2BF91"></path>
            <path d="M252.427,306.842 C240.798,326.186 216.112,323.21 207.347,321.439 C205.707,321.108 204.179,322.368 204.179,324.041 C204.179,355.517 203.218,362.438 206.38,372.893 C212.795,394.165 232.434,409.459 255.378,409.714 C283.975,410.071 307.817,387.049 307.817,357.904 C307.817,344.728 307.817,335.45 307.817,324.042 C307.817,322.369 306.288,321.109 304.649,321.44 C295.884,323.211 271.198,326.186 259.569,306.843 C257.947,304.146 254.048,304.146 252.427,306.842 Z" id="Shape" fill="#FCE3BB"></path>
            <path d="M230.699,366.819 C229.347,359.019 230.215,356.007 229.935,321.85 C220.816,323.606 211.917,322.362 207.347,321.439 C205.707,321.108 204.179,322.368 204.179,324.041 C204.179,355.995 203.237,362.499 206.38,372.893 C214.183,398.769 241.318,415.188 268.876,408.099 C249.301,403.067 234.207,387.001 230.699,366.819 Z" id="Shape" fill="#EFD0A3"></path>
        </g>
    </g>
</svg>