<?xml version="1.0" encoding="UTF-8"?>
<svg width="480px" height="480px" viewBox="0 0 480 480" version="1.1" xmlns="http://www.w3.org/2000/svg" xmlns:xlink="http://www.w3.org/1999/xlink">
    <!-- Generator: Sketch 49 (51002) - http://www.bohemiancoding.com/sketch -->
    <title>jupiter</title>
    <desc>Created with Sketch.</desc>
    <defs></defs>
    <g id="Page-1" stroke="none" stroke-width="1" fill="none" fill-rule="evenodd" opacity="0.2">
        <g id="jupiter" fill-rule="nonzero">
            <path d="M412.665,73.326 C413.455,74.144 414.238,74.969 415.016,75.799 C414.238,74.969 413.455,74.144 412.665,73.326 Z" id="Shape" fill="#FFD042"></path>
            <path d="M423.028,84.774 C424.48,86.484 425.909,88.216 427.313,89.967 C425.909,88.216 424.48,86.485 423.028,84.774 Z" id="Shape" fill="#FFD042"></path>
            <path d="M415.641,76.469 C417.126,78.063 418.591,79.677 420.032,81.312 C418.59,79.677 417.126,78.063 415.641,76.469 Z" id="Shape" fill="#FFD042"></path>
            <path d="M382.135,46.614 C382.89,47.17 383.644,47.726 384.392,48.29 C383.643,47.725 382.889,47.169 382.135,46.614 Z" id="Shape" fill="#FFD042"></path>
            <path d="M404.606,65.36 C405.401,66.11 406.189,66.867 406.974,67.627 C406.189,66.867 405.401,66.11 404.606,65.36 Z" id="Shape" fill="#FFD042"></path>
            <path d="M386.124,49.618 C387.322,50.539 388.513,51.47 389.693,52.413 C388.513,51.47 387.322,50.539 386.124,49.618 Z" id="Shape" fill="#FFD042"></path>
            <path d="M427.638,90.371 C428.387,91.309 429.13,92.253 429.866,93.203 C429.13,92.253 428.387,91.309 427.638,90.371 Z" id="Shape" fill="#FFD042"></path>
            <path d="M391.07,53.522 C392.75,54.885 394.414,56.267 396.055,57.673 C394.413,56.267 392.75,54.885 391.07,53.522 Z" id="Shape" fill="#FFD042"></path>
            <path d="M399.639,60.812 C401.215,62.218 402.774,63.642 404.313,65.088 C402.775,63.641 401.216,62.217 399.639,60.812 Z" id="Shape" fill="#FFD042"></path>
            <path d="M396.176,57.775 C396.966,58.453 397.749,59.139 398.531,59.827 C397.749,59.139 396.966,58.453 396.176,57.775 Z" id="Shape" fill="#FFD042"></path>
            <path d="M420.349,81.668 C421.123,82.549 421.89,83.435 422.651,84.327 C421.889,83.436 421.123,82.549 420.349,81.668 Z" id="Shape" fill="#FFD042"></path>
            <path d="M279.759,476.703 C275.956,477.339 272.122,477.881 268.26,478.336 C272.122,477.882 275.956,477.337 279.759,476.703 Z" id="Shape" fill="#FFD042"></path>
            <path d="M265.323,478.671 C264.468,478.761 263.609,478.838 262.752,478.919 C263.609,478.839 264.468,478.761 265.323,478.671 Z" id="Shape" fill="#FFD042"></path>
            <path d="M285.145,475.741 C283.854,475.987 282.562,476.227 281.264,476.453 C282.562,476.229 283.854,475.987 285.145,475.741 Z" id="Shape" fill="#FFD042"></path>
            <path d="M259.597,479.199 C258.777,479.265 257.956,479.326 257.134,479.384 C257.956,479.326 258.777,479.266 259.597,479.199 Z" id="Shape" fill="#FFD042"></path>
            <path d="M253.764,479.598 C252.997,479.641 252.23,479.685 251.461,479.721 C252.23,479.685 252.997,479.641 253.764,479.598 Z" id="Shape" fill="#FFD042"></path>
            <path d="M290.549,474.649 C289.182,474.943 287.811,475.224 286.435,475.494 C287.811,475.224 289.182,474.942 290.549,474.649 Z" id="Shape" fill="#FFD042"></path>
            <path d="M479.139,219.72 C479.204,220.487 479.274,221.253 479.331,222.023 C479.274,221.253 479.203,220.488 479.139,219.72 Z" id="Shape" fill="#FFD042"></path>
            <path d="M479.646,226.995 C479.679,227.617 479.705,228.24 479.734,228.863 C479.705,228.24 479.679,227.617 479.646,226.995 Z" id="Shape" fill="#FFD042"></path>
            <path d="M479.881,232.748 C479.898,233.324 479.916,233.9 479.93,234.477 C479.917,233.9 479.898,233.324 479.881,232.748 Z" id="Shape" fill="#FFD042"></path>
            <path d="M478.571,213.803 C478.677,214.778 478.779,215.754 478.873,216.733 C478.779,215.754 478.677,214.778 478.571,213.803 Z" id="Shape" fill="#FFD042"></path>
            <path d="M363.255,34.04 C363.95,34.457 364.644,34.875 365.335,35.299 C364.644,34.875 363.95,34.457 363.255,34.04 Z" id="Shape" fill="#FFD042"></path>
            <path d="M299.498,7.438 C299.953,7.554 300.405,7.675 300.858,7.793 C300.405,7.675 299.953,7.554 299.498,7.438 Z" id="Shape" fill="#FFD042"></path>
            <path d="M293.363,5.963 C293.784,6.058 294.206,6.151 294.626,6.249 C294.206,6.152 293.784,6.059 293.363,5.963 Z" id="Shape" fill="#FFD042"></path>
            <path d="M310.779,10.615 C311.283,10.771 311.785,10.93 312.288,11.089 C311.785,10.93 311.283,10.77 310.779,10.615 Z" id="Shape" fill="#FFD042"></path>
            <path d="M287.989,4.803 C288.388,4.884 288.785,4.97 289.183,5.053 C288.784,4.97 288.387,4.884 287.989,4.803 Z" id="Shape" fill="#FFD042"></path>
            <path d="M377.541,43.314 C378.526,44.004 379.505,44.702 380.479,45.407 C379.505,44.702 378.526,44.004 377.541,43.314 Z" id="Shape" fill="#FFD042"></path>
            <path d="M316.042,12.307 C316.464,12.448 316.889,12.585 317.31,12.728 C316.889,12.585 316.464,12.448 316.042,12.307 Z" id="Shape" fill="#FFD042"></path>
            <path d="M264.355,1.223 C264.605,1.248 264.855,1.278 265.105,1.304 C264.855,1.278 264.605,1.248 264.355,1.223 Z" id="Shape" fill="#FFD042"></path>
            <path d="M252.258,0.309 C252.405,0.316 252.551,0.327 252.698,0.334 C252.551,0.327 252.405,0.316 252.258,0.309 Z" id="Shape" fill="#FFD042"></path>
            <path d="M276.268,2.726 C276.602,2.777 276.934,2.832 277.268,2.884 C276.934,2.832 276.602,2.777 276.268,2.726 Z" id="Shape" fill="#FFD042"></path>
            <path d="M281.682,3.616 C282.108,3.691 282.535,3.763 282.96,3.84 C282.535,3.763 282.108,3.69 281.682,3.616 Z" id="Shape" fill="#FFD042"></path>
            <path d="M304.82,8.866 C305.24,8.983 305.662,9.097 306.081,9.217 C305.662,9.097 305.24,8.983 304.82,8.866 Z" id="Shape" fill="#FFD042"></path>
            <path d="M321.817,14.316 C322.367,14.515 322.914,14.719 323.462,14.922 C322.915,14.718 322.367,14.515 321.817,14.316 Z" id="Shape" fill="#FFD042"></path>
            <path d="M348.163,25.71 C348.952,26.109 349.737,26.513 350.52,26.92 C349.736,26.513 348.951,26.109 348.163,25.71 Z" id="Shape" fill="#FFD042"></path>
            <path d="M353.331,28.404 C353.995,28.76 354.657,29.118 355.317,29.481 C354.657,29.118 353.995,28.76 353.331,28.404 Z" id="Shape" fill="#FFD042"></path>
            <path d="M372.861,40.116 C373.586,40.599 374.31,41.083 375.03,41.573 C374.31,41.082 373.586,40.599 372.861,40.116 Z" id="Shape" fill="#FFD042"></path>
            <path d="M368.095,37.022 C369.029,37.613 369.957,38.21 370.882,38.814 C369.957,38.21 369.029,37.612 368.095,37.022 Z" id="Shape" fill="#FFD042"></path>
            <path d="M358.289,31.142 C359.163,31.638 360.032,32.141 360.899,32.647 C360.032,32.141 359.163,31.638 358.289,31.142 Z" id="Shape" fill="#FFD042"></path>
            <path d="M327.023,16.275 C327.445,16.439 327.869,16.598 328.29,16.765 C327.87,16.599 327.445,16.439 327.023,16.275 Z" id="Shape" fill="#FFD042"></path>
            <path d="M343.11,23.228 C343.738,23.527 344.364,23.829 344.989,24.134 C344.364,23.829 343.738,23.527 343.11,23.228 Z" id="Shape" fill="#FFD042"></path>
            <path d="M332.599,18.525 C333.189,18.772 333.778,19.023 334.366,19.275 C333.778,19.023 333.19,18.773 332.599,18.525 Z" id="Shape" fill="#FFD042"></path>
            <path d="M337.726,20.745 C338.386,21.039 339.045,21.336 339.701,21.636 C339.044,21.336 338.385,21.039 337.726,20.745 Z" id="Shape" fill="#FFD042"></path>
            <path d="M412.369,73.022 C410.878,71.483 409.365,69.965 407.834,68.466 C409.365,69.966 410.878,71.483 412.369,73.022 Z" id="Shape" fill="#FFD042"></path>
            <path d="M437.258,103.29 C438.406,104.944 439.537,106.611 440.645,108.294 C438.666,105.286 436.624,102.324 434.515,99.413 C435.437,100.686 436.342,101.971 437.239,103.263 C437.245,103.272 437.251,103.281 437.258,103.29 Z" id="Shape" fill="#FFD042"></path>
            <path d="M240,325.714 C207.206,325.714 175.906,323.519 147.25,319.539 C149.26,331.66 152.175,343.475 155.93,354.909 C97.629,347.678 49.374,333.187 20.536,314.563 C20.49,314.533 20.446,314.504 20.401,314.474 C19.483,313.88 18.588,313.28 17.71,312.677 C17.588,312.593 17.465,312.51 17.344,312.427 C16.433,311.796 15.542,311.162 14.675,310.522 C14.591,310.46 14.51,310.397 14.426,310.335 C13.675,309.778 12.945,309.216 12.228,308.653 C12.034,308.5 11.84,308.347 11.648,308.194 C10.864,307.567 10.094,306.938 9.352,306.303 C9.352,306.303 9.352,306.303 9.352,306.303 C16.853,332.44 28.662,356.736 43.982,378.394 C55.948,383.681 69.664,388.473 84.831,392.666 C90.123,394.129 95.582,395.522 101.217,396.833 C104.33,397.557 107.493,398.258 110.705,398.933 C110.705,398.933 110.69,398.903 110.663,398.845 C110.608,398.729 110.5,398.501 110.351,398.175 C109.829,397.036 108.8,394.705 107.737,391.829 C107.433,391.007 107.127,390.141 106.829,389.245 C106.531,388.349 106.241,387.424 105.971,386.484 C105.727,385.637 105.502,384.778 105.298,383.919 C104.709,381.441 104.315,378.957 104.316,376.73 C104.316,376.302 104.331,375.883 104.362,375.476 C104.418,374.735 104.534,374.038 104.703,373.385 C104.861,372.773 105.081,372.21 105.353,371.693 C105.48,371.451 105.62,371.22 105.774,371.003 C106.874,369.45 108.665,368.515 111.429,368.569 C111.994,368.58 112.56,368.601 113.129,368.632 C113.287,368.64 113.446,368.655 113.604,368.665 C114.015,368.691 114.426,368.716 114.839,368.751 C115.057,368.77 115.277,368.796 115.495,368.817 C115.849,368.851 116.201,368.884 116.556,368.925 C116.81,368.955 117.065,368.991 117.319,369.024 C117.642,369.066 117.965,369.105 118.29,369.152 C118.555,369.19 118.822,369.236 119.088,369.278 C119.403,369.328 119.717,369.375 120.034,369.43 C120.309,369.478 120.586,369.532 120.862,369.583 C121.172,369.64 121.481,369.696 121.792,369.758 C122.075,369.814 122.359,369.877 122.643,369.937 C122.948,370.001 123.252,370.064 123.558,370.132 C123.849,370.197 124.141,370.268 124.433,370.337 C124.735,370.408 125.036,370.478 125.339,370.553 C125.636,370.627 125.935,370.706 126.233,370.784 C126.531,370.861 126.828,370.937 127.126,371.018 C127.427,371.1 127.73,371.186 128.032,371.271 C128.332,371.355 128.631,371.438 128.931,371.526 C129.23,371.613 129.529,371.705 129.828,371.795 C130.134,371.887 130.439,371.978 130.746,372.074 C131.045,372.167 131.344,372.264 131.643,372.361 C131.952,372.46 132.261,372.559 132.571,372.661 C132.871,372.76 133.171,372.863 133.472,372.965 C133.784,373.071 134.096,373.176 134.408,373.285 C134.705,373.388 135.003,373.495 135.301,373.602 C135.621,373.716 135.94,373.829 136.26,373.946 C136.553,374.053 136.846,374.163 137.14,374.272 C137.467,374.394 137.793,374.515 138.121,374.64 C138.41,374.75 138.699,374.862 138.988,374.974 C139.324,375.104 139.659,375.234 139.996,375.367 C140.278,375.478 140.561,375.592 140.844,375.705 C141.189,375.843 141.534,375.982 141.88,376.123 C142.156,376.235 142.432,376.35 142.708,376.464 C143.066,376.612 143.424,376.76 143.782,376.911 C144.045,377.021 144.309,377.134 144.572,377.245 C144.946,377.404 145.321,377.563 145.696,377.725 C145.946,377.833 146.197,377.942 146.448,378.051 C146.839,378.221 147.231,378.392 147.623,378.565 C147.859,378.669 148.096,378.774 148.333,378.88 C148.741,379.062 149.151,379.244 149.561,379.429 C149.784,379.529 150.007,379.63 150.231,379.732 C150.661,379.927 151.093,380.123 151.525,380.321 C151.72,380.41 151.915,380.5 152.109,380.59 C152.579,380.806 153.05,381.024 153.522,381.244 C153.677,381.316 153.831,381.388 153.986,381.461 C154.498,381.7 155.012,381.941 155.526,382.183 C155.645,382.239 155.765,382.295 155.884,382.352 C156.441,382.615 156.998,382.88 157.557,383.146 C157.628,383.18 157.699,383.214 157.769,383.247 C161.942,385.238 166.174,387.314 170.459,389.399 C164.797,378.376 159.88,366.908 155.957,354.976 C182.21,358.228 210.505,360 240,360 C266.929,360 292.859,358.523 317.145,355.792 L348.467,351.431 C403.751,342.171 447.57,326.051 470.654,306.284 C463.157,332.416 451.354,356.708 436.04,378.365 C390.551,398.476 319.684,412.636 240,411.429 C215.924,411.064 192.409,400.081 170.307,389.325 C180.788,409.761 194.112,428.497 209.761,445.011 C209.803,445.013 209.844,445.015 209.885,445.017 C209.908,445.042 209.933,445.065 209.956,445.09 C219.804,445.501 229.829,445.715 240,445.715 C295.516,445.715 346.705,439.404 388.079,428.798 C360.146,450.738 327.243,466.635 291.328,474.481 C399.21,450.972 480,354.929 480,240 C480,248.019 479.589,255.942 478.82,263.759 C448.937,299.535 353.366,325.714 240,325.714 Z" id="Shape" fill="#FFD042"></path>
            <path d="M246.833,0.103 C246.4,0.091 245.966,0.08 245.532,0.071 C245.566,0.072 245.6,0.073 245.633,0.074 C246.033,0.082 246.433,0.091 246.833,0.103 Z" id="Shape" fill="#FFD042"></path>
            <path d="M432.7,96.938 C432.776,97.041 432.848,97.147 432.924,97.25 C433.35,97.825 433.777,98.399 434.198,98.978 C432.812,97.073 431.401,95.189 429.961,93.327 C430.885,94.521 431.794,95.728 432.695,96.94 C432.697,96.939 432.698,96.939 432.7,96.938 Z" id="Shape" fill="#FFD042"></path>
            <path d="M259.048,0.751 C258.74,0.727 258.432,0.701 258.123,0.678 C258.294,0.691 258.464,0.707 258.635,0.72 C258.774,0.731 258.911,0.741 259.048,0.751 Z" id="Shape" fill="#FFD042"></path>
            <path d="M444.853,115.016 C446.494,117.709 448.102,120.424 449.643,123.183 C405.504,147.032 328.129,162.857 240,162.857 C217.917,162.857 196.51,161.863 176.131,159.998 C165.832,177.795 157.754,197.034 152.275,217.344 C152.293,217.346 152.31,217.349 152.328,217.351 C152.327,217.355 152.326,217.359 152.325,217.363 C160.671,218.449 169.222,219.391 177.971,220.166 L177.969,220.159 C223.607,223.252 253.44,242.574 281.626,247.622 C289.161,248.972 294.666,240.704 290.37,234.368 L281.748,221.652 C366.957,216.683 437.351,196.749 469.592,169.975 C473.698,183.454 476.652,197.433 478.343,211.799 C473.93,174.101 460.785,139.078 440.978,108.798 C442.317,110.845 443.627,112.913 444.905,115.004 C444.887,115.009 444.87,115.012 444.853,115.016 Z M252,224 C245.373,224 240,220.418 240,216 C240,211.582 245.373,208 252,208 C258.627,208 264,211.582 264,216 C264,220.418 258.627,224 252,224 Z" id="Shape" fill="#FFD042"></path>
            <path d="M271.09,2.001 C270.662,1.946 270.233,1.894 269.804,1.841 C270.203,1.89 270.602,1.939 271,1.99 C271.03,1.994 271.06,1.998 271.09,2.001 Z" id="Shape" fill="#FFD042"></path>
            <path d="M245.748,479.927 C246.392,479.912 247.033,479.885 247.676,479.865 C247.033,479.885 246.392,479.912 245.748,479.927 Z" id="Shape" fill="#FFD042"></path>
            <path d="M193.571,475.495 C192.191,475.224 190.814,474.942 189.443,474.647 C190.815,474.942 192.191,475.225 193.571,475.495 Z" id="Shape" fill="#FF9300"></path>
            <path d="M234.251,479.927 C233.607,479.912 232.966,479.885 232.323,479.865 C232.966,479.885 233.607,479.912 234.251,479.927 Z" id="Shape" fill="#FF9300"></path>
            <path d="M198.739,476.454 C197.437,476.228 196.139,475.987 194.844,475.739 C196.139,475.986 197.436,476.228 198.739,476.454 Z" id="Shape" fill="#FF9300"></path>
            <path d="M211.755,478.337 C207.884,477.882 204.04,477.338 200.228,476.701 C204.041,477.337 207.884,477.883 211.755,478.337 Z" id="Shape" fill="#FF9300"></path>
            <path d="M222.867,479.384 C222.044,479.326 221.22,479.265 220.399,479.199 C221.22,479.266 222.043,479.326 222.867,479.384 Z" id="Shape" fill="#FF9300"></path>
            <path d="M217.256,478.92 C216.394,478.839 215.532,478.761 214.673,478.671 C215.532,478.761 216.395,478.839 217.256,478.92 Z" id="Shape" fill="#FF9300"></path>
            <path d="M228.539,479.721 C227.77,479.685 227.003,479.641 226.236,479.598 C227.003,479.641 227.77,479.685 228.539,479.721 Z" id="Shape" fill="#FF9300"></path>
            <path d="M109.326,441.248 C105.565,438.799 101.877,436.248 98.265,433.599 C97.868,433.308 97.473,433.016 97.077,432.723 C95.344,431.435 93.622,430.134 91.926,428.801 C91.924,428.8 91.922,428.798 91.92,428.797 C91.921,428.797 91.923,428.798 91.924,428.798 C93.855,429.293 95.814,429.776 97.787,430.251 C98.09,430.324 98.392,430.398 98.697,430.47 C100.736,430.957 102.793,431.435 104.875,431.9 C104.882,431.902 104.888,431.903 104.895,431.904 C135.799,438.814 171.445,443.395 209.76,445.009 C194.111,428.495 180.787,409.759 170.306,389.323 C166.074,387.263 161.894,385.212 157.772,383.246 C157.701,383.212 157.63,383.178 157.56,383.145 C157.001,382.879 156.444,382.614 155.887,382.351 C155.768,382.295 155.648,382.238 155.529,382.182 C155.015,381.939 154.501,381.699 153.989,381.46 C153.834,381.388 153.679,381.315 153.525,381.243 C153.053,381.023 152.582,380.806 152.112,380.589 C151.917,380.499 151.722,380.409 151.528,380.32 C151.096,380.122 150.665,379.926 150.234,379.731 C150.011,379.63 149.787,379.529 149.564,379.428 C149.154,379.243 148.745,379.061 148.336,378.879 C148.099,378.774 147.862,378.668 147.626,378.564 C147.233,378.391 146.842,378.22 146.451,378.05 C146.2,377.941 145.949,377.831 145.699,377.724 C145.324,377.562 144.949,377.403 144.575,377.244 C144.311,377.132 144.048,377.02 143.785,376.91 C143.426,376.759 143.068,376.611 142.711,376.463 C142.435,376.349 142.158,376.234 141.883,376.122 C141.537,375.981 141.192,375.842 140.847,375.704 C140.564,375.591 140.281,375.477 139.999,375.366 C139.662,375.233 139.327,375.103 138.991,374.973 C138.702,374.861 138.413,374.749 138.124,374.639 C137.796,374.514 137.47,374.393 137.143,374.271 C136.85,374.162 136.556,374.052 136.263,373.945 C135.943,373.828 135.623,373.715 135.304,373.601 C135.006,373.495 134.708,373.388 134.411,373.284 C134.098,373.175 133.787,373.07 133.475,372.964 C133.175,372.862 132.874,372.759 132.574,372.66 C132.264,372.557 131.955,372.459 131.646,372.36 C131.347,372.264 131.047,372.167 130.749,372.073 C130.443,371.977 130.137,371.886 129.831,371.794 C129.532,371.704 129.232,371.612 128.934,371.525 C128.633,371.437 128.334,371.354 128.035,371.27 C127.733,371.185 127.43,371.098 127.129,371.017 C126.83,370.936 126.533,370.861 126.236,370.783 C125.938,370.706 125.639,370.626 125.342,370.552 C125.039,370.477 124.738,370.408 124.436,370.336 C124.144,370.267 123.852,370.196 123.561,370.131 C123.255,370.062 122.951,370 122.646,369.936 C122.362,369.876 122.078,369.813 121.795,369.757 C121.484,369.695 121.175,369.64 120.865,369.582 C120.589,369.531 120.312,369.476 120.037,369.429 C119.721,369.374 119.406,369.327 119.091,369.277 C118.825,369.235 118.558,369.189 118.293,369.151 C117.968,369.104 117.646,369.065 117.322,369.023 C117.068,368.99 116.812,368.953 116.559,368.924 C116.204,368.883 115.851,368.851 115.498,368.816 C115.279,368.795 115.06,368.769 114.842,368.75 C114.429,368.715 114.018,368.689 113.607,368.664 C113.449,368.654 113.29,368.64 113.132,368.631 C112.563,368.601 111.996,368.579 111.432,368.568 C108.668,368.514 106.877,369.449 105.777,371.002 C105.623,371.22 105.484,371.451 105.356,371.692 C105.084,372.209 104.865,372.771 104.706,373.384 C104.537,374.038 104.421,374.734 104.365,375.475 C104.334,375.882 104.32,376.301 104.319,376.729 C104.318,378.955 104.712,381.439 105.301,383.918 C105.505,384.777 105.73,385.636 105.974,386.483 C106.245,387.423 106.534,388.348 106.832,389.244 C107.13,390.14 107.436,391.006 107.74,391.828 C108.803,394.704 109.832,397.035 110.354,398.174 C110.503,398.499 110.611,398.728 110.666,398.844 C110.694,398.902 110.708,398.932 110.708,398.932 C107.496,398.256 104.333,397.556 101.22,396.832 C95.585,395.521 90.125,394.128 84.834,392.665 C69.667,388.472 55.951,383.68 43.985,378.394 C28.664,356.735 16.856,332.439 9.355,306.302 C9.355,306.302 9.355,306.302 9.355,306.301 C10.097,306.936 10.867,307.565 11.651,308.192 C11.843,308.345 12.037,308.498 12.231,308.651 C12.948,309.215 13.678,309.776 14.429,310.333 C14.513,310.395 14.594,310.458 14.678,310.52 C15.545,311.16 16.436,311.794 17.347,312.425 C17.468,312.509 17.591,312.592 17.713,312.675 C18.591,313.278 19.486,313.877 20.404,314.472 C20.449,314.501 20.494,314.531 20.539,314.561 C49.377,333.185 97.632,347.676 155.933,354.907 C152.178,343.473 149.263,331.658 147.253,319.537 C85.725,310.992 36.409,294.2 10.775,273.131 C10.684,273.056 10.596,272.981 10.505,272.907 C9.734,272.268 8.985,271.626 8.258,270.98 C8.14,270.876 8.02,270.772 7.903,270.667 C7.122,269.964 6.363,269.257 5.634,268.545 C5.528,268.442 5.429,268.338 5.324,268.234 C4.72,267.637 4.136,267.036 3.569,266.433 C3.395,266.248 3.221,266.062 3.05,265.876 C2.406,265.174 1.779,264.47 1.186,263.761 C1.185,263.76 1.184,263.759 1.183,263.757 C1.183,263.757 1.183,263.757 1.183,263.757 C0.411,255.942 0,248.019 0,240 C0,354.932 80.795,450.977 188.681,474.482 C160.152,468.251 133.53,456.931 109.784,441.545 C109.631,441.446 109.478,441.347 109.326,441.248 Z M152,392 C161.667,397.667 168.5,404.5 168,416 C167.5,427.5 121.5,404 120,392 C118.5,380 139.792,384.843 152,392 Z" id="Shape" fill="#FF9300"></path>
            <path d="M254.409,0.434 C255.361,0.491 256.312,0.551 257.261,0.618 C256.312,0.551 255.361,0.49 254.409,0.434 Z" id="Shape" fill="#FF9300"></path>
            <path d="M240,0 C241.436,0 242.869,0.014 244.3,0.04 C242.869,0.014 241.436,0 240,0 Z" id="Shape" fill="#FF9300"></path>
            <path d="M222.568,0.631 C223.715,0.548 224.864,0.474 226.016,0.407 C224.865,0.474 223.716,0.549 222.568,0.631 Z" id="Shape" fill="#FF9300"></path>
            <path d="M240,0 C238.591,0 237.185,0.015 235.781,0.039 C235.979,0.036 236.178,0.037 236.377,0.033 C237.582,0.012 238.79,0 240,0 Z" id="Shape" fill="#FF9300"></path>
            <path d="M444.853,115.016 C444.87,115.013 444.888,115.009 444.905,115.006 C443.627,112.916 442.317,110.848 440.978,108.8 C440.868,108.631 440.756,108.463 440.645,108.295 C439.538,106.611 438.406,104.944 437.258,103.291 C439.906,107.115 442.426,111.033 444.853,115.016 Z" id="Shape" fill="#FF9300"></path>
            <path d="M347.327,25.343 C347.439,25.399 347.551,25.454 347.663,25.51 C348.465,25.914 349.263,26.323 350.059,26.735 C350.64,27.035 351.22,27.336 351.798,27.64 C352.206,27.855 352.613,28.072 353.019,28.29 C353.991,28.809 354.958,29.334 355.922,29.866 C356.032,29.927 356.142,29.988 356.252,30.049 C356.804,30.355 357.36,30.656 357.909,30.967 C358.104,31.077 358.308,31.172 358.503,31.283 C363.402,34.071 368.189,37.032 372.865,40.147 C372.928,40.189 372.988,40.236 373.051,40.278 C366.23,40.584 359.487,41.186 352.826,42.051 C347.879,42.924 342.839,43.741 337.708,44.501 C282.164,55.356 233.496,85.378 198.827,127.385 C198.837,127.385 198.848,127.386 198.858,127.387 C198.856,127.39 198.854,127.392 198.851,127.395 C212.236,128.165 225.979,128.571 239.999,128.571 C257.368,128.571 274.321,127.957 290.685,126.788 C293.811,126.565 296.915,126.321 299.997,126.058 L329.235,122.882 C370.03,117.47 405.546,108.427 432.694,96.94 C431.793,95.728 430.883,94.522 429.96,93.327 C429.928,93.286 429.897,93.244 429.865,93.203 C429.129,92.253 428.386,91.309 427.637,90.371 C427.529,90.236 427.42,90.102 427.313,89.968 C425.908,88.217 424.48,86.485 423.028,84.775 C422.902,84.626 422.777,84.477 422.65,84.328 C421.889,83.436 421.122,82.549 420.348,81.669 C420.243,81.549 420.136,81.431 420.031,81.312 C418.589,79.677 417.125,78.064 415.64,76.469 C415.432,76.246 415.225,76.021 415.016,75.799 C414.238,74.969 413.455,74.144 412.665,73.326 C412.567,73.224 412.467,73.124 412.369,73.023 C410.878,71.484 409.365,69.966 407.834,68.467 C407.548,68.187 407.262,67.906 406.974,67.627 C406.189,66.867 405.401,66.109 404.606,65.36 C404.509,65.268 404.41,65.179 404.313,65.088 C402.774,63.642 401.215,62.218 399.639,60.812 C399.27,60.483 398.901,60.155 398.53,59.828 C397.749,59.14 396.966,58.453 396.175,57.776 C396.135,57.742 396.095,57.708 396.055,57.674 C394.413,56.267 392.749,54.885 391.07,53.523 C390.612,53.152 390.153,52.782 389.693,52.414 C388.513,51.471 387.322,50.54 386.124,49.619 C385.547,49.175 384.972,48.729 384.391,48.291 C383.643,47.727 382.889,47.171 382.134,46.615 C381.584,46.21 381.032,45.808 380.478,45.408 C379.504,44.703 378.525,44.006 377.54,43.315 C376.706,42.731 375.87,42.148 375.028,41.574 C374.309,41.083 373.584,40.6 372.859,40.117 C372.202,39.679 371.542,39.246 370.88,38.815 C369.955,38.212 369.026,37.614 368.093,37.023 C367.177,36.443 366.258,35.867 365.333,35.3 C364.643,34.876 363.948,34.458 363.253,34.041 C362.471,33.572 361.685,33.109 360.897,32.648 C360.03,32.141 359.161,31.639 358.287,31.143 C357.3,30.583 356.31,30.028 355.315,29.481 C354.655,29.119 353.993,28.761 353.329,28.404 C352.396,27.903 351.458,27.41 350.518,26.921 C349.735,26.514 348.949,26.11 348.161,25.711 C347.107,25.178 346.05,24.652 344.987,24.134 C344.362,23.83 343.736,23.528 343.108,23.228 C341.977,22.689 340.84,22.158 339.699,21.636 C339.042,21.336 338.383,21.039 337.724,20.745 C336.609,20.247 335.489,19.757 334.365,19.275 C333.777,19.023 333.188,18.773 332.598,18.525 C331.168,17.926 329.733,17.336 328.289,16.765 C327.869,16.598 327.444,16.439 327.022,16.275 C325.839,15.815 324.652,15.363 323.461,14.921 C322.913,14.718 322.366,14.515 321.816,14.315 C320.32,13.773 318.818,13.241 317.309,12.727 C316.888,12.584 316.463,12.447 316.041,12.306 C314.794,11.89 313.543,11.483 312.287,11.087 C311.784,10.928 311.282,10.769 310.778,10.613 C309.218,10.132 307.653,9.665 306.08,9.216 C305.661,9.096 305.239,8.982 304.819,8.865 C303.503,8.497 302.183,8.139 300.857,7.793 C300.404,7.674 299.951,7.553 299.497,7.438 C297.879,7.025 296.255,6.628 294.625,6.249 C294.205,6.151 293.783,6.058 293.362,5.963 C291.973,5.648 290.58,5.344 289.182,5.053 C288.784,4.97 288.387,4.884 287.988,4.803 C286.318,4.464 284.642,4.144 282.96,3.84 C282.535,3.763 282.108,3.691 281.682,3.616 C280.215,3.359 278.744,3.115 277.267,2.885 C276.934,2.833 276.601,2.777 276.267,2.727 C274.549,2.466 272.824,2.227 271.094,2.003 C298.188,5.517 323.851,13.568 347.327,25.343 Z" id="Shape" fill="#FF9300"></path>
            <path d="M437.239,103.263 C436.342,101.971 435.437,100.686 434.515,99.413 C434.41,99.267 434.304,99.123 434.198,98.978 C433.777,98.399 433.35,97.825 432.924,97.25 C434.392,99.231 435.833,101.234 437.239,103.263 Z" id="Shape" fill="#FF9300"></path>
            <path d="M252.92,0.347 C252.846,0.343 252.772,0.338 252.698,0.334 C252.551,0.326 252.405,0.316 252.258,0.309 C251.541,0.273 250.822,0.247 250.104,0.217 C251.044,0.256 251.983,0.297 252.92,0.347 Z" id="Shape" fill="#FF9300"></path>
            <path d="M261.662,0.972 C260.792,0.894 259.921,0.82 259.048,0.751 C258.911,0.74 258.773,0.731 258.636,0.72 C259.646,0.799 260.655,0.882 261.662,0.972 Z" id="Shape" fill="#FF9300"></path>
            <path d="M271,1.99 C270.602,1.939 270.203,1.89 269.804,1.841 C268.861,1.724 267.917,1.611 266.971,1.505 C268.317,1.656 269.661,1.817 271,1.99 Z" id="Shape" fill="#FF9300"></path>
            <path d="M266.183,1.42 C265.824,1.381 265.464,1.341 265.105,1.303 C264.855,1.277 264.605,1.247 264.355,1.222 C263.843,1.17 263.329,1.126 262.816,1.077 C263.941,1.184 265.063,1.298 266.183,1.42 Z" id="Shape" fill="#FF9300"></path>
            <path d="M248.606,0.155 C248.016,0.134 247.424,0.119 246.832,0.102 C246.432,0.091 246.032,0.081 245.632,0.072 C246.625,0.096 247.617,0.12 248.606,0.155 Z" id="Shape" fill="#FF9300"></path>
            <path d="M234.539,0.068 C234.514,0.068 234.489,0.069 234.464,0.07 C234.079,0.079 233.694,0.087 233.309,0.097 C232.715,0.113 232.12,0.131 231.527,0.152 C232.529,0.117 233.533,0.091 234.539,0.068 Z" id="Shape" fill="#FF9300"></path>
            <path d="M230.187,0.205 C229.449,0.235 228.711,0.264 227.975,0.3 C227.678,0.315 227.381,0.332 227.085,0.348 C228.117,0.293 229.152,0.246 230.187,0.205 Z" id="Shape" fill="#FF9300"></path>
            <path d="M240,0 C238.79,0 237.582,0.012 236.377,0.033 C237.583,0.016 238.79,0 240,0 Z" id="Shape" fill="#FF7400"></path>
            <path d="M355.922,29.866 C354.958,29.334 353.991,28.809 353.019,28.29 C353.99,28.81 354.959,29.333 355.922,29.866 Z" id="Shape" fill="#FF7400"></path>
            <path d="M373.052,40.278 C372.989,40.236 372.929,40.189 372.866,40.147 C368.19,37.032 363.403,34.071 358.504,31.283 C358.309,31.172 358.105,31.077 357.91,30.967 C357.36,30.656 356.805,30.355 356.253,30.049 C361.112,32.747 365.868,35.608 370.513,38.625 C364.773,39.849 358.862,40.986 352.827,42.051 C359.487,41.186 366.231,40.584 373.052,40.278 Z" id="Shape" fill="#FF7400"></path>
            <path d="M347.663,25.51 C347.551,25.454 347.439,25.398 347.327,25.343 C347.439,25.399 347.551,25.454 347.663,25.51 Z" id="Shape" fill="#FF7400"></path>
            <path d="M351.798,27.64 C351.22,27.336 350.64,27.035 350.059,26.735 C350.64,27.036 351.22,27.335 351.798,27.64 Z" id="Shape" fill="#FF7400"></path>
            <path d="M52.578,99.137 C53.51,99.506 54.448,99.873 55.398,100.236 C55.923,100.437 56.453,100.636 56.983,100.835 C57.875,101.17 58.776,101.502 59.683,101.831 C60.233,102.031 60.781,102.231 61.336,102.429 C62.304,102.774 63.284,103.115 64.268,103.454 C64.761,103.624 65.247,103.796 65.744,103.964 C67.154,104.442 68.581,104.915 70.024,105.381 C70.64,105.58 71.268,105.775 71.889,105.972 C72.768,106.251 73.648,106.529 74.539,106.804 C75.305,107.04 76.079,107.272 76.853,107.505 C77.606,107.731 78.363,107.956 79.124,108.18 C79.969,108.428 80.817,108.674 81.671,108.918 C82.351,109.112 83.037,109.303 83.724,109.495 C84.655,109.755 85.585,110.015 86.527,110.27 C87.004,110.399 87.489,110.525 87.969,110.654 C91.71,111.653 95.534,112.617 99.441,113.542 C99.785,113.624 100.127,113.706 100.473,113.787 C101.755,114.087 103.046,114.383 104.345,114.676 C104.653,114.745 104.961,114.814 105.27,114.883 C106.664,115.194 108.065,115.501 109.478,115.802 C109.494,115.805 109.509,115.809 109.525,115.812 C136.335,121.524 166.528,125.528 198.829,127.386 C233.498,85.379 282.166,55.357 337.71,44.502 C307.718,48.945 274.719,51.429 240.001,51.429 C192.139,51.429 147.509,46.729 109.58,38.646 C125.485,28.316 142.684,19.813 160.878,13.432 C158.715,14.183 156.56,14.953 154.428,15.768 C153.199,16.237 151.98,16.725 150.761,17.213 C147.635,18.467 144.541,19.786 141.482,21.167 C140.436,21.639 139.383,22.099 138.345,22.585 C134.513,24.381 130.727,26.258 127.009,28.248 C126.836,28.34 126.657,28.423 126.485,28.516 C122.365,30.734 118.318,33.073 114.347,35.52 C114.032,35.714 113.726,35.923 113.412,36.119 C109.91,38.3 106.471,40.573 103.092,42.926 C102.368,43.43 101.654,43.947 100.936,44.459 C97.87,46.645 94.856,48.898 91.899,51.222 C91.274,51.713 90.645,52.198 90.025,52.694 C79.287,61.308 69.3,70.817 60.19,81.122 C59.842,81.516 59.503,81.917 59.157,82.314 C56.472,85.391 53.865,88.538 51.338,91.751 C50.963,92.228 50.586,92.702 50.214,93.181 C49.238,94.441 48.286,95.722 47.331,96.999 C48.626,97.546 49.944,98.087 51.277,98.623 C51.706,98.795 52.144,98.965 52.578,99.137 Z" id="Shape" fill="#FF7400"></path>
            <path d="M181.505,7.213 C181.146,7.303 180.778,7.372 180.419,7.463 C175.98,8.598 171.597,9.875 167.26,11.254 C166.241,11.578 165.241,11.943 164.228,12.28 C164.128,12.313 164.03,12.349 163.931,12.382 C170.024,10.338 176.225,8.529 182.525,6.972 C182.187,7.055 181.844,7.128 181.505,7.213 Z" id="Shape" fill="#FF7400"></path>
            <path d="M449.643,123.183 C448.102,120.424 446.494,117.709 444.853,115.016 C442.426,111.034 439.906,107.115 437.258,103.29 C437.252,103.281 437.246,103.272 437.239,103.263 C435.833,101.234 434.392,99.232 432.924,97.25 C432.848,97.147 432.777,97.041 432.7,96.938 C432.699,96.939 432.697,96.939 432.695,96.94 C405.547,108.427 370.031,117.47 329.236,122.882 L299.998,126.058 C296.916,126.322 293.812,126.565 290.686,126.788 C274.322,127.957 257.369,128.571 240,128.571 C225.98,128.571 212.238,128.165 198.852,127.395 C190.431,137.596 182.817,148.483 176.153,159.999 C175.931,159.979 175.712,159.956 175.49,159.936 C175.705,159.956 175.916,159.978 176.131,159.998 C196.51,161.863 217.917,162.857 240,162.857 C328.129,162.857 405.504,147.032 449.643,123.183 Z" id="Shape" fill="#FFEDB9"></path>
            <path d="M49.289,132.085 C48.832,131.896 48.372,131.708 47.92,131.518 C48.372,131.708 48.832,131.896 49.289,132.085 Z" id="Shape" fill="#FFEDB9"></path>
            <path d="M43.75,129.724 C43.689,129.697 43.627,129.67 43.567,129.643 C43.627,129.671 43.689,129.697 43.75,129.724 Z" id="Shape" fill="#FFEDB9"></path>
            <path d="M39.492,127.776 C39.077,127.581 38.669,127.384 38.258,127.187 C38.668,127.384 39.076,127.581 39.492,127.776 Z" id="Shape" fill="#FFEDB9"></path>
            <path d="M133.377,154.581 C132.836,154.492 132.294,154.404 131.755,154.314 C132.294,154.404 132.836,154.492 133.377,154.581 Z" id="Shape" fill="#FFEDB9"></path>
            <path d="M53.932,133.948 C53.458,133.764 52.991,133.577 52.522,133.391 C52.991,133.577 53.458,133.764 53.932,133.948 Z" id="Shape" fill="#FFEDB9"></path>
            <path d="M126.291,153.37 C125.548,153.238 124.811,153.102 124.072,152.968 C124.81,153.103 125.547,153.238 126.291,153.37 Z" id="Shape" fill="#FFEDB9"></path>
            <path d="M120.035,152.215 C119.306,152.076 118.575,151.938 117.85,151.796 C118.575,151.938 119.305,152.076 120.035,152.215 Z" id="Shape" fill="#FFEDB9"></path>
            <path d="M30.357,123.183 C30.379,123.195 30.404,123.207 30.427,123.219 C30.404,123.207 30.38,123.195 30.357,123.183 Z" id="Shape" fill="#FFEDB9"></path>
            <path d="M106.234,149.384 C105.564,149.236 104.9,149.085 104.234,148.935 C104.9,149.085 105.564,149.236 106.234,149.384 Z" id="Shape" fill="#FFEDB9"></path>
            <path d="M93.429,146.359 C93.127,146.283 92.824,146.208 92.523,146.131 C92.823,146.208 93.127,146.283 93.429,146.359 Z" id="Shape" fill="#FFEDB9"></path>
            <path d="M100.328,148.036 C99.668,147.881 99.006,147.726 98.35,147.569 C99.006,147.726 99.668,147.881 100.328,148.036 Z" id="Shape" fill="#FFEDB9"></path>
            <path d="M112.804,150.785 C112.385,150.699 111.965,150.613 111.548,150.526 C111.965,150.613 112.385,150.699 112.804,150.785 Z" id="Shape" fill="#FFEDB9"></path>
            <path d="M87.419,144.793 C86.815,144.63 86.217,144.465 85.617,144.301 C86.217,144.465 86.815,144.63 87.419,144.793 Z" id="Shape" fill="#FFEDB9"></path>
            <path d="M140.887,155.759 C140.094,155.64 139.3,155.521 138.512,155.399 C139.3,155.521 140.094,155.64 140.887,155.759 Z" id="Shape" fill="#FFEDB9"></path>
            <path d="M58.762,135.779 C58.657,135.74 58.55,135.702 58.445,135.664 C58.55,135.702 58.657,135.74 58.762,135.779 Z" id="Shape" fill="#FFEDB9"></path>
            <path d="M64.836,137.929 C64.317,137.751 63.796,137.574 63.281,137.394 C63.796,137.573 64.317,137.75 64.836,137.929 Z" id="Shape" fill="#FFEDB9"></path>
            <path d="M69.944,139.634 C69.408,139.46 68.879,139.285 68.348,139.11 C68.88,139.284 69.409,139.46 69.944,139.634 Z" id="Shape" fill="#FFEDB9"></path>
            <path d="M81.888,143.26 C81.301,143.093 80.712,142.926 80.13,142.757 C80.712,142.926 81.301,143.092 81.888,143.26 Z" id="Shape" fill="#FFEDB9"></path>
            <path d="M75.363,141.34 C75.175,141.282 74.985,141.226 74.797,141.168 C74.985,141.226 75.175,141.282 75.363,141.34 Z" id="Shape" fill="#FFEDB9"></path>
            <path d="M35.35,125.766 C34.951,125.567 34.55,125.368 34.157,125.168 C34.551,125.368 34.951,125.566 35.35,125.766 Z" id="Shape" fill="#FFEDB9"></path>
            <path d="M37.808,110.774 C38.185,110.184 38.559,109.592 38.942,109.005 C41.595,104.926 44.346,100.916 47.243,97.018 C47.254,97.004 47.263,96.989 47.273,96.975 C48.586,97.53 49.923,98.078 51.275,98.621 C49.942,98.085 48.624,97.545 47.329,96.997 C47.31,96.989 47.291,96.982 47.272,96.974 C41.079,105.305 35.445,114.069 30.356,123.181 C30.358,123.178 30.362,123.172 30.362,123.172 C32.718,118.958 35.218,114.833 37.808,110.774 Z" id="Shape" fill="#FFEDB9"></path>
            <path d="M162.765,158.628 C161.921,158.533 161.077,158.438 160.238,158.34 C161.077,158.438 161.921,158.533 162.765,158.628 Z" id="Shape" fill="#FFEDB9"></path>
            <path d="M147.449,156.709 C146.651,156.598 145.858,156.484 145.064,156.371 C145.858,156.484 146.651,156.598 147.449,156.709 Z" id="Shape" fill="#FFEDB9"></path>
            <path d="M169.61,159.364 C168.763,159.278 167.921,159.188 167.078,159.099 C167.921,159.188 168.763,159.278 169.61,159.364 Z" id="Shape" fill="#FFEDB9"></path>
            <path d="M154.975,157.702 C154.356,157.624 153.735,157.547 153.119,157.468 C153.736,157.547 154.356,157.624 154.975,157.702 Z" id="Shape" fill="#FFEDB9"></path>
            <path d="M105.269,114.882 C104.96,114.813 104.652,114.744 104.344,114.675 C104.652,114.744 104.96,114.813 105.269,114.882 Z" id="Shape" fill="#FFEDB9"></path>
            <path d="M64.269,103.454 C63.285,103.115 62.304,102.774 61.337,102.429 C62.304,102.774 63.285,103.115 64.269,103.454 Z" id="Shape" fill="#FFEDB9"></path>
            <path d="M70.024,105.382 C68.581,104.915 67.154,104.443 65.744,103.965 C67.155,104.443 68.581,104.916 70.024,105.382 Z" id="Shape" fill="#FFEDB9"></path>
            <path d="M59.684,101.831 C58.777,101.501 57.876,101.169 56.984,100.835 C57.875,101.169 58.776,101.501 59.684,101.831 Z" id="Shape" fill="#FFEDB9"></path>
            <path d="M87.969,110.653 C87.489,110.525 87.004,110.399 86.527,110.269 C87.004,110.399 87.489,110.525 87.969,110.653 Z" id="Shape" fill="#FFEDB9"></path>
            <path d="M55.398,100.235 C54.448,99.872 53.51,99.505 52.578,99.136 C53.51,99.505 54.448,99.872 55.398,100.235 Z" id="Shape" fill="#FFEDB9"></path>
            <path d="M100.472,113.786 C100.127,113.705 99.784,113.623 99.44,113.541 C99.785,113.623 100.127,113.705 100.472,113.786 Z" id="Shape" fill="#FFEDB9"></path>
            <path d="M74.54,106.804 C73.649,106.53 72.769,106.251 71.89,105.972 C72.769,106.251 73.649,106.53 74.54,106.804 Z" id="Shape" fill="#FFEDB9"></path>
            <path d="M79.125,108.179 C78.364,107.956 77.607,107.731 76.854,107.504 C77.607,107.731 78.363,107.956 79.125,108.179 Z" id="Shape" fill="#FFEDB9"></path>
            <path d="M83.724,109.494 C83.038,109.302 82.351,109.111 81.671,108.917 C82.352,109.111 83.038,109.303 83.724,109.494 Z" id="Shape" fill="#FFEDB9"></path>
            <path d="M109.524,115.811 C109.508,115.808 109.493,115.804 109.477,115.801 C109.493,115.804 109.508,115.808 109.524,115.811 Z" id="Shape" fill="#FFEDB9"></path>
            <path d="M182.526,6.972 C176.225,8.529 170.025,10.337 163.932,12.382 C162.911,12.725 161.893,13.075 160.878,13.431 C142.684,19.812 125.485,28.315 109.58,38.645 C147.508,46.728 192.138,51.428 240,51.428 C274.718,51.428 307.717,48.944 337.709,44.501 C342.839,43.741 347.88,42.923 352.827,42.051 C358.862,40.986 364.773,39.85 370.513,38.625 C365.868,35.608 361.111,32.747 356.253,30.049 C356.143,29.988 356.033,29.927 355.923,29.866 C354.96,29.333 353.991,28.81 353.02,28.29 C352.614,28.072 352.207,27.855 351.799,27.64 C351.221,27.335 350.641,27.036 350.06,26.735 C349.264,26.323 348.466,25.913 347.664,25.51 C347.552,25.454 347.44,25.399 347.328,25.343 C323.852,13.569 298.189,5.518 271.097,2.003 C271.095,2.003 271.094,2.003 271.092,2.002 C271.062,1.998 271.032,1.995 271.002,1.991 C269.663,1.818 268.319,1.657 266.972,1.506 C266.71,1.477 266.447,1.45 266.185,1.421 C265.065,1.299 263.943,1.185 262.818,1.078 C262.433,1.042 262.049,1.007 261.664,0.973 C260.657,0.883 259.648,0.799 258.638,0.721 C258.467,0.708 258.297,0.691 258.126,0.679 C257.839,0.658 257.55,0.639 257.262,0.619 C256.313,0.551 255.362,0.491 254.41,0.435 C253.914,0.406 253.418,0.375 252.921,0.349 C251.984,0.299 251.045,0.258 250.105,0.219 C249.606,0.198 249.107,0.175 248.607,0.157 C247.618,0.122 246.626,0.097 245.634,0.074 C245.6,0.073 245.567,0.072 245.533,0.071 C245.122,0.061 244.712,0.048 244.301,0.04 C242.869,0.014 241.436,0 240,0 C238.79,0 237.583,0.016 236.377,0.033 C236.179,0.036 235.98,0.035 235.781,0.039 C235.366,0.046 234.953,0.059 234.539,0.068 C233.534,0.09 232.529,0.117 231.527,0.151 C231.08,0.167 230.634,0.186 230.188,0.204 C229.152,0.246 228.118,0.292 227.086,0.348 C226.73,0.367 226.373,0.387 226.017,0.407 C224.866,0.474 223.716,0.548 222.569,0.631 C222.376,0.645 222.183,0.657 221.991,0.671 C208.49,1.679 195.306,3.814 182.526,6.972 Z" id="Shape" fill="#D55A00"></path>
            <path d="M281.748,221.653 L290.37,234.369 C294.666,240.705 289.162,248.973 281.626,247.623 C253.44,242.575 223.607,223.253 177.969,220.16 L177.971,220.167 C169.222,219.392 160.671,218.449 152.325,217.364 C147.462,235.389 144.604,254.237 144.091,273.675 C144.112,273.678 144.133,273.681 144.154,273.684 C144.154,273.692 144.154,273.7 144.153,273.708 C173.885,277.672 206.197,279.848 239.998,279.848 C345.418,279.848 436.404,258.704 479.551,228.061 C479.75,232.029 480,235.983 480,240 C480,238.154 479.972,236.314 479.93,234.478 C479.917,233.901 479.899,233.325 479.881,232.749 C479.842,231.451 479.793,230.156 479.733,228.864 C479.704,228.241 479.679,227.617 479.645,226.996 C479.556,225.335 479.453,223.677 479.33,222.024 C479.272,221.254 479.203,220.488 479.138,219.721 C479.054,218.724 478.969,217.727 478.873,216.734 C478.778,215.756 478.677,214.779 478.571,213.804 C478.498,213.135 478.42,212.468 478.342,211.801 C476.651,197.435 473.697,183.455 469.591,169.977 C437.351,196.75 366.957,216.684 281.748,221.653 Z" id="Shape" fill="#FF9300"></path>
            <path d="M0.606,223.781 C0.693,222.482 0.794,221.188 0.902,219.895 C1.34,214.645 1.888,209.427 2.659,204.279 C2.666,204.228 2.671,204.176 2.679,204.126 C3.501,198.667 4.543,193.282 5.726,187.949 C5.91,187.116 6.108,186.288 6.301,185.459 C7.519,180.234 8.862,175.055 10.412,169.966 C36.634,191.748 88.113,208.989 152.276,217.344 C157.755,197.034 165.833,177.795 176.132,159.998 C175.917,159.978 175.706,159.956 175.491,159.936 C173.521,159.754 171.561,159.563 169.611,159.364 C168.764,159.278 167.922,159.188 167.079,159.099 C165.636,158.946 164.198,158.79 162.766,158.628 C161.922,158.533 161.078,158.439 160.239,158.34 C158.475,158.134 156.722,157.921 154.976,157.701 C154.357,157.623 153.737,157.546 153.12,157.467 C151.218,157.222 149.329,156.969 147.45,156.709 C146.652,156.598 145.859,156.484 145.065,156.371 C143.666,156.171 142.274,155.968 140.888,155.759 C140.095,155.64 139.301,155.521 138.513,155.399 C136.791,155.133 135.08,154.86 133.379,154.58 C132.838,154.491 132.296,154.403 131.757,154.313 C129.922,154.006 128.102,153.691 126.292,153.369 C125.549,153.237 124.812,153.101 124.073,152.967 C122.72,152.72 121.374,152.47 120.036,152.215 C119.307,152.076 118.576,151.938 117.851,151.796 C116.157,151.465 114.475,151.129 112.805,150.785 C112.386,150.699 111.966,150.613 111.549,150.526 C109.762,150.153 107.993,149.771 106.236,149.384 C105.566,149.236 104.902,149.085 104.236,148.935 C102.925,148.64 101.624,148.34 100.33,148.036 C99.67,147.881 99.008,147.726 98.352,147.569 C96.697,147.172 95.055,146.769 93.43,146.359 C93.128,146.283 92.825,146.208 92.524,146.131 C90.805,145.693 89.106,145.246 87.421,144.793 C86.817,144.63 86.219,144.465 85.619,144.301 C84.366,143.958 83.123,143.611 81.89,143.259 C81.303,143.092 80.714,142.925 80.132,142.756 C78.527,142.29 76.935,141.818 75.365,141.339 C75.177,141.281 74.987,141.225 74.799,141.167 C73.16,140.664 71.546,140.151 69.946,139.633 C69.41,139.459 68.881,139.284 68.35,139.109 C67.168,138.719 65.997,138.326 64.837,137.928 C64.318,137.75 63.797,137.573 63.282,137.393 C61.757,136.861 60.247,136.324 58.763,135.778 C58.658,135.739 58.551,135.701 58.446,135.663 C56.917,135.099 55.417,134.526 53.933,133.948 C53.459,133.764 52.993,133.577 52.523,133.391 C51.433,132.959 50.355,132.523 49.29,132.084 C48.833,131.895 48.373,131.707 47.921,131.517 C46.51,130.925 45.116,130.328 43.751,129.723 C43.69,129.696 43.628,129.669 43.568,129.642 C42.183,129.027 40.83,128.403 39.493,127.774 C39.078,127.579 38.67,127.382 38.259,127.185 C37.276,126.715 36.307,126.241 35.351,125.763 C34.952,125.564 34.551,125.365 34.158,125.165 C32.892,124.521 31.644,123.873 30.428,123.217 C30.405,123.205 30.381,123.193 30.358,123.181 C30.358,123.181 30.358,123.181 30.358,123.181 C35.446,114.069 41.081,105.304 47.274,96.974 C47.293,96.982 47.312,96.99 47.331,96.997 C48.285,95.719 49.237,94.439 50.214,93.179 C50.586,92.7 50.964,92.225 51.338,91.749 C53.866,88.537 56.472,85.39 59.157,82.312 C59.503,81.916 59.842,81.514 60.19,81.12 C69.3,70.814 79.288,61.306 90.025,52.692 C90.645,52.195 91.274,51.711 91.899,51.22 C94.856,48.896 97.87,46.643 100.936,44.457 C101.654,43.945 102.368,43.428 103.092,42.924 C106.471,40.571 109.909,38.298 113.412,36.117 C113.726,35.921 114.032,35.712 114.347,35.518 C118.318,33.071 122.365,30.732 126.485,28.514 C126.657,28.421 126.837,28.338 127.009,28.246 C130.727,26.257 134.513,24.379 138.345,22.583 C139.384,22.097 140.436,21.637 141.482,21.165 C144.542,19.784 147.635,18.466 150.761,17.211 C151.98,16.722 153.199,16.235 154.428,15.766 C156.561,14.951 158.715,14.182 160.878,13.43 C161.893,13.074 162.911,12.723 163.932,12.381 C164.031,12.348 164.13,12.312 164.229,12.279 C165.242,11.942 166.242,11.577 167.261,11.253 C171.598,9.875 175.98,8.597 180.42,7.462 C180.779,7.37 181.147,7.302 181.506,7.212 C181.844,7.127 182.187,7.055 182.527,6.971 C195.307,3.813 208.491,1.678 221.991,0.67 C221.76,0.687 221.528,0.702 221.297,0.72 C219.549,0.855 217.808,1.012 216.072,1.184 C215.642,1.226 215.213,1.271 214.784,1.316 C213.053,1.497 211.326,1.691 209.606,1.908 C209.36,1.939 209.116,1.974 208.871,2.006 C207.334,2.205 205.802,2.421 204.274,2.649 C203.828,2.716 203.381,2.781 202.936,2.85 C201.306,3.103 199.682,3.372 198.063,3.657 C197.578,3.742 197.095,3.833 196.611,3.921 C195.237,4.172 193.866,4.434 192.5,4.708 C192.118,4.785 191.734,4.857 191.353,4.935 C189.801,5.255 188.256,5.595 186.715,5.945 C186.125,6.079 185.536,6.214 184.948,6.352 C183.46,6.701 181.977,7.06 180.5,7.437 C179.927,7.583 179.357,7.738 178.786,7.888 C177.715,8.17 176.648,8.459 175.583,8.755 C174.933,8.936 174.281,9.114 173.633,9.301 C172.274,9.691 170.921,10.095 169.572,10.509 C168.826,10.738 168.082,10.973 167.34,11.208 C166.462,11.487 165.586,11.772 164.712,12.061 C163.531,12.451 162.355,12.85 161.182,13.258 C160.43,13.519 159.679,13.782 158.931,14.051 C158.069,14.36 157.209,14.672 156.352,14.991 C155.699,15.234 155.049,15.485 154.398,15.733 C152.952,16.285 151.513,16.85 150.081,17.429 C149.615,17.618 149.149,17.808 148.685,18 C146.755,18.795 144.837,19.613 142.932,20.456 C142.862,20.487 142.791,20.517 142.72,20.549 C141.651,21.024 140.586,21.507 139.525,21.997 C139.438,22.037 139.351,22.079 139.264,22.119 C137.161,23.093 135.075,24.097 133.006,25.129 C132.982,25.141 132.958,25.153 132.934,25.165 C62.125,60.524 11.255,129.844 1.659,211.791 C1.58,212.462 1.502,213.133 1.429,213.806 C1.324,214.779 1.221,215.752 1.127,216.729 C1.031,217.727 0.945,218.728 0.861,219.729 C0.797,220.492 0.727,221.253 0.67,222.017 C0.547,223.671 0.444,225.331 0.355,226.994 C0.322,227.616 0.296,228.24 0.267,228.863 C0.207,230.155 0.158,231.45 0.12,232.748 C0.103,233.324 0.084,233.899 0.071,234.477 C0.028,236.313 0,238.153 0,240 C0,234.543 0.246,229.146 0.606,223.781 Z" id="Shape" fill="#FF9300"></path>
            <path d="M240,279.848 C206.199,279.848 173.886,277.671 144.155,273.708 C144.1,275.804 144,277.89 144,280 C144,293.463 145.22,306.629 147.352,319.488 C85.815,310.944 36.426,294.193 10.771,273.134 C36.405,294.203 85.721,310.995 147.249,319.54 C175.906,323.52 207.205,325.715 239.999,325.715 C353.365,325.715 448.936,299.536 478.819,263.76 C479.588,255.942 479.999,248.02 479.999,240.001 C479.999,235.984 479.749,232.03 479.553,228.062 C436.406,258.703 345.42,279.848 240,279.848 Z" id="Shape" fill="#FF7400"></path>
            <path d="M1.18,263.76 C1.174,263.697 1.171,263.634 1.165,263.571 C0.79,259.729 0.498,255.863 0.302,251.97 C0.108,248.004 0,244.015 0,240 C0,248.019 0.411,255.942 1.18,263.76 C1.18,263.759 1.18,263.759 1.18,263.76 Z" id="Shape" fill="#FF7400"></path>
            <path d="M3.047,265.878 C2.403,265.176 1.776,264.472 1.183,263.763 C1.776,264.472 2.404,265.177 3.047,265.878 Z" id="Shape" fill="#FF7400"></path>
            <path d="M7.901,270.668 C7.119,269.965 6.361,269.258 5.632,268.546 C6.361,269.258 7.119,269.965 7.901,270.668 Z" id="Shape" fill="#FF7400"></path>
            <path d="M5.322,268.236 C4.718,267.639 4.134,267.038 3.567,266.435 C4.133,267.038 4.718,267.639 5.322,268.236 Z" id="Shape" fill="#FF7400"></path>
            <path d="M10.502,272.909 C9.731,272.271 8.983,271.628 8.255,270.982 C8.982,271.628 9.731,272.27 10.502,272.909 Z" id="Shape" fill="#FF7400"></path>
            <path d="M436.04,378.364 C451.354,356.707 463.157,332.415 470.654,306.283 C447.57,326.051 403.75,342.171 348.467,351.43 L317.145,355.791 C292.859,358.523 266.929,360 240,360 C210.505,360 182.21,358.228 155.961,354.977 C159.884,366.908 164.801,378.377 170.463,389.4 C166.178,387.315 161.946,385.239 157.773,383.248 C161.895,385.215 166.076,387.266 170.307,389.325 C192.409,400.081 215.924,411.064 240,411.429 C319.685,412.636 390.552,398.475 436.04,378.364 Z" id="Shape" fill="#FFEDB9"></path>
            <path d="M143.784,376.911 C143.425,376.76 143.067,376.612 142.71,376.464 C143.067,376.612 143.425,376.76 143.784,376.911 Z" id="Shape" fill="#FFEDB9"></path>
            <path d="M141.881,376.124 C141.535,375.983 141.19,375.844 140.845,375.706 C141.19,375.844 141.535,375.982 141.881,376.124 Z" id="Shape" fill="#FFEDB9"></path>
            <path d="M138.122,374.641 C137.794,374.516 137.468,374.395 137.141,374.273 C137.468,374.395 137.794,374.516 138.122,374.641 Z" id="Shape" fill="#FFEDB9"></path>
            <path d="M145.699,377.726 C145.324,377.564 144.949,377.405 144.575,377.246 C144.949,377.404 145.323,377.564 145.699,377.726 Z" id="Shape" fill="#FFEDB9"></path>
            <path d="M139.997,375.367 C139.66,375.234 139.324,375.104 138.989,374.974 C139.325,375.105 139.66,375.235 139.997,375.367 Z" id="Shape" fill="#FFEDB9"></path>
            <path d="M147.626,378.566 C147.234,378.393 146.842,378.222 146.451,378.052 C146.843,378.222 147.234,378.393 147.626,378.566 Z" id="Shape" fill="#FFEDB9"></path>
            <path d="M151.527,380.321 C151.095,380.123 150.664,379.927 150.233,379.732 C150.664,379.927 151.095,380.123 151.527,380.321 Z" id="Shape" fill="#FFEDB9"></path>
            <path d="M149.564,379.43 C149.154,379.245 148.745,379.063 148.336,378.881 C148.745,379.063 149.154,379.245 149.564,379.43 Z" id="Shape" fill="#FFEDB9"></path>
            <path d="M125.339,370.555 C125.036,370.48 124.735,370.411 124.433,370.339 C124.735,370.411 125.036,370.48 125.339,370.555 Z" id="Shape" fill="#FFEDB9"></path>
            <path d="M123.559,370.134 C123.253,370.065 122.949,370.003 122.644,369.939 C122.949,370.003 123.253,370.065 123.559,370.134 Z" id="Shape" fill="#FFEDB9"></path>
            <path d="M127.126,371.019 C126.827,370.938 126.53,370.863 126.233,370.785 C126.531,370.863 126.828,370.939 127.126,371.019 Z" id="Shape" fill="#FFEDB9"></path>
            <path d="M153.525,381.244 C153.053,381.024 152.582,380.807 152.112,380.59 C152.582,380.807 153.053,381.024 153.525,381.244 Z" id="Shape" fill="#FFEDB9"></path>
            <path d="M128.932,371.528 C128.631,371.44 128.332,371.357 128.033,371.273 C128.332,371.357 128.632,371.44 128.932,371.528 Z" id="Shape" fill="#FFEDB9"></path>
            <path d="M134.409,373.287 C134.096,373.178 133.785,373.073 133.473,372.967 C133.785,373.073 134.097,373.178 134.409,373.287 Z" id="Shape" fill="#FFEDB9"></path>
            <path d="M136.261,373.947 C135.941,373.83 135.621,373.717 135.302,373.603 C135.621,373.717 135.941,373.83 136.261,373.947 Z" id="Shape" fill="#FFEDB9"></path>
            <path d="M130.747,372.076 C130.44,371.98 130.135,371.889 129.829,371.797 C130.135,371.889 130.441,371.98 130.747,372.076 Z" id="Shape" fill="#FFEDB9"></path>
            <path d="M132.573,372.663 C132.263,372.56 131.954,372.462 131.645,372.363 C131.954,372.462 132.262,372.56 132.573,372.663 Z" id="Shape" fill="#FFEDB9"></path>
            <path d="M105.773,371.005 C106.873,369.452 108.664,368.517 111.428,368.571 C111.993,368.582 112.56,368.603 113.128,368.634 C112.559,368.604 111.993,368.582 111.428,368.571 C108.665,368.517 106.874,369.452 105.773,371.005 Z" id="Shape" fill="#FFEDB9"></path>
            <path d="M105.971,386.486 C106.242,387.426 106.531,388.351 106.829,389.247 C106.531,388.351 106.241,387.426 105.971,386.486 Z" id="Shape" fill="#FFEDB9"></path>
            <path d="M14.426,310.336 C14.51,310.398 14.591,310.461 14.675,310.523 C14.591,310.461 14.51,310.398 14.426,310.336 Z" id="Shape" fill="#FFEDB9"></path>
            <path d="M17.344,312.428 C17.465,312.512 17.588,312.595 17.71,312.678 C17.589,312.595 17.465,312.512 17.344,312.428 Z" id="Shape" fill="#FFEDB9"></path>
            <path d="M110.351,398.177 C110.5,398.502 110.608,398.731 110.663,398.847 C110.608,398.731 110.5,398.502 110.351,398.177 Z" id="Shape" fill="#FFEDB9"></path>
            <path d="M11.648,308.195 C11.84,308.348 12.034,308.501 12.228,308.654 C12.034,308.501 11.84,308.348 11.648,308.195 Z" id="Shape" fill="#FFEDB9"></path>
            <path d="M9.352,306.304 C16.853,332.441 28.661,356.737 43.982,378.396 C55.948,383.683 69.664,388.474 84.831,392.667 C69.664,388.474 55.948,383.682 43.982,378.395 C28.662,356.737 16.853,332.441 9.352,306.304 Z" id="Shape" fill="#FFEDB9"></path>
            <path d="M20.401,314.475 C20.447,314.505 20.491,314.534 20.536,314.564 C20.491,314.534 20.446,314.505 20.401,314.475 Z" id="Shape" fill="#FFEDB9"></path>
            <path d="M121.793,369.76 C121.482,369.698 121.173,369.643 120.863,369.585 C121.173,369.642 121.482,369.698 121.793,369.76 Z" id="Shape" fill="#FFEDB9"></path>
            <path d="M105.298,383.921 C105.502,384.78 105.727,385.639 105.971,386.486 C105.727,385.639 105.502,384.781 105.298,383.921 Z" id="Shape" fill="#FFEDB9"></path>
            <path d="M155.529,382.183 C155.015,381.94 154.501,381.7 153.989,381.461 C154.502,381.7 155.015,381.94 155.529,382.183 Z" id="Shape" fill="#FFEDB9"></path>
            <path d="M120.036,369.432 C119.72,369.377 119.405,369.33 119.09,369.28 C119.405,369.33 119.719,369.377 120.036,369.432 Z" id="Shape" fill="#FFEDB9"></path>
            <path d="M157.56,383.146 C157.001,382.88 156.444,382.615 155.887,382.352 C156.444,382.615 157.001,382.879 157.56,383.146 Z" id="Shape" fill="#FFEDB9"></path>
            <path d="M118.292,369.154 C117.967,369.107 117.645,369.068 117.321,369.026 C117.644,369.067 117.967,369.106 118.292,369.154 Z" id="Shape" fill="#FFEDB9"></path>
            <path d="M116.557,368.927 C116.202,368.886 115.849,368.854 115.496,368.819 C115.85,368.853 116.202,368.885 116.557,368.927 Z" id="Shape" fill="#FFEDB9"></path>
            <path d="M105.353,371.695 C105.081,372.212 104.862,372.774 104.703,373.387 C104.861,372.775 105.081,372.212 105.353,371.695 Z" id="Shape" fill="#FFEDB9"></path>
            <path d="M114.84,368.753 C114.427,368.718 114.016,368.692 113.605,368.667 C114.015,368.692 114.426,368.718 114.84,368.753 Z" id="Shape" fill="#FFEDB9"></path>
            <path d="M251.461,479.721 C252.23,479.685 252.997,479.641 253.764,479.598 C254.889,479.534 256.013,479.464 257.134,479.384 C257.956,479.326 258.777,479.266 259.597,479.199 C260.651,479.114 261.701,479.018 262.751,478.919 C263.609,478.838 264.467,478.761 265.322,478.671 C266.304,478.568 267.281,478.45 268.26,478.335 C272.122,477.881 275.956,477.338 279.759,476.702 C280.26,476.618 280.763,476.54 281.264,476.453 C282.562,476.228 283.854,475.987 285.145,475.741 C285.575,475.659 286.006,475.578 286.436,475.494 C287.811,475.224 289.183,474.943 290.55,474.649 C290.81,474.593 291.07,474.536 291.329,474.479 C327.244,466.634 360.147,450.736 388.08,428.796 C346.706,439.403 295.517,445.713 240.001,445.713 C229.829,445.713 219.804,445.499 209.957,445.088 C222.211,457.999 235.828,469.605 250.673,479.543 C247.115,479.701 243.596,480 240,480 C241.922,480 243.837,479.972 245.748,479.927 C246.392,479.912 247.033,479.885 247.676,479.865 C248.94,479.825 250.202,479.781 251.461,479.721 Z" id="Shape" fill="#FF7400"></path>
            <path d="M221.198,479.197 C220.146,479.115 219.089,479.052 218.041,478.957 C212.05,478.412 206.123,477.645 200.268,476.666 C199.298,476.504 198.336,476.322 197.371,476.148 C184.9,473.905 172.756,470.731 161.036,466.639 C160.663,466.51 160.285,466.391 159.913,466.259 C153.99,464.158 148.176,461.826 142.476,459.283 C142.114,459.122 141.754,458.956 141.393,458.793 C130.393,453.819 119.83,448.045 109.783,441.544 C133.53,456.93 160.152,468.25 188.68,474.481 C188.934,474.536 189.187,474.592 189.442,474.647 C190.814,474.942 192.19,475.224 193.57,475.495 C193.994,475.578 194.418,475.658 194.843,475.739 C196.138,475.986 197.436,476.227 198.738,476.454 C199.233,476.54 199.731,476.618 200.227,476.701 C204.04,477.339 207.883,477.882 211.754,478.337 C212.726,478.451 213.697,478.568 214.672,478.671 C215.531,478.761 216.393,478.839 217.255,478.92 C218.301,479.019 219.348,479.114 220.398,479.199 C221.219,479.265 222.042,479.326 222.866,479.384 C223.987,479.463 225.11,479.534 226.235,479.598 C227.002,479.641 227.769,479.685 228.538,479.721 C229.797,479.78 231.059,479.825 232.323,479.865 C232.966,479.885 233.607,479.912 234.251,479.927 C236.162,479.972 238.077,480 240,480 C233.665,480 227.408,479.679 221.198,479.197 Z" id="Shape" fill="#FF7400"></path>
            <path d="M98.697,430.47 C98.393,430.397 98.091,430.324 97.787,430.251 C98.091,430.324 98.393,430.397 98.697,430.47 Z" id="Shape" fill="#FF7400"></path>
            <path d="M104.895,431.905 C104.888,431.904 104.882,431.902 104.875,431.901 C104.882,431.902 104.889,431.904 104.895,431.905 Z" id="Shape" fill="#FF7400"></path>
            <polygon id="Shape" fill="#FF7400" points="91.92 428.796 91.924 428.797"></polygon>
            <path d="M98.265,433.599 C101.877,436.249 105.565,438.799 109.326,441.248 C105.563,438.801 101.877,436.247 98.265,433.599 Z" id="Shape" fill="#FF7400"></path>
            <path d="M91.926,428.801 C93.623,430.134 95.344,431.436 97.077,432.723 C95.344,431.436 93.623,430.133 91.926,428.801 Z" id="Shape" fill="#FF7400"></path>
            <path d="M144.092,273.674 C144.605,254.236 147.463,235.389 152.326,217.363 C152.327,217.359 152.328,217.355 152.329,217.351 C152.311,217.349 152.293,217.346 152.276,217.344 C88.113,208.989 36.634,191.747 10.412,169.966 C8.862,175.055 7.519,180.233 6.301,185.459 C6.108,186.289 5.91,187.116 5.726,187.949 C4.543,193.282 3.501,198.667 2.679,204.126 C2.672,204.177 2.667,204.229 2.659,204.279 C1.888,209.427 1.34,214.646 0.902,219.895 C0.795,221.188 0.693,222.482 0.606,223.781 C0.246,229.146 0,234.543 0,240 C0,235.983 0.25,232.029 0.447,228.062 C29.746,248.868 81.136,265.272 144.092,273.674 Z" id="Shape" fill="#FF7400"></path>
            <path d="M1.166,263.571 C1.172,263.634 1.174,263.697 1.181,263.76 C1.182,263.761 1.183,263.762 1.184,263.764 C1.777,264.473 2.404,265.177 3.048,265.879 C3.219,266.065 3.393,266.25 3.567,266.436 C4.134,267.039 4.718,267.64 5.322,268.237 C5.426,268.34 5.526,268.444 5.632,268.548 C6.361,269.26 7.119,269.967 7.901,270.67 C8.017,270.775 8.138,270.879 8.256,270.983 C8.984,271.629 9.731,272.272 10.503,272.91 C10.593,272.985 10.681,273.06 10.773,273.134 C36.428,294.194 85.817,310.944 147.354,319.488 C145.22,306.629 144,293.463 144,280 C144,277.89 144.1,275.804 144.155,273.708 C144.155,273.7 144.155,273.692 144.156,273.684 C144.135,273.681 144.114,273.678 144.093,273.675 C81.138,265.273 29.747,248.869 0.448,228.062 C0.25,232.029 0,235.983 0,240 C0,244.015 0.108,248.004 0.303,251.97 C0.498,255.862 0.791,259.728 1.166,263.571 Z" id="Shape" fill="#D55A00"></path>
            <path d="M176.153,160 C182.817,148.484 190.431,137.597 198.852,127.396 C198.854,127.393 198.856,127.39 198.859,127.388 C198.849,127.387 198.838,127.387 198.828,127.386 C166.526,125.527 136.333,121.523 109.524,115.812 C109.508,115.809 109.493,115.805 109.477,115.802 C108.064,115.501 106.663,115.193 105.269,114.883 C104.96,114.814 104.652,114.745 104.344,114.676 C103.045,114.384 101.753,114.088 100.472,113.787 C100.127,113.706 99.784,113.624 99.44,113.542 C95.533,112.617 91.71,111.653 87.968,110.654 C87.488,110.526 87.003,110.4 86.526,110.27 C85.584,110.015 84.654,109.755 83.723,109.495 C83.036,109.304 82.351,109.112 81.67,108.918 C80.816,108.674 79.968,108.428 79.123,108.18 C78.362,107.957 77.606,107.732 76.852,107.505 C76.078,107.273 75.304,107.04 74.538,106.804 C73.647,106.53 72.767,106.251 71.888,105.972 C71.266,105.775 70.638,105.581 70.023,105.381 C68.58,104.914 67.154,104.442 65.743,103.964 C65.246,103.796 64.76,103.623 64.267,103.454 C63.283,103.115 62.302,102.774 61.335,102.429 C60.78,102.231 60.232,102.031 59.682,101.831 C58.775,101.501 57.874,101.169 56.982,100.835 C56.451,100.636 55.922,100.437 55.397,100.236 C54.447,99.873 53.509,99.506 52.577,99.137 C52.143,98.965 51.705,98.795 51.275,98.622 C49.923,98.079 48.586,97.531 47.273,96.976 C47.262,96.99 47.253,97.005 47.243,97.019 C44.346,100.917 41.595,104.927 38.942,109.006 C38.559,109.592 38.186,110.185 37.808,110.775 C35.218,114.835 32.718,118.959 30.363,123.174 C30.363,123.174 30.359,123.18 30.357,123.183 C30.357,123.183 30.357,123.183 30.357,123.183 C30.38,123.195 30.404,123.207 30.427,123.22 C31.643,123.876 32.891,124.524 34.157,125.168 C34.551,125.368 34.952,125.567 35.35,125.766 C36.306,126.243 37.275,126.717 38.258,127.188 C38.669,127.385 39.077,127.582 39.492,127.777 C40.829,128.406 42.182,129.029 43.567,129.645 C43.628,129.672 43.69,129.698 43.75,129.726 C45.115,130.331 46.509,130.928 47.92,131.52 C48.373,131.71 48.832,131.898 49.289,132.087 C50.354,132.526 51.432,132.962 52.522,133.394 C52.991,133.58 53.458,133.766 53.932,133.951 C55.416,134.529 56.916,135.102 58.445,135.666 C58.55,135.705 58.657,135.743 58.762,135.781 C60.247,136.327 61.756,136.864 63.281,137.396 C63.796,137.576 64.317,137.753 64.836,137.931 C65.996,138.328 67.167,138.722 68.349,139.112 C68.88,139.287 69.409,139.463 69.945,139.636 C71.545,140.154 73.159,140.667 74.798,141.17 C74.986,141.228 75.176,141.284 75.364,141.342 C76.935,141.821 78.526,142.293 80.131,142.759 C80.714,142.928 81.302,143.095 81.889,143.262 C83.122,143.613 84.365,143.96 85.618,144.304 C86.218,144.468 86.816,144.633 87.42,144.796 C89.105,145.249 90.804,145.696 92.523,146.134 C92.824,146.211 93.127,146.286 93.429,146.362 C95.054,146.772 96.696,147.175 98.351,147.572 C99.007,147.729 99.668,147.884 100.329,148.039 C101.622,148.343 102.924,148.642 104.235,148.938 C104.901,149.088 105.565,149.239 106.235,149.387 C107.992,149.775 109.762,150.157 111.548,150.529 C111.965,150.616 112.386,150.702 112.804,150.788 C114.473,151.132 116.156,151.469 117.85,151.799 C118.575,151.941 119.306,152.079 120.035,152.218 C121.373,152.473 122.719,152.724 124.072,152.97 C124.811,153.105 125.548,153.24 126.291,153.372 C128.1,153.694 129.921,154.009 131.756,154.316 C132.295,154.406 132.837,154.494 133.378,154.583 C135.079,154.862 136.79,155.135 138.512,155.402 C139.301,155.524 140.095,155.642 140.887,155.762 C142.273,155.97 143.665,156.174 145.064,156.374 C145.858,156.487 146.651,156.602 147.449,156.712 C149.328,156.972 151.217,157.225 153.119,157.47 C153.736,157.549 154.356,157.626 154.975,157.704 C156.72,157.923 158.474,158.136 160.238,158.343 C161.077,158.441 161.922,158.536 162.765,158.631 C164.197,158.793 165.635,158.949 167.078,159.102 C167.921,159.191 168.763,159.281 169.61,159.367 C171.56,159.565 173.52,159.756 175.49,159.939 C175.712,159.957 175.931,159.979 176.153,160 Z" id="Shape" fill="#FFD042"></path>
            <path d="M250.672,479.544 C235.827,469.605 222.21,458 209.956,445.089 C209.933,445.064 209.908,445.041 209.885,445.016 C209.843,445.014 209.802,445.012 209.761,445.01 C171.446,443.396 135.8,438.815 104.896,431.905 C104.889,431.904 104.883,431.902 104.876,431.901 C102.794,431.435 100.737,430.957 98.698,430.471 C98.394,430.398 98.092,430.325 97.788,430.252 C95.814,429.776 93.856,429.294 91.925,428.799 C91.924,428.799 91.921,428.798 91.921,428.798 C91.923,428.799 91.925,428.801 91.927,428.802 C93.624,430.135 95.345,431.437 97.078,432.724 C97.473,433.017 97.869,433.309 98.266,433.6 C101.879,436.248 105.565,438.803 109.327,441.249 C109.48,441.348 109.632,441.447 109.785,441.546 C119.833,448.047 130.395,453.821 141.395,458.795 C141.756,458.958 142.115,459.124 142.478,459.285 C148.177,461.828 153.991,464.16 159.915,466.261 C160.287,466.393 160.665,466.511 161.038,466.641 C172.759,470.733 184.903,473.907 197.373,476.15 C198.338,476.323 199.3,476.506 200.27,476.668 C206.125,477.647 212.052,478.413 218.043,478.959 C219.091,479.054 220.147,479.117 221.2,479.199 C227.408,479.679 233.665,480 240,480 C243.596,480 247.115,479.701 250.672,479.544 Z" id="Shape" fill="#D55A00"></path>
            <path d="M168,416 C168.5,404.5 161.667,397.667 152,392 C139.792,384.844 118.5,380 120,392 C121.5,404 167.5,427.5 168,416 Z" id="Shape" fill="#FFD042"></path>
            <ellipse id="Oval" fill="#FF9300" cx="252" cy="216" rx="12" ry="8"></ellipse>
        </g>
    </g>
</svg>