<?xml version="1.0" encoding="UTF-8"?>
<svg width="512px" height="372px" viewBox="0 0 512 372" version="1.1" xmlns="http://www.w3.org/2000/svg" xmlns:xlink="http://www.w3.org/1999/xlink">
    <!-- Generator: Sketch 49 (51002) - http://www.bohemiancoding.com/sketch -->
    <title>population</title>
    <desc>Created with Sketch.</desc>
    <defs></defs>
    <g id="Page-1" stroke="none" stroke-width="1" fill="none" fill-rule="evenodd" opacity="0.2">
        <g id="population" fill-rule="nonzero">
            <g id="Group-6" transform="translate(99.000000, 99.000000)">
                <path d="M18,24.545999 L18,28.8840036 C18,34.1996499 18.8596512,39.4801132 20.5451683,44.5225289 L30.4,74 L49,74 L49,6 L36.6,6 C26.3277307,6.00074858 18,14.3032178 18,24.545999 Z" id="Shape" fill="#5A4146"></path>
                <path d="M104.076864,37.9828651 L93.5007566,75 L43.5,31.25 C36.5960886,31.25 31,25.6531545 31,18.75 C31,8.3948898 39.3948897,0 49.7499999,0 L93.4999997,0 C100.403911,0 105.999999,5.59684548 105.999999,12.5 L105.999999,24.2476992 C106.000756,28.8924376 105.3529,33.5152277 104.076864,37.9828651 Z" id="Shape" fill="#694B4B"></path>
                <rect id="Rectangle-path" fill="#E6AF78" x="43" y="93" width="37" height="28"></rect>
                <path d="M43,104.358009 C48.719363,106.688165 54.9562243,108 61.5,108 C68.0437757,108 74.280637,106.688165 80,104.358009 L80,93 L43,93 L43,104.358009 Z" id="Shape" fill="#D29B6E"></path>
                <path d="M110.509188,117.550569 L80.5980104,109.000751 L61.9996246,121.349236 L43.3997372,109 L13.4900612,117.550569 C5.5047378,119.833375 0,127.1355 0,135.444192 L0,180.796837 C0,184.222924 2.77564316,187 6.19996246,187 L117.800038,187 C121.224357,187 124,184.222924 124,180.796837 L124,135.444192 C124,127.134748 118.494511,119.833375 110.509188,117.550569 Z" id="Shape" fill="#435B94"></path>
                <polygon id="Shape" fill="#AFB9D2" points="68 187 56 187 59 121 65 121"></polygon>
                <path d="M62.4996216,99 C41.7888533,99 25,82.3750104 25,61.8680588 L25,54.617483 C25,51.3350517 26.3168915,48.1867655 28.6608071,45.8650824 L39.9943994,34.6426149 C42.3943207,32.2662247 45.6759539,30.9000438 49.0680848,31.0057111 C69.0469944,31.6299726 86.7311826,35.867906 96.398226,45.2168397 C98.7648466,47.5055486 100,50.7070432 100,53.9819803 L100,61.8680588 C100,82.3757598 83.2103898,99 62.4996216,99 Z" id="Shape" fill="#F0C087"></path>
                <path d="M43.5428505,56.3331385 C43.5428505,49.1431066 49.5306927,43.4279143 56.6464948,43.8853109 C69.1244096,44.6883965 87.6403148,46.7912129 99,52.3011051 C98.6295023,49.6714524 97.5090273,47.1889818 95.6101328,45.3186376 C86.0497942,35.9027602 68.5608039,31.6344807 48.8024214,31.0057492 L48.801673,31.0065039 L48.801673,31.0057492 C45.4477328,30.8993252 42.2015738,32.2760435 39.8288913,34.6686953 L28.6211476,45.9707673 C26.3023557,48.3083202 25,51.4791499 25,54.78584 L25,62.0883342 C25,79.1433374 36.3327399,93.5030222 51.8105637,98 C46.6587739,91.5904103 43.543599,83.4538846 43.543599,74.5542765 L43.5428505,56.3331385 Z" id="Shape" fill="#E6AF78"></path>
                <path d="M99,153.033368 C99,148.113233 100.975357,143.395263 104.491644,139.916501 L120.579832,124 C122.730019,127.040735 124,130.701448 124,134.609253 L124,179.816697 C124,183.231815 121.201956,186 117.75,186 L99,186 L99,153.033368 Z" id="Shape" fill="#5B6E99"></path>
                <path d="M65,133 L59,133 C57.3434246,133 56,131.656575 56,130 L56,121 L68,121 L68,130 C68,131.656575 66.657302,133 65,133 Z" id="Shape" fill="#959CB5"></path>
                <g id="Group" transform="translate(36.000000, 103.000000)" fill="#C7CFE2">
                    <path d="M25.9389565,17.55675 L15.3904928,25.575 C13.5735072,26.9565 10.9463768,26.403 9.84834783,24.4065 L0.385855072,7.209 L4.19466667,1.42725 C5.03947826,0.14475 6.83988406,-0.0735 7.96956522,0.969 L25.9389565,17.55675 Z" id="Shape"></path>
                    <path d="M25.9389565,17.55675 L36.4874203,25.57575 C38.3044058,26.95725 40.9315362,26.40375 42.0295652,24.40725 L51.492058,7.20975 L47.6832464,1.428 C46.8384348,0.1455 45.038029,-0.07275 43.9083478,0.96975 L25.9389565,17.55675 Z" id="Shape"></path>
                </g>
            </g>
            <g id="Group-5" transform="translate(285.000000, 88.000000)">
                <path d="M124.53283,105.437452 C118.600531,89.7137475 113.895546,62.6837431 112.879229,48.6107841 C110.945789,21.8305358 90.7716007,0 63.5000059,0 C36.2284112,0 16.0542233,21.8313768 14.1207831,48.6107841 C13.104466,62.6829022 8.39948123,89.7137475 2.46718223,105.437452 C1.16000851,108.903764 2.66893251,112.72579 6.08103421,114.2731 C12.4378494,117.154967 25.9912655,122.800969 42.3372417,125 L84.6619296,125 C100.931409,122.795923 114.579816,117.146557 120.918137,114.2731 C124.331079,112.72579 125.840003,108.903764 124.53283,105.437452 Z" id="Shape" fill="#5A4146"></path>
                <path d="M119.929286,114.2731 C123.332319,112.72579 124.838443,108.903764 123.533583,105.437452 C117.616431,89.7137475 112.921955,62.6837431 111.908928,48.6107841 C109.98099,21.8305358 89.854621,0 62.6496407,0 C62.5808756,0 62.5129491,0 62.444184,0.000840929732 C41.5689467,0.0857748327 34.1917939,28.6344983 52.1621254,39.2865552 C53.2414019,39.9265027 53.9332458,40.234283 53.9332458,40.234283 L69.6729047,125 L83.7605242,125 C99.9907634,122.794241 113.606252,117.145716 119.929286,114.2731 Z" id="Shape" fill="#694B4B"></path>
                <path d="M113.483467,139.449734 L91.0104612,128.225147 C86.3046184,125.874545 83.3319318,121.069168 83.3327727,115.813498 L83.3344546,95 L41.6663864,95 L41.6663864,115.814338 C41.6663864,121.070008 38.6945407,125.873705 33.9886979,128.224307 L11.5156917,139.449734 C4.45776851,142.974797 0,150.181182 0,158.063848 L0,199.062447 C0,202.893307 3.10891722,206 6.94439773,206 L118.055602,206 C121.891083,206 125,202.893307 125,199.062447 L125,158.064688 C125,150.181182 120.541391,142.974797 113.483467,139.449734 Z" id="Shape" fill="#E6AF78"></path>
                <path d="M62.0016654,123 C69.4060827,123 76.4982355,121.446234 83,118.68031 C82.8292954,117.797893 82.6302788,116.920562 82.6302788,116.000848 L82.6319442,95 L41.3713867,95 L41.3713867,116.001695 C41.3713867,116.926496 41.17237,117.808065 41,118.693873 C47.5059281,121.445386 54.59475,123 62.0016654,123 Z" id="Shape" fill="#D29B6E"></path>
                <path d="M113.483467,139.046249 L97.4738471,131.000845 C90.0501194,142.522533 77.1746443,150.163934 62.5004205,150.163934 C47.8261966,150.163934 34.9498806,142.522533 27.5261529,131 L11.5165327,139.046249 C4.45860944,142.592684 0,149.84276 0,157.773217 L0,199.020386 C0,202.875317 3.10891722,206 6.94439773,206 L118.055602,206 C121.891083,206 125,202.875317 125,199.020386 L125,157.774063 C125,149.84276 120.541391,142.592684 113.483467,139.046249 Z" id="Shape" fill="#5B133E"></path>
                <path d="M62.4119103,108 C41.2121136,108 23.7083119,92.2611843 21.0617034,71.8886269 C20.6779662,68.9367618 22.1043577,66.0426615 24.7753705,64.7023507 C27.9748635,63.0966566 32.6243108,60.3892454 37.0759989,56.4377981 C42.0334458,52.0376271 44.9417698,47.397188 46.5844342,43.990739 C47.9990443,41.0572917 51.2507121,39.3980186 54.41991,40.20254 C78.8882051,46.4110005 95.5462703,59.0748869 101.590131,64.2452553 C103.212598,65.6332849 104.147537,67.6801681 103.980914,69.8032339 C102.297015,91.1762107 84.3295312,108 62.4119103,108 Z" id="Shape" fill="#F0C087"></path>
                <path d="M101.590743,64.4147816 C95.5475986,59.2082613 78.8883467,46.4558271 54.4195445,40.2039562 C51.2502809,39.3938095 47.9985458,41.0646844 46.5839063,44.0186428 C45.3401008,46.6168449 43.284203,49.9265597 40.2335975,53.3054026 C40.2327559,53.3138328 40.2302313,53.320577 40.2293897,53.3290073 C39.2826501,54.4038637 38.2744775,55.4812492 37.0761155,56.5535766 C32.6243351,60.5334961 27.9747915,63.2589948 24.7752322,64.8759161 C22.1041641,66.2255986 20.6785845,69.1407779 21.0614881,72.1132829 C23.4388566,90.537587 37.8309826,105.202844 56.0908556,108 C47.7704867,102.329816 41.5640823,94.5318379 41.5640823,80.6303611 L41.5640823,70.7029026 C43.1428232,69.5353135 44.7325043,68.3710964 46.3297593,66.9430126 C50.1924571,63.4899836 53.5645334,59.4965757 56.2684219,55.1971499 C74.9869377,61.0485841 87.6774569,70.7947923 92.4885775,74.9391016 C93.8055976,76.0957314 97.0741637,79.1137598 100.89815,82.7075739 C102.543373,78.7411429 103.631493,74.4855543 103.980734,70.0133085 C104.148202,67.8745549 103.213244,65.8133596 101.590743,64.4147816 Z" id="Shape" fill="#E6AF78"></path>
                <path d="M4.2671349,145 C1.5707193,148.520974 0,152.840047 0,157.414311 L0,198.113168 C0,201.916854 3.13380964,205 7,205 L28,205 L28,170.298974 C28,166.115003 26.066481,162.157034 22.7453379,159.543408 L4.2671349,145 Z" id="Shape" fill="#4A1135"></path>
            </g>
            <g id="Group-4">
                <path d="M371.613,157.096 L371.613,162.891 C371.613,169.992 372.758,177.046 375.003,183.782 L388.129,223.16 L412.903,223.16 L412.903,132.321 L396.387,132.321 C382.705,132.322 371.613,143.413 371.613,157.096 Z" id="Shape" fill="#5A4146"></path>
                <path d="M484.684,174.251 L470.71,223.161 L404.645,165.355 C395.523,165.355 388.129,157.96 388.129,148.839 C388.129,135.157 399.221,124.065 412.903,124.065 L470.709,124.065 C479.831,124.065 487.225,131.46 487.225,140.581 L487.225,156.103 C487.226,162.24 486.37,168.348 484.684,174.251 Z" id="Shape" fill="#694B4B"></path>
                <rect id="Rectangle-path" fill="#E6AF78" x="404.64" y="247.94" width="49.548" height="36.549"></rect>
                <path d="M404.645,263.104 C412.304,266.216 420.656,267.968 429.419,267.968 C438.182,267.968 446.534,266.216 454.193,263.104 L454.193,247.935 L404.645,247.935 L404.645,263.104 Z" id="Shape" fill="#D29B6E"></path>
                <path d="M494.031,279.351 L454.191,267.969 L429.419,284.408 L404.645,267.968 L364.807,279.351 C354.171,282.39 346.839,292.111 346.839,303.172 L346.839,363.548 C346.839,368.109 350.536,371.806 355.097,371.806 L503.742,371.806 C508.303,371.806 512,368.109 512,363.548 L512,303.172 C512,292.11 504.667,282.39 494.031,279.351 Z" id="Shape" fill="#D5DCED"></path>
                <polygon id="Shape" fill="#AFB9D2" points="437.677 371.805 421.161 371.805 425.29 284.484 433.548 284.484"></polygon>
                <path d="M429.419,256.193 C402.054,256.193 379.871,234.009 379.871,206.645 L379.871,196.97 C379.871,192.59 381.611,188.389 384.708,185.291 L399.683,170.316 C402.854,167.145 407.19,165.322 411.672,165.463 C438.07,166.296 461.436,171.951 474.209,184.426 C477.336,187.48 478.968,191.752 478.968,196.122 L478.968,206.645 C478.968,234.01 456.784,256.193 429.419,256.193 Z" id="Shape" fill="#F0C087"></path>
                <path d="M404.645,199.018 C404.645,189.492 412.645,181.92 422.152,182.526 C438.823,183.59 463.561,186.376 478.738,193.676 C478.243,190.192 476.746,186.903 474.209,184.425 C461.436,171.95 438.07,166.295 411.672,165.462 L411.671,165.463 L411.671,165.462 C407.19,165.321 402.853,167.145 399.683,170.315 L384.709,185.289 C381.611,188.386 379.871,192.587 379.871,196.968 L379.871,206.643 C379.871,229.239 395.012,248.264 415.691,254.222 C408.808,245.73 404.646,234.95 404.646,223.159 L404.645,199.018 Z" id="Shape" fill="#E6AF78"></path>
                <path d="M478.968,327.779 C478.968,321.208 481.578,314.907 486.224,310.261 L507.481,289.004 C510.322,293.065 512,297.954 512,303.173 L512,363.549 C512,368.11 508.303,371.807 503.742,371.807 L478.968,371.807 L478.968,327.779 Z" id="Shape" fill="#C7CFE2"></path>
                <path d="M433.548,301 L425.29,301 C423.01,301 421.161,299.151 421.161,296.871 L421.161,284.484 L437.677,284.484 L437.677,296.871 C437.677,299.151 435.829,301 433.548,301 Z" id="Shape" fill="#959CB5"></path>
                <g id="Group" transform="translate(395.000000, 261.000000)" fill="#C7CFE2">
                    <path d="M34.419,23.409 L20.422,34.1 C18.011,35.942 14.525,35.204 13.068,32.542 L0.512,9.612 L5.566,1.903 C6.687,0.193 9.076,-0.098 10.575,1.292 L34.419,23.409 Z" id="Shape"></path>
                    <path d="M34.419,23.409 L48.416,34.101 C50.827,35.943 54.313,35.205 55.77,32.543 L68.326,9.613 L63.272,1.904 C62.151,0.194 59.762,-0.097 58.263,1.293 L34.419,23.409 Z" id="Shape"></path>
                </g>
                <path d="M147.822,252.745 C140.765,234.047 135.168,201.904 133.959,185.169 C131.659,153.323 107.66,127.363 75.218,127.363 C42.776,127.363 18.777,153.324 16.477,185.169 C15.268,201.903 9.671,234.047 2.614,252.745 C1.059,256.867 2.854,261.412 6.913,263.252 C14.475,266.679 30.598,273.393 50.043,276.008 L100.392,276.008 C119.746,273.387 135.982,266.669 143.522,263.252 C147.582,261.412 149.377,256.867 147.822,252.745 Z" id="Shape" fill="#5A4146"></path>
                <path d="M143.523,263.253 C147.581,261.413 149.377,256.868 147.821,252.746 C140.765,234.048 135.167,201.905 133.959,185.17 C131.66,153.324 107.66,127.364 75.219,127.364 C75.137,127.364 75.056,127.364 74.974,127.365 C50.081,127.466 41.284,161.415 62.713,174.082 C64,174.843 64.825,175.209 64.825,175.209 L83.594,276.009 L100.393,276.009 C119.747,273.386 135.983,266.669 143.523,263.253 Z" id="Shape" fill="#694B4B"></path>
                <path d="M134.95,292.588 L108.226,279.227 C102.63,276.429 99.095,270.709 99.096,264.453 L99.098,239.678 L49.548,239.678 L49.548,264.454 C49.548,270.71 46.014,276.428 40.418,279.226 L13.694,292.588 C5.301,296.784 0,305.362 0,314.745 L0,363.547 C0,368.107 3.697,371.805 8.258,371.805 L140.387,371.805 C144.948,371.805 148.645,368.107 148.645,363.547 L148.645,314.746 C148.645,305.362 143.343,296.784 134.95,292.588 Z" id="Shape" fill="#E6AF78"></path>
                <path d="M74.323,272.709 C83.215,272.709 91.732,270.876 99.54,267.613 C99.335,266.572 99.096,265.537 99.096,264.452 L99.098,239.677 L49.548,239.677 L49.548,264.453 C49.548,265.544 49.309,266.584 49.102,267.629 C56.915,270.875 65.428,272.709 74.323,272.709 Z" id="Shape" fill="#D29B6E"></path>
                <path d="M134.95,292.588 L115.912,283.069 C107.084,296.701 91.773,305.742 74.323,305.742 C56.873,305.742 41.561,296.701 32.733,283.068 L13.695,292.588 C5.302,296.784 0,305.362 0,314.745 L0,363.547 C0,368.108 3.697,371.805 8.258,371.805 L140.387,371.805 C144.948,371.805 148.645,368.108 148.645,363.547 L148.645,314.746 C148.645,305.362 143.343,296.784 134.95,292.588 Z" id="Shape" fill="#D5DCED"></path>
                <path d="M74.323,256.193 C49.131,256.193 28.331,237.393 25.186,213.058 C24.73,209.532 26.425,206.075 29.599,204.474 C33.401,202.556 38.926,199.322 44.216,194.602 C50.107,189.346 53.563,183.803 55.515,179.734 C57.196,176.23 61.06,174.248 64.826,175.209 C93.902,182.625 113.697,197.752 120.879,203.928 C122.807,205.586 123.918,208.031 123.72,210.567 C121.719,236.097 100.368,256.193 74.323,256.193 Z" id="Shape" fill="#F0C087"></path>
                <path d="M120.878,203.927 C113.697,197.751 93.901,182.624 64.825,175.208 C61.059,174.247 57.195,176.229 55.514,179.733 C54.036,182.815 51.593,186.741 47.968,190.749 C47.967,190.759 47.964,190.767 47.963,190.777 C46.838,192.052 45.64,193.33 44.216,194.602 C38.926,199.323 33.401,202.556 29.599,204.474 C26.425,206.075 24.731,209.533 25.186,213.059 C28.011,234.914 45.113,252.31 66.811,255.628 C56.924,248.902 49.549,239.652 49.549,223.162 L49.549,211.386 C51.425,210.001 53.314,208.62 55.212,206.926 C59.802,202.83 63.809,198.093 67.022,192.993 C89.265,199.934 104.345,211.495 110.062,216.411 C111.627,217.783 115.511,221.363 120.055,225.626 C122.01,220.921 123.303,215.873 123.718,210.568 C123.917,208.031 122.806,205.586 120.878,203.927 Z" id="Shape" fill="#E6AF78"></path>
                <path d="M5.034,299.859 C1.853,304.081 0,309.26 0,314.745 L0,363.547 C0,368.108 3.697,371.805 8.258,371.805 L33.032,371.805 L33.032,330.195 C33.032,325.178 30.751,320.432 26.833,317.298 L5.034,299.859 Z" id="Shape" fill="#C7CFE2"></path>
                <path d="M374.643,281.318 L305.548,256.192 L256,272.709 L206.452,256.193 L137.357,281.319 C124.303,286.066 115.613,298.472 115.613,312.362 L115.613,363.548 C115.613,368.108 119.31,371.806 123.871,371.806 L388.129,371.806 C392.69,371.806 396.387,368.108 396.387,363.548 L396.387,312.362 C396.387,298.471 387.698,286.065 374.643,281.318 Z" id="Shape" fill="#FF507D"></path>
                <polygon id="Shape" fill="#707487" points="247.349 289.226 239.484 371.805 272.516 371.805 264.651 289.226"></polygon>
                <path d="M264.67,300.571 L247.33,300.571 C244.137,300.571 241.549,297.983 241.549,294.79 L241.549,272.709 L270.45,272.709 L270.45,294.79 C270.451,297.982 267.863,300.571 264.67,300.571 Z" id="Shape" fill="#5B5D6E"></path>
                <path d="M387.498,289.855 C393.074,295.84 396.387,303.811 396.387,312.361 L396.387,363.547 C396.387,368.108 392.69,371.805 388.129,371.805 L346.839,371.805 L346.839,344.197 C346.839,335.436 350.319,327.034 356.514,320.84 L387.498,289.855 Z" id="Shape" fill="#D23C69"></path>
                <path d="M346.839,85.889 L346.839,16.709 C346.839,7.587 339.444,0.193 330.323,0.193 L231.226,0.193 C194.74,0.193 165.161,29.771 165.161,66.258 L165.161,85.889 C165.161,94.765 166.592,103.583 169.399,112.003 L172.148,120.25 C172.99,122.776 173.419,125.421 173.419,128.084 L173.419,132.322 L338.58,132.322 L338.58,128.084 C338.58,125.421 339.009,122.776 339.851,120.25 L342.6,112.003 C345.408,103.582 346.839,94.764 346.839,85.889 Z" id="Shape" fill="#5A4146"></path>
                <path d="M206.452,33.741 C206.452,52.269 221.472,67.289 240,67.289 L244.645,67.289 L246.887,132.321 L338.58,132.321 L338.58,128.083 C338.58,125.42 339.009,122.775 339.851,120.249 L342.6,112.002 C345.407,103.582 346.838,94.764 346.838,85.888 L346.838,16.709 C346.838,7.587 339.443,0.193 330.322,0.193 L240,0.193 C221.472,0.193 206.452,15.213 206.452,33.741 Z" id="Shape" fill="#694B4B"></path>
                <rect id="Rectangle-path" fill="#E6AF78" x="206.45" y="198.39" width="99.1" height="74.32"></rect>
                <path d="M206.452,226.31 C221.04,234.761 237.929,239.676 256,239.676 C274.071,239.676 290.961,234.761 305.548,226.31 L305.548,198.386 L206.451,198.386 L206.452,226.31 Z" id="Shape" fill="#D29B6E"></path>
                <g id="Group" transform="translate(189.000000, 242.000000)" fill="#D23C69">
                    <path d="M67,30.709 L40.662,57.047 C37.122,60.587 31.271,60.188 28.245,56.2 L0.936,20.216 L8.079,5.163 C10.187,0.721 15.685,-0.907 19.871,1.673 L67,30.709 Z" id="Shape"></path>
                    <path d="M67,30.709 L93.338,57.047 C96.878,60.587 102.729,60.188 105.755,56.2 L133.064,20.216 L125.921,5.163 C123.813,0.721 118.315,-0.907 114.129,1.673 L67,30.709 Z" id="Shape"></path>
                </g>
                <path d="M256,223.161 C210.392,223.161 173.419,186.188 173.419,140.58 L173.419,130.905 C173.419,126.525 175.159,122.324 178.256,119.226 L185.097,112.385 C188.194,109.288 189.934,105.087 189.934,100.706 L189.934,80.91 C189.934,77.086 192.502,73.764 196.223,72.885 C215.754,68.272 276.531,57.345 317.892,87.765 C320.578,89.74 322.063,92.985 322.063,96.319 L322.063,100.706 C322.063,105.086 323.803,109.287 326.9,112.385 L333.741,119.226 C336.838,122.323 338.578,126.524 338.578,130.905 L338.578,140.58 C338.581,186.188 301.608,223.161 256,223.161 Z" id="Shape" fill="#F0C087"></path>
                <path d="M317.893,87.766 C288.803,66.371 250.162,65.445 222.968,68.374 C211.497,69.609 202.019,71.518 196.225,72.886 C192.504,73.765 189.936,77.087 189.936,80.911 L189.936,100.706 C189.936,105.087 188.196,109.288 185.098,112.386 L178.257,119.227 C175.159,122.325 173.419,126.526 173.419,130.907 L173.419,140.581 C173.419,182.805 205.129,217.566 246.021,222.501 C231.772,207.662 222.967,187.553 222.967,165.355 L222.967,104.994 C222.967,96.625 229.19,89.631 237.493,88.59 C257.311,86.105 293.609,84.611 322.063,100.708 L322.063,96.32 C322.065,92.986 320.577,89.74 317.893,87.766 Z" id="Shape" fill="#E6AF78"></path>
                <path d="M124.502,289.855 C118.926,295.84 115.613,303.811 115.613,312.361 L115.613,363.547 C115.613,368.108 119.31,371.805 123.871,371.805 L165.161,371.805 L165.161,344.197 C165.161,335.436 161.681,327.034 155.486,320.84 L124.502,289.855 Z" id="Shape" fill="#D23C69"></path>
            </g>
        </g>
    </g>
</svg>