<?xml version="1.0" encoding="UTF-8"?>
<svg width="504px" height="504px" viewBox="0 0 504 504" version="1.1" xmlns="http://www.w3.org/2000/svg" xmlns:xlink="http://www.w3.org/1999/xlink">
    <!-- Generator: Sketch 49 (51002) - http://www.bohemiancoding.com/sketch -->
    <title>rocket</title>
    <desc>Created with Sketch.</desc>
    <defs></defs>
    <g id="Page-1" stroke="none" stroke-width="1" fill="none" fill-rule="evenodd" opacity="0.2">
        <g id="rocket" fill-rule="nonzero">
            <path d="M156.762,355.214 C178.817,377.269 178.817,413.503 156.762,435.559 C134.707,457.614 69.722,486.365 47.667,464.31 C25.612,442.255 54.362,377.27 76.418,355.215 C98.473,333.159 134.313,333.159 156.762,355.214 Z" id="Shape" fill="#EFC75E"></path>
            <path d="M90.99,344.58 L90.99,346.943 C90.99,387.903 124.467,421.38 165.427,421.38 L167.002,421.38 C178.03,400.112 174.485,373.331 156.368,355.214 C139.039,337.491 112.258,333.946 90.99,344.58 Z" id="Shape" fill="#DEB957"></path>
            <path d="M272.553,231.546 C339.901,298.894 353.291,394.598 289.488,458.401 L259.162,488.727 C195.359,552.53 239.47,399.324 172.122,331.976 C104.774,264.628 -48.826,309.133 15.371,244.936 L45.697,214.61 C109.501,150.808 205.205,164.199 272.553,231.546 Z" id="Shape" fill="#F26C4F"></path>
            <path d="M495.47,8.629 C515.95,29.109 506.892,159.078 381.255,285.109 C299.335,366.635 247.741,395.386 247.741,395.386 C192.996,432.408 166.609,407.201 131.95,372.543 C97.291,337.885 71.692,311.497 109.107,256.752 C109.107,256.752 138.252,204.764 219.778,122.844 C345.414,-2.792 474.99,-12.244 495.47,8.629 Z" id="Shape" fill="#F4F0D3"></path>
            <path d="M269.402,377.663 C212.294,415.866 184.725,389.872 148.885,354.032 C112.651,317.798 86.263,290.623 125.254,233.515 L131.162,224.063 C115.802,244.937 109.107,256.752 109.107,256.752 C71.692,311.497 97.292,337.884 131.95,372.543 C166.608,407.202 192.996,432.014 247.741,395.386 C247.741,395.386 272.159,381.601 314.301,346.549 C285.55,368.605 269.402,377.663 269.402,377.663 Z" id="Shape" fill="#E8E4C8"></path>
            <path d="M363.531,140.568 C382.829,159.866 382.829,190.98 363.531,210.279 C344.233,229.577 313.119,229.577 293.82,210.279 C274.522,190.981 274.522,159.867 293.82,140.568 C313.118,121.269 344.627,121.269 363.531,140.568 Z" id="Shape" fill="#8BA0AB"></path>
            <path d="M249.71,262.66 C259.556,272.506 240.652,307.558 192.602,355.608 C144.552,403.658 115.408,416.654 105.562,406.414 C95.716,396.568 108.319,367.423 156.368,319.374 C204.811,271.325 239.47,252.42 249.71,262.66 Z" id="Shape" fill="#F26C4F"></path>
            <path d="M328.873,137.811 C338.719,137.811 348.171,141.749 355.261,148.839 C362.35,155.928 366.289,165.381 366.289,175.227 C366.289,185.073 362.351,194.525 355.261,201.615 C348.172,208.704 338.719,212.643 328.873,212.643 C319.027,212.643 309.575,208.705 302.485,201.615 C295.396,194.526 291.457,185.073 291.457,175.227 C291.457,165.381 295.395,155.929 302.485,148.839 C309.574,141.749 319.027,137.811 328.873,137.811 Z M328.873,125.996 C316.27,125.996 303.667,130.722 294.215,140.568 C274.917,159.866 274.917,190.98 294.215,210.279 C303.667,219.731 316.27,224.851 328.873,224.851 C341.476,224.851 354.079,220.125 363.531,210.279 C382.829,190.981 382.829,159.867 363.531,140.568 C354.079,130.722 341.476,125.996 328.873,125.996 Z" id="Shape" fill="#324D5B"></path>
            <path d="M374.953,18.476 C378.498,44.864 392.676,72.827 415.913,96.064 C436.393,116.15 460.024,129.541 483.261,135.055 C509.254,70.463 507.285,20.839 495.47,8.629 C484.048,-3.186 436.787,-5.155 374.953,18.476 Z" id="Shape" fill="#F26C4F"></path>
        </g>
    </g>
</svg>